<mxfile host="app.diagrams.net" modified="2021-06-02T10:21:30.463Z" agent="5.0 (Macintosh; Intel Mac OS X 10_15_7) AppleWebKit/537.36 (KHTML, like Gecko) Chrome/90.0.4430.212 Safari/537.36" etag="gZd3TZSlK86RAvJvDAQ9" version="13.9.2" type="github">
  <diagram id="t5KLYO_8RyEcUY3Eo0_G" name="第 1 页">
    <mxGraphModel dx="910" dy="649" grid="1" gridSize="10" guides="1" tooltips="1" connect="1" arrows="1" fold="1" page="1" pageScale="1" pageWidth="827" pageHeight="1169" math="0" shadow="0">
      <root>
        <mxCell id="0" />
        <mxCell id="1" parent="0" />
        <mxCell id="t415n4CLTocWxzWvGbID-6" value="外部Application" style="shape=image;verticalLabelPosition=bottom;labelBackgroundColor=#ffffff;verticalAlign=top;aspect=fixed;imageAspect=0;image=data:image/svg+xml,PHN2ZyB4bWxuczpjYz0iaHR0cDovL2NyZWF0aXZlY29tbW9ucy5vcmcvbnMjIiB4bWxuczpkYz0iaHR0cDovL3B1cmwub3JnL2RjL2VsZW1lbnRzLzEuMS8iIHhtbG5zOmlua3NjYXBlPSJodHRwOi8vd3d3Lmlua3NjYXBlLm9yZy9uYW1lc3BhY2VzL2lua3NjYXBlIiB4bWxuczpyZGY9Imh0dHA6Ly93d3cudzMub3JnLzE5OTkvMDIvMjItcmRmLXN5bnRheC1ucyMiIHhtbG5zOnNvZGlwb2RpPSJodHRwOi8vc29kaXBvZGkuc291cmNlZm9yZ2UubmV0L0RURC9zb2RpcG9kaS0wLmR0ZCIgeG1sbnM6c3ZnPSJodHRwOi8vd3d3LnczLm9yZy8yMDAwL3N2ZyIgeG1sbnM9Imh0dHA6Ly93d3cudzMub3JnLzIwMDAvc3ZnIiB4bWxuczp4bGluaz0iaHR0cDovL3d3dy53My5vcmcvMTk5OS94bGluayIgdmVyc2lvbj0iMS4xIiBpZD0ic3ZnMTM3OTMiIGlua3NjYXBlOnZlcnNpb249IjAuOTIuMyAoMjQwNTU0NiwgMjAxOC0wMy0xMSkiIHNvZGlwb2RpOmRvY25hbWU9IndlYl9hcHBsaWNhdGlvbl9zZXJ2ZXJfMS5zdmciIHg9IjBweCIgeT0iMHB4IiB2aWV3Qm94PSIwIDAgODQuMTQgNzYuNzQiIHN0eWxlPSJlbmFibGUtYmFja2dyb3VuZDpuZXcgMCAwIDg0LjE0IDc2Ljc0OyIgeG1sOnNwYWNlPSJwcmVzZXJ2ZSI+JiN4YTs8c29kaXBvZGk6bmFtZWR2aWV3IGJvcmRlcmNvbG9yPSIjNjY2NjY2IiBib3JkZXJvcGFjaXR5PSIxIiBmaXQtbWFyZ2luLWJvdHRvbT0iMCIgZml0LW1hcmdpbi1sZWZ0PSIwIiBmaXQtbWFyZ2luLXJpZ2h0PSIwIiBmaXQtbWFyZ2luLXRvcD0iMCIgZ3JpZHRvbGVyYW5jZT0iMTAiIGd1aWRldG9sZXJhbmNlPSIxMCIgaWQ9Im5hbWVkdmlldzEzNzk1IiBpbmtzY2FwZTpjdXJyZW50LWxheWVyPSJzdmcxMzc5MyIgaW5rc2NhcGU6Y3g9IjU2LjA5NTY4MiIgaW5rc2NhcGU6Y3k9IjUxLjE2MTQwMSIgaW5rc2NhcGU6cGFnZW9wYWNpdHk9IjAiIGlua3NjYXBlOnBhZ2VzaGFkb3c9IjIiIGlua3NjYXBlOndpbmRvdy1oZWlnaHQ9IjEwMTciIGlua3NjYXBlOndpbmRvdy1tYXhpbWl6ZWQ9IjEiIGlua3NjYXBlOndpbmRvdy13aWR0aD0iMTkyMCIgaW5rc2NhcGU6d2luZG93LXg9Ii04IiBpbmtzY2FwZTp3aW5kb3cteT0iLTgiIGlua3NjYXBlOnpvb209IjguNDczNjAyNSIgb2JqZWN0dG9sZXJhbmNlPSIxMCIgcGFnZWNvbG9yPSIjZmZmZmZmIiBzaG93Z3JpZD0iZmFsc2UiPiYjeGE7CTwvc29kaXBvZGk6bmFtZWR2aWV3PiYjeGE7PGcgaWQ9ImcxMzc5MSI+JiN4YTsJPHRpdGxlIGlkPSJ0aXRsZTEzNzI5Ij5QYWdlLTE8L3RpdGxlPiYjeGE7CTxnIGlkPSJncm91cDc5MzQtMSI+JiN4YTsJCTx0aXRsZSBpZD0idGl0bGUxMzczMSI+V2ViIEFwcGxpY2F0aW9uIFNlcnZlciAjMTwvdGl0bGU+JiN4YTsJCTxnIGlkPSJncm91cDc5MzUtMiI+JiN4YTsJCQk8dGl0bGUgaWQ9InRpdGxlMTM3MzMiPkJpelRhbGsgU2VydmVyIEJBTS43NjwvdGl0bGU+JiN4YTsJCQk8ZyBpZD0ic2hhcGU3OTM2LTMiPiYjeGE7CQkJCTx0aXRsZSBpZD0idGl0bGUxMzczNSI+U2VydmVyLjYzPC90aXRsZT4mI3hhOwkJCQk8cGF0aCBpZD0icGF0aDEzNzM3IiBpbmtzY2FwZTpjb25uZWN0b3ItY3VydmF0dXJlPSIwIiBzdHlsZT0iZmlsbDojM0Y1NzY1OyIgZD0iTTEuODYsNDYuM3YyNC4wN2wyMi40NCw0LjExdi0yNi45TDEuODYsNDYuM3ogICAgICAgTTEuODYsMzkuNTh2NC42N2wyMi41NCwxLjEzdi01LjQ1TDEuODYsMzkuNTh6IE0yNC40LDMyLjQ5bC0yMi40OSwwLjN2NC42N2wyMi40OSwwLjQ5VjMyLjQ5eiBNMjQuNTEsMjQuOTJsLTIyLjYsMS4xNHY0Ljc0ICAgICAgbDIyLjYtMC40M1YyNC45MnogTTI0LjU3LDE3LjM1TDIuMDMsMTkuMjZ2NC44OWwyMi41NC0xLjM1VjE3LjM1eiBNMjQuNTcsOS45MmwtMjIuNSwyLjYydjQuOTVsMjIuNS0yLjA2VjkuOTJ6IE0yNC42MiwyLjQxICAgICAgTDIuMTMsNS44OXY0Ljc0TDI0LjYyLDcuOFYyLjQxeiBNMjYuOTEsMGwxMy42LDUuNjdsLTAuNTQsNjQuN2wtMTMuODMsNi4zN0wwLDcxLjY1VjQuMzlMMjYuOTEsMHoiLz4mI3hhOwkJCTwvZz4mI3hhOwkJCTxnIGlkPSJncm91cDc5MzctNSIgdHJhbnNmb3JtPSJ0cmFuc2xhdGUoMzkuMTQzMywtNi4yNjI4OSkiPiYjeGE7CQkJCTx0aXRsZSBpZD0idGl0bGUxMzc0MCI+QnVzaW5lc3MgQWN0aXZpdHkgTW9uaXRvcmluZy43MjwvdGl0bGU+JiN4YTsJCQkJPGcgaWQ9Imdyb3VwNzkzOC02Ij4mI3hhOwkJCQkJPHRpdGxlIGlkPSJ0aXRsZTEzNzQyIj5MT0dJQyBBcHBzICMxPC90aXRsZT4mI3hhOwkJCQkJPGcgaWQ9InNoYXBlNzkzOS03Ij4mI3hhOwkJCQkJCTx0aXRsZSBpZD0idGl0bGUxMzc0NCI+U2hlZXQuNzkzOTwvdGl0bGU+JiN4YTsJCQkJCQk8cGF0aCBpZD0icGF0aDEzNzQ2IiBpbmtzY2FwZTpjb25uZWN0b3ItY3VydmF0dXJlPSIwIiBzdHlsZT0iZmlsbDojM0Y1NzY1OyIgZD0iTTQzLjI4LDQzLjc5Yy00MS42MiwwLTQxLjYyLDAtNDEuNjIsMCAgICAgICAgQzAuMjgsNDMuNzksMCw0NC4xMiwwLDQ1LjVjMCwyOS41OCwwLDI5LjU4LDAsMjkuNThjMCwxLjM4LDAuMjgsMS42NiwxLjY2LDEuNjZjNDEuNjIsMCw0MS42MiwwLDQxLjYyLDAgICAgICAgIGMxLjQ0LDAsMS43Mi0wLjI4LDEuNzItMS42NmMwLTI5LjU4LDAtMjkuNTgsMC0yOS41OEM0NSw0NC4xMiw0NC43Miw0My43OSw0My4yOCw0My43OXoiLz4mI3hhOwkJCQkJPC9nPiYjeGE7CQkJCQk8ZyBpZD0ic2hhcGU3OTQwLTkiIHRyYW5zZm9ybT0idHJhbnNsYXRlKDEuMTA3MDEsLTEuNTQ4MDEpIj4mI3hhOwkJCQkJCTx0aXRsZSBpZD0idGl0bGUxMzc0OSI+U2hlZXQuNzk0MDwvdGl0bGU+JiN4YTsJCQkJCQk8cGF0aCBpZD0icGF0aDEzNzUxIiBpbmtzY2FwZTpjb25uZWN0b3ItY3VydmF0dXJlPSIwIiBzdHlsZT0iZmlsbDojMDBCMDUwOyIgZD0iTTAsNTEuNTN2MjUuMjFoNDIuNzlWNTEuNTNIMHoiLz4mI3hhOwkJCQkJPC9nPiYjeGE7CQkJCQk8ZyBpZD0ic2hhcGU3OTQxLTExIiB0cmFuc2Zvcm09InRyYW5zbGF0ZSgxLjE2MjM2LC0yNy42NDMpIj4mI3hhOwkJCQkJCTx0aXRsZSBpZD0idGl0bGUxMzc1NCI+U2hlZXQuNzk0MTwvdGl0bGU+JiN4YTsJCQkJCQk8cGF0aCBpZD0icGF0aDEzNzU2IiBpbmtzY2FwZTpjb25uZWN0b3ItY3VydmF0dXJlPSIwIiBzdHlsZT0iZmlsbDojMjZBOUUwOyIgZD0iTTQuNDgsNzQuNTNjMCwxLjI3LTAuOTksMi4yMS0yLjIxLDIuMjEgICAgICAgIFMwLDc1LjgsMCw3NC41M2MwLTEuMjIsMS4wNS0yLjIxLDIuMjctMi4yMVM0LjQ4LDczLjMxLDQuNDgsNzQuNTN6Ii8+JiN4YTsJCQkJCTwvZz4mI3hhOwkJCQkJPGcgaWQ9InNoYXBlNzk0Mi0xMyIgdHJhbnNmb3JtPSJ0cmFuc2xhdGUoMi4xMDMzMiwtMjguODU5MykiPiYjeGE7CQkJCQkJPHRpdGxlIGlkPSJ0aXRsZTEzNzU5Ij5TaGVldC43OTQyPC90aXRsZT4mI3hhOwkJCQkJCTxwYXRoIGlkPSJwYXRoMTM3NjEiIGlua3NjYXBlOmNvbm5lY3Rvci1jdXJ2YXR1cmU9IjAiIHN0eWxlPSJmaWxsOiNGRkZGRkY7IiBkPSJNMC44OSw3NS41MmwwLjc3LTAuNzJIMS4wNUwwLDc1Ljc0bDEuMDUsMSAgICAgICAgaDAuNjFsLTAuNzctMC43OGgxLjc3di0wLjQ0SDAuODl6Ii8+JiN4YTsJCQkJCTwvZz4mI3hhOwkJCQkJPGcgaWQ9InNoYXBlNzk0My0xNSIgdHJhbnNmb3JtPSJ0cmFuc2xhdGUoNi40NzYwMSwtMjguODU5MykiPiYjeGE7CQkJCQkJPHRpdGxlIGlkPSJ0aXRsZTEzNzY0Ij5TaGVldC43OTQzPC90aXRsZT4mI3hhOwkJCQkJCTxwYXRoIGlkPSJwYXRoMTM3NjYiIGlua3NjYXBlOmNvbm5lY3Rvci1jdXJ2YXR1cmU9IjAiIHN0eWxlPSJmaWxsOiNGRkZGRkY7IiBkPSJNMCw3NC42NHYyLjFoMzcuNDd2LTIuMUgweiIvPiYjeGE7CQkJCQk8L2c+JiN4YTsJCQkJCTxnIGlkPSJzaGFwZTc5NDQtMTciIHRyYW5zZm9ybT0idHJhbnNsYXRlKDExLjU2ODMsLTkuNjE5NzYpIj4mI3hhOwkJCQkJCTx0aXRsZSBpZD0idGl0bGUxMzc2OSI+U2hlZXQuNzk0NDwvdGl0bGU+JiN4YTsJCQkJCQk8cGF0aCBpZD0icGF0aDEzNzcxIiBpbmtzY2FwZTpjb25uZWN0b3ItY3VydmF0dXJlPSIwIiBzdHlsZT0iZmlsbDojRkZGRkZGOyIgZD0iTTIxLjA5LDcxLjkzYzAtMS4xMS0wLjg5LTIuMDUtMi4wNS0yLjA1ICAgICAgICBjLTMuMSwwLTMuMSwwLTMuMSwwYy0yLjcxLTIuNjUtMi43MS0yLjY1LTIuNzEtMi42NWMtNi42NCwwLTYuNjQsMC02LjY0LDBjLTIuODMsMi43MS0yLjgzLDIuNzEtMi44MywyLjcxICAgICAgICBjLTEuNzEsMC4xNi0zLjEsMS42LTMuMSwzLjM3YzAsMC42NiwwLDAuNjYsMCwwLjY2Yy0wLjY2LDAtMC42NiwwLTAuNjYsMGMwLDEuMzMsMCwxLjMzLDAsMS4zM2MyLjg4LDAsMi44OCwwLDIuODgsMCAgICAgICAgYzAuMjcsMC44MywxLjA1LDEuNDQsMS45NCwxLjQ0YzAuODgsMCwxLjYtMC42MSwxLjg4LTEuNDRjOC40MSwwLDguNDEsMCw4LjQxLDBjMC4zMywwLjgzLDEuMDUsMS40NCwxLjk0LDEuNDQgICAgICAgIGMwLjg4LDAsMS42LTAuNjEsMS45NC0xLjQ0YzIuNzYsMCwyLjc2LDAsMi43NiwwYzAtMS4zMywwLTEuMzMsMC0xLjMzYy0wLjY2LDAtMC42NiwwLTAuNjYsMEwyMS4wOSw3MS45M3ogTTE5Ljc2LDcxLjkzICAgICAgICBjMCwyLjA0LDAsMi4wNCwwLDIuMDRjLTAuNzcsMC0wLjc3LDAtMC43NywwYy0wLjM0LTAuNzctMS4wNi0xLjM4LTEuOTQtMS4zOGMtMC44OSwwLTEuNjEsMC42MS0xLjk0LDEuMzggICAgICAgIGMtNS41OSwwLTUuNTksMC01LjU5LDBjMC0yLjcxLDAtMi43MSwwLTIuNzFjOS41MiwwLDkuNTIsMCw5LjUyLDBDMTkuNDgsNzEuMjYsMTkuNzYsNzEuNTQsMTkuNzYsNzEuOTN6IE0xNCw2OS44OCAgICAgICAgYy00LjQ4LDAtNC40OCwwLTQuNDgsMGMwLTEuMzIsMC0xLjMyLDAtMS4zMmMzLjE2LDAsMy4xNiwwLDMuMTYsMEwxNCw2OS44OHogTTcuMDgsNjguNTZjMS4xMSwwLDEuMTEsMCwxLjExLDAgICAgICAgIGMwLDEuMzIsMCwxLjMyLDAsMS4zMmMtMi40MywwLTIuNDMsMC0yLjQzLDBMNy4wOCw2OC41NnogTTIuMDUsNzMuMzFjMC0xLjE2LDAuODgtMi4wNSwyLjEtMi4wNWM0LjA0LDAsNC4wNCwwLDQuMDQsMCAgICAgICAgYzAsMi43MSwwLDIuNzEsMCwyLjcxYy0xLjQ5LDAtMS40OSwwLTEuNDksMGMtMC4yOC0wLjc3LTEtMS4zOC0xLjg4LTEuMzhjLTAuODksMC0xLjY3LDAuNjEtMS45NCwxLjM4Yy0wLjgzLDAtMC44MywwLTAuODMsMCAgICAgICAgVjczLjMxeiBNNC44Miw3NS4zYy0wLjM5LDAtMC42Ny0wLjI4LTAuNjctMC42NmMwLTAuMzMsMC4yOC0wLjY3LDAuNjctMC42N2MwLjMzLDAsMC42NiwwLjM0LDAuNjYsMC42NyAgICAgICAgQzUuNDgsNzUuMDIsNS4xNSw3NS4zLDQuODIsNzUuM3ogTTE3LjA1LDc1LjNjLTAuMzksMC0wLjY3LTAuMjgtMC42Ny0wLjY2YzAtMC4zMywwLjI4LTAuNjcsMC42Ny0wLjY3czAuNjYsMC4zNCwwLjY2LDAuNjcgICAgICAgIEMxNy43MSw3NS4wMiwxNy40NCw3NS4zLDE3LjA1LDc1LjN6Ii8+JiN4YTsJCQkJCTwvZz4mI3hhOwkJCQkJPGcgaWQ9InNoYXBlNzk0NS0xOSIgdHJhbnNmb3JtPSJ0cmFuc2xhdGUoMC45NjQ4ODMsLTEuNTIyNTkpIj4mI3hhOwkJCQkJCTx0aXRsZSBpZD0idGl0bGUxMzc3NCI+U2hlZXQuNzk0NTwvdGl0bGU+JiN4YTsJCQkJCQk8cGF0aCBpZD0icGF0aDEzNzc2IiBpbmtzY2FwZTpjb25uZWN0b3ItY3VydmF0dXJlPSIwIiBzdHlsZT0iZmlsbDojMDBCMEYwOyIgZD0iTTAsNTEuNTJ2MjUuMjJoNDIuODVWNTEuNTJIMHoiLz4mI3hhOwkJCQkJPC9nPiYjeGE7CQkJCTwvZz4mI3hhOwkJCTwvZz4mI3hhOwkJPC9nPiYjeGE7CQk8ZyBpZD0iZ3JvdXA3OTQ2LTIxIiB0cmFuc2Zvcm09InRyYW5zbGF0ZSg1MS40ODgzLC0xMC45ODE4KSI+JiN4YTsJCQk8dGl0bGUgaWQ9InRpdGxlMTM3ODIiPldlYnNpdGVzPC90aXRsZT4mI3hhOwkJCTxnIGlkPSJzaGFwZTc5NDctMjIiPiYjeGE7CQkJCTx0aXRsZSBpZD0idGl0bGUxMzc4NCI+U2hlZXQuNzk0NzwvdGl0bGU+JiN4YTsJCQkJPHBhdGggaWQ9InBhdGgxMzc4NiIgaW5rc2NhcGU6Y29ubmVjdG9yLWN1cnZhdHVyZT0iMCIgc3R5bGU9ImZpbGw6I0ZGRkZGRjsiIGQ9Ik0xMC4xLDU2LjUzYzUuNTksMCwxMC4yMSw0LjQ5LDEwLjIxLDEwLjA1ICAgICAgYzAsNS42Ny00LjYyLDEwLjE2LTEwLjIxLDEwLjE2QzQuNTIsNzYuNzQsMCw3Mi4yNSwwLDY2LjU4QzAsNjEuMDIsNC41Miw1Ni41MywxMC4xLDU2LjUzeiBNMTMuODYsNzQuOTIgICAgICBjLTAuMzItMS43MSwwLjY1LTQuNiwwLjExLTUuMTNjLTAuMjEtMC4xMS0wLjQzLTAuMjItMC42NC0wLjExYy0wLjQzLDAuMTEtMC44NiwwLjMyLTEuMTksMC4yMmMtMS44Mi0wLjg2LTAuNzUtMy43NSwxLjA4LTQuMzkgICAgICBjMC4zMi0wLjExLDAuNjQtMC4xMSwwLjk3LTAuMTFjMC41My0wLjEsMC44Ni0wLjEsMC44NiwwLjIyYzAsMC40MywwLjg2LDAuNzUsMS4wNywwLjc1YzAuMTEsMCwwLjExLTAuMzIsMC4yMi0wLjMyICAgICAgYzAuNzUsMCwxLjI4LDAuNDIsMS4zOSwwLjFjMC4yMi0xLjA3LDAuMTEtMC41My0wLjc1LTAuNjRjLTAuMzItMC4xMS0wLjExLTAuNjQtMC40My0wLjY0Yy0wLjIxLTAuMTEsMC4xMSwwLjY0LTAuMjEsMC40MyAgICAgIGMtMC40My0wLjMyLTAuNjUtMS4wNy0xLjA4LTEuMThjLTAuNTQtMC4xLDAuMzIsMC40MywwLjQzLDAuNzVjMC4xMSwwLjMyLTAuMzIsMC43NS0wLjU0LDAuNDNjLTAuMS0wLjExLDAuNDMtMC40My0wLjIxLTAuODYgICAgICBjLTAuMTEtMC4yMS0wLjQzLTAuMjEtMC42NSwwYy0wLjMyLDAuMzItMC40MywwLjY0LTAuNTMsMC42NGMtMC4zMywwLjIyLTAuNTQsMC4yMi0wLjg2LDAuMTFjLTAuNDMtMC4xMS0wLjMyLTEuMDcsMC4xLTAuOTYgICAgICBjMS4yOSwwLjMyLDAuMTEtMC40MywwLjQzLTAuNjRjMC4xMS0wLjExLDAuNTQtMC40MywwLjc2LTAuNzVjMC4yMS0wLjIyLDAuMS0wLjg2LDAuNTMtMC43NWMwLjIyLDAsMC4xMSwwLjQzLDAuMzMsMC41MyAgICAgIGMwLjEsMC4xMSwwLjQzLDAsMC42NCwwYzAuMzIsMCwwLjMyLTAuMjEsMC4zMi0wLjUzYzAtMC40MywwLjc2LTAuMzIsMC43Ni0wLjU0Yy0wLjExLTAuMzEtMC44NiwwLjExLTAuODYtMC4zMSAgICAgIGMwLTAuNTQsMC42NC0wLjY1LDAuMjEtMC43NWMtMC4zMi0wLjExLTAuNzUsMC4yMS0wLjY0LDAuOTZjMC4xLDAuNzUsMC4yMSwxLjA3LTAuMzMsMC44NWMtMC40My0wLjMyLDAuMTEtMC44NS0wLjMyLTAuNjQgICAgICBjLTAuMzIsMC4yMS0wLjU0LDAuMzItMC41NC0wLjIxYzAtMC40MywwLjg2LTEuNzEsMS41MS0xLjkzYy0xLjE5LTAuOTYtMi41OC0xLjYtNC4xOS0xLjgybDAsMGMwLDAuODYsMCwxLjQtMC4xMSwxLjgyICAgICAgYzAsMC41NC0xLjYxLDAuNjUtMS44MywxLjYxYy0wLjIxLDAuODUtMC41MywwLjMyLTEuMDctMC4zM2MtMC41NC0wLjYzLDAuMTEtMS40OS0wLjIxLTIuMDNjLTAuMjItMC41My0xLjE5LDAuMjItMS4xOS0wLjMyICAgICAgYzAtMC4yMSwwLjIyLTAuNDMsMC4yMi0wLjUzYy0wLjExLDAuMS0wLjIyLDAuMS0wLjMzLDAuMWMtMC4zMiwwLjIyLTAuNTMsMC44Ni0wLjY0LDAuOTdjLTAuMzIsMC40MywwLjQzLDAuMzIsMC43NSwwLjc1ICAgICAgYzAuNDMsMC42NCwwLjc1LDEuMDYsMC41NCwxLjM5Yy0wLjExLDAuMzItMS40LDAtMS4xOC0wLjU0YzAuMzItMC41MywwLjExLTAuNjQtMC4yMi0wLjc1Yy0wLjMyLDAtMC4zMiwwLjQzLTAuMzIsMC45NiAgICAgIGMwLDAuNDQtMC44NiwwLjU0LTEuMjksMC45N0M0LjMsNjIuMyw1LjA1LDYyLjczLDUuNyw2Mi45NWMwLjY0LDAuMjEsMC4yMS0wLjg2LDAuNDMtMS40YzAuMjEtMC43NSwwLjk2LTAuMSwxLjUsMC41NCAgICAgIGMwLjQzLDAuNjQsMS4xOCwxLjUsMC4yMiwxLjkzYy0xLjYyLDAuNjMtMi4yNiwxLjM4LTIuNTgsMi4wM2MtMC4zMywwLjY0LDAsMC45Ni0wLjIyLDEuMTdjLTAuMjEsMC4yMi0wLjIxLTAuMS0wLjQzLTAuNjQgICAgICBjLTAuMjEtMC4zMi0wLjk2LTAuMzItMS4yOSwwLjMyYy0wLjIxLDAuMTEtMC4yMSwwLjQzLTAuMjEsMC43NWMwLDEuMDcsMC43NS0wLjMyLDEuMTgtMC4xMWMwLjU0LDAuMTEtMC40MywwLjIyLTAuMzIsMC42NCAgICAgIGMwLjEsMC40MywwLjc1LTAuMjEsMC41NCwwLjc1Yy0wLjExLDAuNTQsMC43NSwwLjExLDEuMjktMC4xYzEuMTgtMC40MywyLjA0LDEuNDksMi45LDEuODJjMC45NiwwLjMyLDEuMjksMC41MywxLjA3LDAuOTYgICAgICBjLTAuNjQsMS4yOC0xLjkzLDIuMTQtMi41OCwzLjYzYzAuODYsMC4zMiwxLjk0LDAuNDMsMi45LDAuNDNDMTEuNSw3NS42NywxMi42OCw3NS40NiwxMy44Niw3NC45MnogTTE5LjAyLDY4LjcyICAgICAgYy0wLjIxLDAtMC40MywwLjExLTAuNTQsMC4xMWMtMC41My0wLjIyLTAuMjEtMi4zNi0wLjk2LTIuMjVjLTAuMzIsMC4xMSwwLjIxLDEuNzEsMC45NiwyLjU3YzAuMTEsMC4xLDAuMjIsMCwwLjQ0LDAgICAgICBDMTguOTIsNjkuMDQsMTkuMDIsNjguODMsMTkuMDIsNjguNzJ6IE0xOC40OCw3MC4yMmMtMC44Ni0wLjIyLTEuNSwxLjcxLTEuNzEsMi41NkMxNy41Miw3Mi4wMywxOC4wNiw3MS4xOCwxOC40OCw3MC4yMnogICAgICAgTTUuNTksNzQuNWMwLjExLTAuODYsMC4yMi0xLjgyLDAtMS45M0M0Ljg0LDcxLjkzLDQuMyw3MC45Nyw1LjA1LDcwYzAuMTEtMC4xLDAuMjItMC4yMSwwLjIyLTAuNDNjMC4xLTAuMzItMC4yMi0wLjEtMC43NS0wLjEgICAgICBjLTAuNTQsMC0wLjExLTAuODYtMS4xOS0wLjk3Yy0xLjA3LTAuMS0xLjA3LTAuMzItMS4xOC0wLjk2YzAtMC42NC0wLjY0LTEuMjgtMS4xOC0xLjM5YzAsMC4xMSwwLDAuMzIsMCwwLjQzICAgICAgQzAuOTcsNzAsMi45LDczLDUuNTksNzQuNXogTTExLjYxLDYwLjkxYzAuNDMsMC4yMiwwLjg2LTAuMTEsMC43NS0wLjQyQzEyLjA0LDU5Ljk1LDExLjA3LDYwLjI3LDExLjYxLDYwLjkxeiBNMTMuNDMsNjEuNzcgICAgICBjMC4zMywwLDAuNTQsMC42NCwwLjQzLDAuOTZjLTAuMjEsMC42NC0wLjc1LDAuMjItMC44Ni0wLjIxQzEzLDYyLjA5LDEzLjExLDYxLjc3LDEzLjQzLDYxLjc3eiBNMTYuOTgsNjQuNzYgICAgICBjLTAuMzItMC4zMi0wLjIxLTAuNzQsMC4yMi0wLjg1YzAuNzUtMC4xMSwxLjcyLDAuNjQsMS4wNywwLjg1QzE3Ljk1LDY0Ljg3LDE3LjQxLDY0Ljg3LDE2Ljk4LDY0Ljc2eiBNNC45NCw2Ny40NCAgICAgIGMwLjMzLDAsMS4xOSwwLjIxLDEuNCwwLjQzYzAuMjIsMC4zMS0wLjY0LDAuMjEtMS4xOCwwQzQuODQsNjcuNzYsNC42Miw2Ny41NCw0Ljk0LDY3LjQ0eiIvPiYjeGE7CQkJPC9nPiYjeGE7CQk8L2c+JiN4YTsJPC9nPiYjeGE7PC9nPiYjeGE7PC9zdmc+;" vertex="1" parent="1">
          <mxGeometry x="500" y="123" width="84" height="77" as="geometry" />
        </mxCell>
        <mxCell id="t415n4CLTocWxzWvGbID-13" value="小程序" style="shape=image;verticalLabelPosition=bottom;labelBackgroundColor=#ffffff;verticalAlign=top;aspect=fixed;imageAspect=0;image=data:image/svg+xml,PHN2ZyB4bWxuczpjYz0iaHR0cDovL2NyZWF0aXZlY29tbW9ucy5vcmcvbnMjIiB4bWxuczpkYz0iaHR0cDovL3B1cmwub3JnL2RjL2VsZW1lbnRzLzEuMS8iIHhtbG5zOmlua3NjYXBlPSJodHRwOi8vd3d3Lmlua3NjYXBlLm9yZy9uYW1lc3BhY2VzL2lua3NjYXBlIiB4bWxuczpyZGY9Imh0dHA6Ly93d3cudzMub3JnLzE5OTkvMDIvMjItcmRmLXN5bnRheC1ucyMiIHhtbG5zOnNvZGlwb2RpPSJodHRwOi8vc29kaXBvZGkuc291cmNlZm9yZ2UubmV0L0RURC9zb2RpcG9kaS0wLmR0ZCIgeG1sbnM6c3ZnPSJodHRwOi8vd3d3LnczLm9yZy8yMDAwL3N2ZyIgeG1sbnM9Imh0dHA6Ly93d3cudzMub3JnLzIwMDAvc3ZnIiB4bWxuczp4bGluaz0iaHR0cDovL3d3dy53My5vcmcvMTk5OS94bGluayIgdmVyc2lvbj0iMS4xIiBpZD0ic3ZnMjQzOTciIGlua3NjYXBlOnZlcnNpb249IjAuOTIuMyAoMjQwNTU0NiwgMjAxOC0wMy0xMSkiIHNvZGlwb2RpOmRvY25hbWU9Im1vYmlsZV8zLnN2ZyIgeD0iMHB4IiB5PSIwcHgiIHZpZXdCb3g9IjAgMCAyNCA0My41IiBzdHlsZT0iZW5hYmxlLWJhY2tncm91bmQ6bmV3IDAgMCAyNCA0My41OyIgeG1sOnNwYWNlPSJwcmVzZXJ2ZSI+JiN4YTs8c29kaXBvZGk6bmFtZWR2aWV3IGJvcmRlcmNvbG9yPSIjNjY2NjY2IiBib3JkZXJvcGFjaXR5PSIxIiBmaXQtbWFyZ2luLWJvdHRvbT0iMCIgZml0LW1hcmdpbi1sZWZ0PSIwIiBmaXQtbWFyZ2luLXJpZ2h0PSIwIiBmaXQtbWFyZ2luLXRvcD0iMCIgZ3JpZHRvbGVyYW5jZT0iMTAiIGd1aWRldG9sZXJhbmNlPSIxMCIgaWQ9Im5hbWVkdmlldzI0Mzk5IiBpbmtzY2FwZTpjdXJyZW50LWxheWVyPSJzdmcyNDM5NyIgaW5rc2NhcGU6Y3g9IjE2IiBpbmtzY2FwZTpjeT0iMjkiIGlua3NjYXBlOnBhZ2VvcGFjaXR5PSIwIiBpbmtzY2FwZTpwYWdlc2hhZG93PSIyIiBpbmtzY2FwZTp3aW5kb3ctaGVpZ2h0PSIxMDE3IiBpbmtzY2FwZTp3aW5kb3ctbWF4aW1pemVkPSIxIiBpbmtzY2FwZTp3aW5kb3ctd2lkdGg9IjE5MjAiIGlua3NjYXBlOndpbmRvdy14PSItOCIgaW5rc2NhcGU6d2luZG93LXk9Ii04IiBpbmtzY2FwZTp6b29tPSIxNC40NSIgb2JqZWN0dG9sZXJhbmNlPSIxMCIgcGFnZWNvbG9yPSIjZmZmZmZmIiBzaG93Z3JpZD0iZmFsc2UiPiYjeGE7CTwvc29kaXBvZGk6bmFtZWR2aWV3PiYjeGE7PGcgaWQ9ImcyNDM5NSIgdHJhbnNmb3JtPSJ0cmFuc2xhdGUoLTAuNzUwMDEyODcsLTAuNzUpIj4mI3hhOwk8dGl0bGUgaWQ9InRpdGxlMjQzNDUiPlBhZ2UtMTwvdGl0bGU+JiN4YTsJPGcgaWQ9Imdyb3VwMzM0My0xIiB0cmFuc2Zvcm09InRyYW5zbGF0ZSgxLjUsLTEuNSkiPiYjeGE7CQk8dGl0bGUgaWQ9InRpdGxlMjQzNDciPk1vYmlsZSAjMzwvdGl0bGU+JiN4YTsJCTxnIGlkPSJzaGFwZTMzNDQtMiI+JiN4YTsJCQk8dGl0bGUgaWQ9InRpdGxlMjQzNDkiPnJlY3QyMTcxPC90aXRsZT4mI3hhOwkJCSYjeGE7CQkJCTxwYXRoIGlkPSJwYXRoMjQzNTEiIGlua3NjYXBlOmNvbm5lY3Rvci1jdXJ2YXR1cmU9IjAiIHN0eWxlPSJmaWxsOiNGQ0ZDRkM7c3Ryb2tlOiM1NTZBOEE7c3Ryb2tlLXdpZHRoOjEuNTtzdHJva2UtbWl0ZXJsaW1pdDozOyIgZD0iICAgICBNMCw0MmMwLDEuNjYsMS4zNCwzLDMsM2gxNi41YzEuNjYsMCwzLTEuMzQsMy0zVjZjMC0xLjY2LTEuMzQtMy0zLTNIM0MxLjM0LDMsMCw0LjM0LDAsNlY0MnoiLz4mI3hhOwkJPC9nPiYjeGE7CQk8ZyBpZD0ic2hhcGUzMzQ1LTQiIHRyYW5zZm9ybT0idHJhbnNsYXRlKDIuMjUsLTYuNzUpIj4mI3hhOwkJCTx0aXRsZSBpZD0idGl0bGUyNDM1NCI+cmVjdDIxNzM8L3RpdGxlPiYjeGE7CQkJPHJlY3QgaWQ9InJlY3QyNDM1NiIgeD0iMCIgeT0iMTQuMjUiIHN0eWxlPSJmaWxsOiNFNUU1RTU7IiB3aWR0aD0iMTgiIGhlaWdodD0iMzAuNzUiLz4mI3hhOwkJPC9nPiYjeGE7CQk8ZyBpZD0ic2hhcGUzMzQ2LTYiIHRyYW5zZm9ybT0idHJhbnNsYXRlKDcuNSwtMzguMjUpIj4mI3hhOwkJCTx0aXRsZSBpZD0idGl0bGUyNDM1OSI+cGF0aDIxNzU8L3RpdGxlPiYjeGE7CQkJPHBhdGggaWQ9InBhdGgyNDM2MSIgaW5rc2NhcGU6Y29ubmVjdG9yLWN1cnZhdHVyZT0iMCIgc3R5bGU9ImZpbGw6IzJCQzdGNDsiIGQ9Ik02LjIsNDVIMC41NUMwLjI1LDQ1LDAsNDQuNjYsMCw0NC4yNSAgICAgczAuMjUtMC43NSwwLjU1LTAuNzVINi4yYzAuMywwLDAuNTUsMC4zNCwwLjU1LDAuNzVTNi41LDQ1LDYuMiw0NXoiLz4mI3hhOwkJPC9nPiYjeGE7CQk8ZyBpZD0ic2hhcGUzMzQ3LTgiIHRyYW5zZm9ybT0idHJhbnNsYXRlKDguMjUsLTMuMDgyNSkiPiYjeGE7CQkJPHRpdGxlIGlkPSJ0aXRsZTI0MzY0Ij5wYXRoMjE3NzwvdGl0bGU+JiN4YTsJCQk8cGF0aCBpZD0icGF0aDI0MzY2IiBpbmtzY2FwZTpjb25uZWN0b3ItY3VydmF0dXJlPSIwIiBzdHlsZT0iZmlsbDojMkJDN0Y0OyIgZD0iTTUuNTEsNDVIMC40OUMwLjIyLDQ1LDAsNDQuNywwLDQ0LjMzICAgICBjMC0wLjM3LDAuMjItMC42NywwLjQ5LTAuNjdoNS4wMmMwLjI3LDAsMC40OSwwLjMsMC40OSwwLjY3QzYsNDQuNyw1Ljc4LDQ1LDUuNTEsNDV6Ii8+JiN4YTsJCTwvZz4mI3hhOwkJPGcgaWQ9InNoYXBlMzM0OC0xMCIgdHJhbnNmb3JtPSJ0cmFuc2xhdGUoMy43NSwtMykiPiYjeGE7CQkJPHRpdGxlIGlkPSJ0aXRsZTI0MzY5Ij5jaXJjbGUyMTc5PC90aXRsZT4mI3hhOwkJCTxjaXJjbGUgaWQ9ImVsbGlwc2UyNDM3MSIgc3R5bGU9ImZpbGw6IzJCQzdGNDsiIGN4PSIwLjc1IiBjeT0iNDQuMjUiIHI9IjAuNzUiLz4mI3hhOwkJPC9nPiYjeGE7CQk8ZyBpZD0ic2hhcGUzMzQ5LTEyIiB0cmFuc2Zvcm09InRyYW5zbGF0ZSgxNy4yNSwtMykiPiYjeGE7CQkJPHRpdGxlIGlkPSJ0aXRsZTI0Mzc0Ij5jaXJjbGUyMTgxPC90aXRsZT4mI3hhOwkJCTxjaXJjbGUgaWQ9ImVsbGlwc2UyNDM3NiIgc3R5bGU9ImZpbGw6IzJCQzdGNDsiIGN4PSIwLjc1IiBjeT0iNDQuMjUiIHI9IjAuNzUiLz4mI3hhOwkJPC9nPiYjeGE7CQk8ZyBpZD0ic2hhcGUzMzUwLTE0IiB0cmFuc2Zvcm09InRyYW5zbGF0ZSg0LjUsLTI3Ljc1KSI+JiN4YTsJCQk8dGl0bGUgaWQ9InRpdGxlMjQzNzkiPnJlY3QyMTgzPC90aXRsZT4mI3hhOwkJCTxyZWN0IGlkPSJyZWN0MjQzODEiIHg9IjAiIHk9IjM5Ljc1IiBzdHlsZT0iZmlsbDojMkJDN0Y0OyIgd2lkdGg9IjcuNSIgaGVpZ2h0PSI1LjI1Ii8+JiN4YTsJCTwvZz4mI3hhOwkJPGcgaWQ9InNoYXBlMzM1MS0xNiIgdHJhbnNmb3JtPSJ0cmFuc2xhdGUoMTIuNzUsLTI3Ljc1KSI+JiN4YTsJCQk8dGl0bGUgaWQ9InRpdGxlMjQzODQiPnJlY3QyMTg1PC90aXRsZT4mI3hhOwkJCTxyZWN0IGlkPSJyZWN0MjQzODYiIHg9IjAiIHk9IjM5Ljc1IiBzdHlsZT0iZmlsbDojQUJBQkFCOyIgd2lkdGg9IjUuMjUiIGhlaWdodD0iNS4yNSIvPiYjeGE7CQk8L2c+JiN4YTsJCTxnIGlkPSJzaGFwZTMzNTItMTgiIHRyYW5zZm9ybT0idHJhbnNsYXRlKDQuNSwtMjEuNzUpIj4mI3hhOwkJCTx0aXRsZSBpZD0idGl0bGUyNDM4OSI+cmVjdDIxODc8L3RpdGxlPiYjeGE7CQkJPHJlY3QgaWQ9InJlY3QyNDM5MSIgeD0iMCIgeT0iMzkuNzUiIHN0eWxlPSJmaWxsOiM1NUQyRjY7IiB3aWR0aD0iNS4yNSIgaGVpZ2h0PSI1LjI1Ii8+JiN4YTsJCTwvZz4mI3hhOwk8L2c+JiN4YTs8L2c+JiN4YTs8L3N2Zz4=;" vertex="1" parent="1">
          <mxGeometry x="260" y="142" width="31.64" height="58" as="geometry" />
        </mxCell>
        <mxCell id="t415n4CLTocWxzWvGbID-14" value="App" style="shape=image;verticalLabelPosition=bottom;labelBackgroundColor=#ffffff;verticalAlign=top;aspect=fixed;imageAspect=0;image=data:image/svg+xml,PHN2ZyB4bWxuczpjYz0iaHR0cDovL2NyZWF0aXZlY29tbW9ucy5vcmcvbnMjIiB4bWxuczpkYz0iaHR0cDovL3B1cmwub3JnL2RjL2VsZW1lbnRzLzEuMS8iIHhtbG5zOmlua3NjYXBlPSJodHRwOi8vd3d3Lmlua3NjYXBlLm9yZy9uYW1lc3BhY2VzL2lua3NjYXBlIiB4bWxuczpyZGY9Imh0dHA6Ly93d3cudzMub3JnLzE5OTkvMDIvMjItcmRmLXN5bnRheC1ucyMiIHhtbG5zOnNvZGlwb2RpPSJodHRwOi8vc29kaXBvZGkuc291cmNlZm9yZ2UubmV0L0RURC9zb2RpcG9kaS0wLmR0ZCIgeG1sbnM6c3ZnPSJodHRwOi8vd3d3LnczLm9yZy8yMDAwL3N2ZyIgeG1sbnM9Imh0dHA6Ly93d3cudzMub3JnLzIwMDAvc3ZnIiB4bWxuczp4bGluaz0iaHR0cDovL3d3dy53My5vcmcvMTk5OS94bGluayIgdmVyc2lvbj0iMS4xIiBpZD0ic3ZnMzI1MDkiIGlua3NjYXBlOnZlcnNpb249IjAuOTIuMyAoMjQwNTU0NiwgMjAxOC0wMy0xMSkiIHNvZGlwb2RpOmRvY25hbWU9InNtYXJ0cGhvbmUuc3ZnIiB4PSIwcHgiIHk9IjBweCIgdmlld0JveD0iMCAwIDI4LjE5IDU3Ljc0IiBzdHlsZT0iZW5hYmxlLWJhY2tncm91bmQ6bmV3IDAgMCAyOC4xOSA1Ny43NDsiIHhtbDpzcGFjZT0icHJlc2VydmUiPiYjeGE7PHNvZGlwb2RpOm5hbWVkdmlldyBib3JkZXJjb2xvcj0iIzY2NjY2NiIgYm9yZGVyb3BhY2l0eT0iMSIgZml0LW1hcmdpbi1ib3R0b209IjAiIGZpdC1tYXJnaW4tbGVmdD0iMCIgZml0LW1hcmdpbi1yaWdodD0iMCIgZml0LW1hcmdpbi10b3A9IjAiIGdyaWR0b2xlcmFuY2U9IjEwIiBndWlkZXRvbGVyYW5jZT0iMTAiIGlkPSJuYW1lZHZpZXczMjUxMSIgaW5rc2NhcGU6Y3VycmVudC1sYXllcj0ic3ZnMzI1MDkiIGlua3NjYXBlOmN4PSIxOC43OTA5MjkiIGlua3NjYXBlOmN5PSIzOC40OTYxMTUiIGlua3NjYXBlOnBhZ2VvcGFjaXR5PSIwIiBpbmtzY2FwZTpwYWdlc2hhZG93PSIyIiBpbmtzY2FwZTp3aW5kb3ctaGVpZ2h0PSIxMDE3IiBpbmtzY2FwZTp3aW5kb3ctbWF4aW1pemVkPSIxIiBpbmtzY2FwZTp3aW5kb3ctd2lkdGg9IjE5MjAiIGlua3NjYXBlOndpbmRvdy14PSItOCIgaW5rc2NhcGU6d2luZG93LXk9Ii04IiBpbmtzY2FwZTp6b29tPSIxMC45NzczMjEiIG9iamVjdHRvbGVyYW5jZT0iMTAiIHBhZ2Vjb2xvcj0iI2ZmZmZmZiIgc2hvd2dyaWQ9ImZhbHNlIj4mI3hhOwk8L3NvZGlwb2RpOm5hbWVkdmlldz4mI3hhOzxnIGlkPSJnMzI1MDciIHRyYW5zZm9ybT0idHJhbnNsYXRlKC0wLjc1MDAzNTY2LC0wLjc0OTk5NDg1KSI+JiN4YTsJPHRpdGxlIGlkPSJ0aXRsZTMyNDM3Ij5QYWdlLTE8L3RpdGxlPiYjeGE7CTxnIGlkPSJncm91cDMzNzktMSIgdHJhbnNmb3JtPSJ0cmFuc2xhdGUoMC43NSwtMC43NSkiPiYjeGE7CQk8dGl0bGUgaWQ9InRpdGxlMzI0MzkiPlNtYXJ0cGhvbmU8L3RpdGxlPiYjeGE7CQk8ZyBpZD0ic2hhcGUzMzgwLTIiPiYjeGE7CQkJPHRpdGxlIGlkPSJ0aXRsZTMyNDQxIj5wYXRoMjU5NTY8L3RpdGxlPiYjeGE7CQkJPHBhdGggaWQ9InBhdGgzMjQ0MyIgaW5rc2NhcGU6Y29ubmVjdG9yLWN1cnZhdHVyZT0iMCIgc3R5bGU9ImZpbGw6IzJFMkUyRTsiIGQ9Ik0yMi44Nyw1OS4yNEg1LjMxQzIuMzgsNTkuMjQsMCw1Ni44NiwwLDUzLjkyICAgICBjMCwwLDAsMCwwLDBWNi44MUMwLDMuODgsMi4zOCwxLjUsNS4zMSwxLjVoMTcuNTZjMi45MywwLDUuMzIsMi4zNyw1LjMyLDUuMzFjMCwwLDAsMCwwLDB2NDcuMTFjMCwyLjkzLTIuMzcsNS4zMi01LjMxLDUuMzIgICAgIEMyMi44OCw1OS4yNCwyMi44Nyw1OS4yNCwyMi44Nyw1OS4yNHoiLz4mI3hhOwkJPC9nPiYjeGE7CQk8ZyBpZD0ic2hhcGUzMzgxLTQiIHRyYW5zZm9ybT0idHJhbnNsYXRlKDEuODE4NDUsLTcuMjczOCkiPiYjeGE7CQkJPHRpdGxlIGlkPSJ0aXRsZTMyNDQ2Ij5wYXRoMjU5NTg8L3RpdGxlPiYjeGE7CQkJPHJlY3QgaWQ9InJlY3QzMjQ0OCIgeD0iMCIgeT0iMTYuNSIgc3R5bGU9ImZpbGw6IzEwNkVCRTsiIHdpZHRoPSIyNC41NSIgaGVpZ2h0PSI0Mi43MyIvPiYjeGE7CQk8L2c+JiN4YTsJCTxnIGlkPSJzaGFwZTMzODItNiIgdHJhbnNmb3JtPSJ0cmFuc2xhdGUoMTMuNjQwMiwtNTQuMjUzKSI+JiN4YTsJCQk8dGl0bGUgaWQ9InRpdGxlMzI0NTEiPmNpcmNsZTI1OTYwPC90aXRsZT4mI3hhOwkJCTxjaXJjbGUgaWQ9ImVsbGlwc2UzMjQ1MyIgc3R5bGU9ImZpbGw6Izc2NzU3NjsiIGN4PSIwLjUiIGN5PSI1OC43NCIgcj0iMC41Ii8+JiN4YTsJCTwvZz4mI3hhOwkJPGcgaWQ9InNoYXBlMzM4My04IiB0cmFuc2Zvcm09InRyYW5zbGF0ZSgxMS42MjYzLC0xLjI5NzQ2KSI+JiN4YTsJCQk8dGl0bGUgaWQ9InRpdGxlMzI0NTYiPmNpcmNsZTI1OTYyPC90aXRsZT4mI3hhOwkJCTxjaXJjbGUgaWQ9ImVsbGlwc2UzMjQ1OCIgc3R5bGU9ImZpbGw6IzQ3NDc0NzsiIGN4PSIyLjM1IiBjeT0iNTYuODgiIHI9IjIuMzUiLz4mI3hhOwkJPC9nPiYjeGE7CQk8ZyBpZD0ic2hhcGUzMzg0LTEwIiB0cmFuc2Zvcm09InRyYW5zbGF0ZSgxMS4wMzMsLTUxLjgyNTgpIj4mI3hhOwkJCTx0aXRsZSBpZD0idGl0bGUzMjQ2MSI+cGF0aDI1OTY0PC90aXRsZT4mI3hhOwkJCTxwYXRoIGlkPSJwYXRoMzI0NjMiIGlua3NjYXBlOmNvbm5lY3Rvci1jdXJ2YXR1cmU9IjAiIHN0eWxlPSJmaWxsOiM3Njc1NzY7IiBkPSJNNS41Miw1OS4yNEgwLjVDMC4yMiw1OS4yMSwwLjAxLDU4Ljk4LDAsNTguNyAgICAgYzAtMC4yOCwwLjIyLTAuNSwwLjUtMC4zN2g1LjAyYzAuMjgtMC4xMywwLjUsMC4wOSwwLjUsMC4zN0M2LjAxLDU4Ljk4LDUuOCw1OS4yMSw1LjUyLDU5LjI0TDUuNTIsNTkuMjR6Ii8+JiN4YTsJCTwvZz4mI3hhOwkJPGcgaWQ9InNoYXBlMzM4NS0xMiIgdHJhbnNmb3JtPSJ0cmFuc2xhdGUoNS4yNzM5NiwtMzEuMTQ5MSkiPiYjeGE7CQkJPHRpdGxlIGlkPSJ0aXRsZTMyNDY2Ij5wYXRoMjU5NjY8L3RpdGxlPiYjeGE7CQkJPHBhdGggaWQ9InBhdGgzMjQ2OCIgaW5rc2NhcGU6Y29ubmVjdG9yLWN1cnZhdHVyZT0iMCIgc3R5bGU9ImZpbGw6IzI0ODhEODsiIGQ9Ik0yMS4wOSw1OS4yNFYzOS45MkgwTDIxLjA5LDU5LjI0eiIvPiYjeGE7CQk8L2c+JiN4YTsJCTxnIGlkPSJzaGFwZTMzODYtMTQiIHRyYW5zZm9ybT0idHJhbnNsYXRlKDIuNzI3NjgsLTE3LjcyOTkpIj4mI3hhOwkJCTx0aXRsZSBpZD0idGl0bGUzMjQ3MSI+cGF0aDI1OTY4PC90aXRsZT4mI3hhOwkJCTxwYXRoIGlkPSJwYXRoMzI0NzMiIGlua3NjYXBlOmNvbm5lY3Rvci1jdXJ2YXR1cmU9IjAiIHN0eWxlPSJmaWxsOiNGRkZGRkY7IiBkPSJNMCw0OC43OGgyMi4yOHY0LjU1SDBWNDguNzh6IE0wLDU0LjY5aDIyLjI4ICAgICB2NC41NUgwVjU0LjY5eiIvPiYjeGE7CQk8L2c+JiN4YTsJCTxnIGlkPSJzaGFwZTMzODctMTYiIHRyYW5zZm9ybT0idHJhbnNsYXRlKDIuNzI3NjgsLTExLjM2NTMpIj4mI3hhOwkJCTx0aXRsZSBpZD0idGl0bGUzMjQ3NiI+cGF0aDI1OTcwPC90aXRsZT4mI3hhOwkJCTxyZWN0IGlkPSJyZWN0MzI0NzgiIHg9IjAiIHk9IjU0LjI0IiBzdHlsZT0iZmlsbDojMDBCMjk0OyIgd2lkdGg9IjIyLjI4IiBoZWlnaHQ9IjUiLz4mI3hhOwkJPC9nPiYjeGE7CQk8ZyBpZD0ic2hhcGUzMzg4LTE4IiB0cmFuc2Zvcm09InRyYW5zbGF0ZSgzLjkzNjA0LC0zMi40NjgpIj4mI3hhOwkJCTx0aXRsZSBpZD0idGl0bGUzMjQ4MSI+Y2lyY2xlMjU5NzI8L3RpdGxlPiYjeGE7CQkJPGNpcmNsZSBpZD0iZWxsaXBzZTMyNDgzIiBzdHlsZT0iZmlsbDojMDBCMjk0OyIgY3g9IjEuMjciIGN5PSI1Ny45NiIgcj0iMS4yNyIvPiYjeGE7CQk8L2c+JiN4YTsJCTxnIGlkPSJzaGFwZTMzODktMjAiIHRyYW5zZm9ybT0idHJhbnNsYXRlKDEyLjg5NDIsLTMyLjQ2OCkiPiYjeGE7CQkJPHRpdGxlIGlkPSJ0aXRsZTMyNDg2Ij5jaXJjbGUyNTk3NDwvdGl0bGU+JiN4YTsJCQk8Y2lyY2xlIGlkPSJlbGxpcHNlMzI0ODgiIHN0eWxlPSJmaWxsOiNBNkE2QTY7IiBjeD0iMS4yNyIgY3k9IjU3Ljk2IiByPSIxLjI3Ii8+JiN4YTsJCTwvZz4mI3hhOwkJPGcgaWQ9InNoYXBlMzM5MC0yMiIgdHJhbnNmb3JtPSJ0cmFuc2xhdGUoNS45MDk5NiwtNDAuOTE1MSkiPiYjeGE7CQkJPHRpdGxlIGlkPSJ0aXRsZTMyNDkxIj5wYXRoMjU5NzY8L3RpdGxlPiYjeGE7CQkJPHJlY3QgaWQ9InJlY3QzMjQ5MyIgeD0iMCIgeT0iNTguMzMiIHN0eWxlPSJmaWxsOiM2OUFGRTU7IiB3aWR0aD0iMTYuODIiIGhlaWdodD0iMC45MSIvPiYjeGE7CQk8L2c+JiN4YTsJCTxnIGlkPSJzaGFwZTMzOTEtMjQiIHRyYW5zZm9ybT0idHJhbnNsYXRlKDIxLjQ3OTEsLTMyLjQ2OCkiPiYjeGE7CQkJPHRpdGxlIGlkPSJ0aXRsZTMyNDk2Ij5jaXJjbGUyNTk3ODwvdGl0bGU+JiN4YTsJCQk8Y2lyY2xlIGlkPSJlbGxpcHNlMzI0OTgiIHN0eWxlPSJmaWxsOiNBNkE2QTY7IiBjeD0iMS4yNyIgY3k9IjU3Ljk2IiByPSIxLjI3Ii8+JiN4YTsJCTwvZz4mI3hhOwkJPGcgaWQ9InNoYXBlMzM5Mi0yNiIgdHJhbnNmb3JtPSJ0cmFuc2xhdGUoMS44MTg0NSwtNDMuNjQyOCkiPiYjeGE7CQkJPHRpdGxlIGlkPSJ0aXRsZTMyNTAxIj5wYXRoMjU5ODA8L3RpdGxlPiYjeGE7CQkJPHJlY3QgaWQ9InJlY3QzMjUwMyIgeD0iMCIgeT0iNTIuODciIHN0eWxlPSJmaWxsOiNGRkE5NDA7IiB3aWR0aD0iMjQuNTUiIGhlaWdodD0iNi4zNiIvPiYjeGE7CQk8L2c+JiN4YTsJPC9nPiYjeGE7PC9nPiYjeGE7PC9zdmc+;" vertex="1" parent="1">
          <mxGeometry x="360" y="142" width="28" height="58" as="geometry" />
        </mxCell>
        <mxCell id="t415n4CLTocWxzWvGbID-15" value="Web App" style="shape=image;verticalLabelPosition=bottom;labelBackgroundColor=#ffffff;verticalAlign=top;aspect=fixed;imageAspect=0;image=data:image/svg+xml,PHN2ZyB4bWxuczpjYz0iaHR0cDovL2NyZWF0aXZlY29tbW9ucy5vcmcvbnMjIiB4bWxuczpkYz0iaHR0cDovL3B1cmwub3JnL2RjL2VsZW1lbnRzLzEuMS8iIHhtbG5zOmlua3NjYXBlPSJodHRwOi8vd3d3Lmlua3NjYXBlLm9yZy9uYW1lc3BhY2VzL2lua3NjYXBlIiB4bWxuczpyZGY9Imh0dHA6Ly93d3cudzMub3JnLzE5OTkvMDIvMjItcmRmLXN5bnRheC1ucyMiIHhtbG5zOnNvZGlwb2RpPSJodHRwOi8vc29kaXBvZGkuc291cmNlZm9yZ2UubmV0L0RURC9zb2RpcG9kaS0wLmR0ZCIgeG1sbnM6c3ZnPSJodHRwOi8vd3d3LnczLm9yZy8yMDAwL3N2ZyIgeG1sbnM9Imh0dHA6Ly93d3cudzMub3JnLzIwMDAvc3ZnIiB4bWxuczp4bGluaz0iaHR0cDovL3d3dy53My5vcmcvMTk5OS94bGluayIgdmVyc2lvbj0iMS4xIiBpZD0ic3ZnMTgxOTY5IiBpbmtzY2FwZTp2ZXJzaW9uPSIwLjkyLjMgKDI0MDU1NDYsIDIwMTgtMDMtMTEpIiBzb2RpcG9kaTpkb2NuYW1lPSJrYW5iYW4uc3ZnIiB4PSIwcHgiIHk9IjBweCIgdmlld0JveD0iMCAwIDQ4IDM4LjI1IiBzdHlsZT0iZW5hYmxlLWJhY2tncm91bmQ6bmV3IDAgMCA0OCAzOC4yNTsiIHhtbDpzcGFjZT0icHJlc2VydmUiPiYjeGE7PHNvZGlwb2RpOm5hbWVkdmlldyBib3JkZXJjb2xvcj0iIzY2NjY2NiIgYm9yZGVyb3BhY2l0eT0iMSIgZml0LW1hcmdpbi1ib3R0b209IjAiIGZpdC1tYXJnaW4tbGVmdD0iMCIgZml0LW1hcmdpbi1yaWdodD0iMCIgZml0LW1hcmdpbi10b3A9IjAiIGdyaWR0b2xlcmFuY2U9IjEwIiBndWlkZXRvbGVyYW5jZT0iMTAiIGlkPSJuYW1lZHZpZXcxODE5NzEiIGlua3NjYXBlOmN1cnJlbnQtbGF5ZXI9InN2ZzE4MTk2OSIgaW5rc2NhcGU6Y3g9IjMyLjUwMDAxNSIgaW5rc2NhcGU6Y3k9IjI2LjAwMDAxNiIgaW5rc2NhcGU6cGFnZW9wYWNpdHk9IjAiIGlua3NjYXBlOnBhZ2VzaGFkb3c9IjIiIGlua3NjYXBlOndpbmRvdy1oZWlnaHQ9IjEwMTciIGlua3NjYXBlOndpbmRvdy1tYXhpbWl6ZWQ9IjEiIGlua3NjYXBlOndpbmRvdy13aWR0aD0iMTkyMCIgaW5rc2NhcGU6d2luZG93LXg9Ii04IiBpbmtzY2FwZTp3aW5kb3cteT0iLTgiIGlua3NjYXBlOnpvb209IjEzLjEzNjM2NCIgb2JqZWN0dG9sZXJhbmNlPSIxMCIgcGFnZWNvbG9yPSIjZmZmZmZmIiBzaG93Z3JpZD0iZmFsc2UiPiYjeGE7CTwvc29kaXBvZGk6bmFtZWR2aWV3PiYjeGE7PHBhdGggaWQ9InBhdGgxODE4OTAiIGlua3NjYXBlOmNvbm5lY3Rvci1jdXJ2YXR1cmU9IjAiIHN0eWxlPSJmaWxsOiNGRkZGRkY7IiBkPSJNMC43NSwzNmMwLDAuODMsMC42NywxLjUsMS41LDEuNWg0My41ICBjMC44MywwLDEuNS0wLjY3LDEuNS0xLjVWMi4yNWMwLTAuODMtMC42Ny0xLjUtMS41LTEuNUgyLjI1Yy0wLjgzLDAtMS41LDAuNjctMS41LDEuNVYzNnoiLz4mI3hhOzxnIGlkPSJzaGFwZTI4MTktNSIgdHJhbnNmb3JtPSJ0cmFuc2xhdGUoNC41LC0zMS41KSI+JiN4YTsJPHRpdGxlIGlkPSJ0aXRsZTE4MTg5NSI+cmVjdDM4MzwvdGl0bGU+JiN4YTsJPHJlY3QgaWQ9InJlY3QxODE4OTciIHg9IjAiIHk9IjQyLjc1IiBzdHlsZT0iZmlsbDojNTY2QTg5OyIgd2lkdGg9IjYuNzUiIGhlaWdodD0iNi43NSIvPiYjeGE7PC9nPiYjeGE7PGcgaWQ9InNoYXBlMjgyMC03IiB0cmFuc2Zvcm09InRyYW5zbGF0ZSgxMy41LC0zMS41KSI+JiN4YTsJPHRpdGxlIGlkPSJ0aXRsZTE4MTkwMCI+cmVjdDM4NTwvdGl0bGU+JiN4YTsJPHJlY3QgaWQ9InJlY3QxODE5MDIiIHg9IjAiIHk9IjQyLjc1IiBzdHlsZT0iZmlsbDojNTY2QTg5OyIgd2lkdGg9IjYuNzUiIGhlaWdodD0iNi43NSIvPiYjeGE7PC9nPiYjeGE7PGcgaWQ9InNoYXBlMjgyMS05IiB0cmFuc2Zvcm09InRyYW5zbGF0ZSg0LjUsLTIzLjI1KSI+JiN4YTsJPHRpdGxlIGlkPSJ0aXRsZTE4MTkwNSI+cmVjdDM4NzwvdGl0bGU+JiN4YTsJPHJlY3QgaWQ9InJlY3QxODE5MDciIHg9IjAiIHk9IjQyLjc1IiBzdHlsZT0iZmlsbDojNTY2QTg5OyIgd2lkdGg9IjYuNzUiIGhlaWdodD0iNi43NSIvPiYjeGE7PC9nPiYjeGE7PGcgaWQ9InNoYXBlMjgyMi0xMSIgdHJhbnNmb3JtPSJ0cmFuc2xhdGUoMTMuNSwtMjMuMjUpIj4mI3hhOwk8dGl0bGUgaWQ9InRpdGxlMTgxOTEwIj5yZWN0Mzg5PC90aXRsZT4mI3hhOwk8cmVjdCBpZD0icmVjdDE4MTkxMiIgeD0iMCIgeT0iNDIuNzUiIHN0eWxlPSJmaWxsOiM1NjZBODk7IiB3aWR0aD0iNi43NSIgaGVpZ2h0PSI2Ljc1Ii8+JiN4YTs8L2c+JiN4YTs8ZyBpZD0ic2hhcGUyODIzLTEzIiB0cmFuc2Zvcm09InRyYW5zbGF0ZSgyNywtMzEuNSkiPiYjeGE7CTx0aXRsZSBpZD0idGl0bGUxODE5MTUiPnJlY3QzOTE8L3RpdGxlPiYjeGE7CTxyZWN0IGlkPSJyZWN0MTgxOTE3IiB4PSIwIiB5PSI0Mi43NSIgc3R5bGU9ImZpbGw6IzAwQkNGMjsiIHdpZHRoPSI2Ljc1IiBoZWlnaHQ9IjYuNzUiLz4mI3hhOzwvZz4mI3hhOzxnIGlkPSJzaGFwZTI4MjQtMTUiIHRyYW5zZm9ybT0idHJhbnNsYXRlKDI3LC0yMy4yNSkiPiYjeGE7CTx0aXRsZSBpZD0idGl0bGUxODE5MjAiPnJlY3QzOTM8L3RpdGxlPiYjeGE7CTxyZWN0IGlkPSJyZWN0MTgxOTIyIiB4PSIwIiB5PSI0Mi43NSIgc3R5bGU9ImZpbGw6IzAwQkNGMjsiIHdpZHRoPSI2Ljc1IiBoZWlnaHQ9IjYuNzUiLz4mI3hhOzwvZz4mI3hhOzxnIGlkPSJzaGFwZTI4MjUtMTciIHRyYW5zZm9ybT0idHJhbnNsYXRlKDM2LC0yMy4yNSkiPiYjeGE7CTx0aXRsZSBpZD0idGl0bGUxODE5MjUiPnJlY3QzOTU8L3RpdGxlPiYjeGE7CTxyZWN0IGlkPSJyZWN0MTgxOTI3IiB4PSIwIiB5PSI0Mi43NSIgc3R5bGU9ImZpbGw6IzAwQkNGMjsiIHdpZHRoPSI2Ljc1IiBoZWlnaHQ9IjYuNzUiLz4mI3hhOzwvZz4mI3hhOzxnIGlkPSJzaGFwZTI4MjYtMTkiIHRyYW5zZm9ybT0idHJhbnNsYXRlKDQuNSwtMTUpIj4mI3hhOwk8dGl0bGUgaWQ9InRpdGxlMTgxOTMwIj5yZWN0Mzk3PC90aXRsZT4mI3hhOwk8cmVjdCBpZD0icmVjdDE4MTkzMiIgeD0iMCIgeT0iNDIuNzUiIHN0eWxlPSJmaWxsOiM1NjZBODk7IiB3aWR0aD0iNi43NSIgaGVpZ2h0PSI2Ljc1Ii8+JiN4YTs8L2c+JiN4YTs8ZyBpZD0ic2hhcGUyODI3LTIxIiB0cmFuc2Zvcm09InRyYW5zbGF0ZSgxMy41LC0xNSkiPiYjeGE7CTx0aXRsZSBpZD0idGl0bGUxODE5MzUiPnJlY3QzOTk8L3RpdGxlPiYjeGE7CTxyZWN0IGlkPSJyZWN0MTgxOTM3IiB4PSIwIiB5PSI0Mi43NSIgc3R5bGU9ImZpbGw6IzU2NkE4OTsiIHdpZHRoPSI2Ljc1IiBoZWlnaHQ9IjYuNzUiLz4mI3hhOzwvZz4mI3hhOzxyZWN0IGlkPSJyZWN0MTgxOTQzIiB4PSIxLjUiIHk9IjAuNzUiIHN0eWxlPSJmaWxsOiNFNUU1RTU7IiB3aWR0aD0iNDUiIGhlaWdodD0iOC4xOCIvPiYjeGE7PHBhdGggaWQ9InBhdGgxODE5NDgiIGlua3NjYXBlOmNvbm5lY3Rvci1jdXJ2YXR1cmU9IjAiIHN0eWxlPSJmaWxsOm5vbmU7c3Ryb2tlOiM1NTZBOEE7c3Ryb2tlLXdpZHRoOjEuNTtzdHJva2UtbWl0ZXJsaW1pdDozOyIgZD0iICBNMC43NSwzNmMwLDAuODMsMC42NywxLjUsMS41LDEuNWg0My41YzAuODMsMCwxLjUtMC42NywxLjUtMS41VjIuMjVjMC0wLjgzLTAuNjctMS41LTEuNS0xLjVIMi4yNWMtMC44MywwLTEuNSwwLjY3LTEuNSwxLjVWMzZ6Ii8+JiN4YTs8cGF0aCBpZD0icGF0aDE4MTk1MyIgaW5rc2NhcGU6Y29ubmVjdG9yLWN1cnZhdHVyZT0iMCIgc3R5bGU9ImZpbGw6bm9uZTtzdHJva2U6IzU1NkE4QTtzdHJva2Utd2lkdGg6MS41O3N0cm9rZS1taXRlcmxpbWl0OjM7IiBkPSIgIE0wLjc1LDguMjVINDgiLz4mI3hhOzxwYXRoIGlkPSJwYXRoMTgxOTU4IiBpbmtzY2FwZTpjb25uZWN0b3ItY3VydmF0dXJlPSIwIiBzdHlsZT0iZmlsbDpub25lO3N0cm9rZTojNTY2QTg5O3N0cm9rZS13aWR0aDoxLjU7c3Ryb2tlLW1pdGVybGltaXQ6MzsiIGQ9IiAgTTI0LDExLjI1djI0Ii8+JiN4YTs8cmVjdCBpZD0icmVjdDE4MTk2MyIgeD0iMCIgeT0iLTUuMjUiIHN0eWxlPSJmaWxsOm5vbmU7IiB3aWR0aD0iNDgiIGhlaWdodD0iNDgiLz4mI3hhOzwvc3ZnPg==;" vertex="1" parent="1">
          <mxGeometry x="120" y="143" width="72" height="57" as="geometry" />
        </mxCell>
        <mxCell id="t415n4CLTocWxzWvGbID-19" value="Private Gateway" style="shape=image;verticalLabelPosition=bottom;labelBackgroundColor=#ffffff;verticalAlign=top;aspect=fixed;imageAspect=0;image=data:image/svg+xml,PHN2ZyB4bWxuczpkYz0iaHR0cDovL3B1cmwub3JnL2RjL2VsZW1lbnRzLzEuMS8iIHhtbG5zOmNjPSJodHRwOi8vY3JlYXRpdmVjb21tb25zLm9yZy9ucyMiIHhtbG5zOnJkZj0iaHR0cDovL3d3dy53My5vcmcvMTk5OS8wMi8yMi1yZGYtc3ludGF4LW5zIyIgeG1sbnM6c3ZnPSJodHRwOi8vd3d3LnczLm9yZy8yMDAwL3N2ZyIgeG1sbnM9Imh0dHA6Ly93d3cudzMub3JnLzIwMDAvc3ZnIiB4bWxuczpzb2RpcG9kaT0iaHR0cDovL3NvZGlwb2RpLnNvdXJjZWZvcmdlLm5ldC9EVEQvc29kaXBvZGktMC5kdGQiIHhtbG5zOmlua3NjYXBlPSJodHRwOi8vd3d3Lmlua3NjYXBlLm9yZy9uYW1lc3BhY2VzL2lua3NjYXBlIiB2ZXJzaW9uPSIxLjEiIGlkPSJzdmc0OTI1OSIgaW5rc2NhcGU6dmVyc2lvbj0iMC45Mi4zICgyNDA1NTQ2LCAyMDE4LTAzLTExKSIgc29kaXBvZGk6ZG9jbmFtZT0iYXBwbGljYXRpb25fZ2F0ZXdheS5zdmciIHg9IjBweCIgeT0iMHB4IiB2aWV3Qm94PSIwIDAgMTAwLjMxIDEwMC4xMSIgeG1sOnNwYWNlPSJwcmVzZXJ2ZSIgd2lkdGg9IjEwMC4zMSIgaGVpZ2h0PSIxMDAuMTEiPjxtZXRhZGF0YSBpZD0ibWV0YWRhdGExNjMzNSI+PHJkZjpSREY+PGNjOldvcmsgcmRmOmFib3V0PSIiPjxkYzpmb3JtYXQ+aW1hZ2Uvc3ZnK3htbDwvZGM6Zm9ybWF0PjxkYzp0eXBlIHJkZjpyZXNvdXJjZT0iaHR0cDovL3B1cmwub3JnL2RjL2RjbWl0eXBlL1N0aWxsSW1hZ2UiLz48ZGM6dGl0bGUvPjwvY2M6V29yaz48L3JkZjpSREY+PC9tZXRhZGF0YT48ZGVmcyBpZD0iZGVmczE2MzMzIi8+JiN4YTs8ZmlsdGVyIGlkPSJmaWx0ZXJfMiI+JiN4YTsJPGZlR2F1c3NpYW5CbHVyIGlkPSJmZUdhdXNzaWFuQmx1cjQ5MTg0IiBzdGREZXZpYXRpb249IjIiLz4mI3hhOzwvZmlsdGVyPiYjeGE7PHNvZGlwb2RpOm5hbWVkdmlldyBib3JkZXJjb2xvcj0iIzY2NjY2NiIgYm9yZGVyb3BhY2l0eT0iMSIgZml0LW1hcmdpbi1ib3R0b209IjAiIGZpdC1tYXJnaW4tbGVmdD0iMCIgZml0LW1hcmdpbi1yaWdodD0iMCIgZml0LW1hcmdpbi10b3A9IjAiIGdyaWR0b2xlcmFuY2U9IjEwIiBndWlkZXRvbGVyYW5jZT0iMTAiIGlkPSJuYW1lZHZpZXc0OTI2MSIgaW5rc2NhcGU6Y3VycmVudC1sYXllcj0ic3ZnNDkyNTkiIGlua3NjYXBlOmN4PSIzNy42OTE3NzEiIGlua3NjYXBlOmN5PSI0OC40MTY5MjYiIGlua3NjYXBlOnBhZ2VvcGFjaXR5PSIwIiBpbmtzY2FwZTpwYWdlc2hhZG93PSIyIiBpbmtzY2FwZTp3aW5kb3ctaGVpZ2h0PSIxMDE3IiBpbmtzY2FwZTp3aW5kb3ctbWF4aW1pemVkPSIxIiBpbmtzY2FwZTp3aW5kb3ctd2lkdGg9IjE5MjAiIGlua3NjYXBlOndpbmRvdy14PSItOCIgaW5rc2NhcGU6d2luZG93LXk9Ii04IiBpbmtzY2FwZTp6b29tPSI1LjIxOTMxOTgiIG9iamVjdHRvbGVyYW5jZT0iMTAiIHBhZ2Vjb2xvcj0iI2ZmZmZmZiIgc2hvd2dyaWQ9ImZhbHNlIj4mI3hhOwk8L3NvZGlwb2RpOm5hbWVkdmlldz4mI3hhOyYjeGE7PHBhdGggaWQ9InBhdGg0OTE5NyIgaW5rc2NhcGU6Y29ubmVjdG9yLWN1cnZhdHVyZT0iMCIgc3R5bGU9ImZpbGw6IzdmYmEwMCIgZD0ibSA1MC4wNSwxMDAuMTEgYyAtMi40LDAgLTQuOCwtMS4wMSAtNi42LC0yLjgxIEwgMi44LDU2LjY2IEMgMSw1NC44NiAwLDUyLjQ2IDAsNTAuMDUgYyAwLC0yLjQgMSwtNC44IDIuOCwtNi42IEwgNDMuNDUsMi44IEMgNDUuMjUsMSA0Ny42NSwwIDUwLjA1LDAgYyAyLjQxLDAgNC44MSwxIDYuNjEsMi44IEwgOTcuNSw0My42NSBjIDEuOCwxLjggMi44MSw0IDIuODEsNi42IDAsMi40MSAtMS4wMSw0LjgxIC0yLjgxLDYuNjEgTCA1Ni42Niw5Ny4zIGMgLTEuOCwxLjggLTQuMiwyLjgxIC02LjYxLDIuODEgeiIvPiYjeGE7JiN4YTs8cGF0aCBpZD0icGF0aDQ5MjA1IiBpbmtzY2FwZTpjb25uZWN0b3ItY3VydmF0dXJlPSIwIiBzdHlsZT0iZmlsbDojZmZmZmZmIiBkPSJtIDU5LjU0LDM3LjIgYyAtMi44LDIuMTQgLTYuMDksMy4xOSAtOS4zNywzLjE5IC00LjY0LDAgLTkuMjQsLTIuMDkgLTEyLjI3LC02LjA2IC01LjE5LC02Ljc3IC0zLjkxLC0xNi40NiAyLjg3LC0yMS42NSAyLjgsLTIuMTUgNi4xLC0zLjE4IDkuMzcsLTMuMTggNC42NSwwIDkuMjQsMi4wOSAxMi4yOCw2LjA2IDUuMTgsNi43OCAzLjg5LDE2LjQ2IC0yLjg4LDIxLjY0IHoiLz4mI3hhOyYjeGE7PHBhdGggaWQ9InBhdGg0OTIxMyIgaW5rc2NhcGU6Y29ubmVjdG9yLWN1cnZhdHVyZT0iMCIgc3R5bGU9ImZpbGw6I2ZmZmZmZjtmaWxsLW9wYWNpdHk6MC4xNSIgZD0iTSA1Ni42NiwyLjggQyA1NC44NiwxIDUyLjQ2LDAgNTAuMDUsMCBjIC0yLjQsMCAtNC44LDEgLTYuNiwyLjggTCAyLjgsNDMuNDUgQyAxLDQ1LjI1IDAsNDcuNjUgMCw1MC4wNSBjIDAsMi40MSAxLDQuODEgMi44LDYuNjEgTCAyNS44Myw3OS42OSA2OS4yNywxNS40MiBaIi8+JiN4YTsmI3hhOzxwYXRoIGlkPSJwYXRoNDkyMjEiIGlua3NjYXBlOmNvbm5lY3Rvci1jdXJ2YXR1cmU9IjAiIHN0eWxlPSJmaWxsOiNmZmZmZmYiIGQ9Ik0gNTAuMDUsOTEuMyA2My4yNyw3OC4wOCBIIDUzLjg2IFYgMzguMzQgaCAtNy44MSB2IDM5Ljc0IGggLTkuMjEgeiIvPiYjeGE7JiN4YTs8cGF0aCBpZD0icGF0aDQ5MjI5IiBpbmtzY2FwZTpjb25uZWN0b3ItY3VydmF0dXJlPSIwIiBzdHlsZT0iZmlsbDojZmZmZmZmIiBkPSJNIDc4Ljc0LDY3LjA0IFYgNDguMzUgbCAtNi41MSw2LjUxIC0xNi45MSwtMTYuOTEgLTUuNjYsNS42NyAxNi45MSwxNi45IC02LjUyLDYuNTIgeiIvPiYjeGE7JiN4YTs8cGF0aCBpZD0icGF0aDQ5MjM3IiBpbmtzY2FwZTpjb25uZWN0b3ItY3VydmF0dXJlPSIwIiBzdHlsZT0iZmlsbDojZmZmZmZmIiBkPSJNIDIxLjM5LDY3LjExIEggNDAuMDggTCAzMy41Niw2MC41OSA1MC45NSw0My4yMSA0NS4yOCwzNy41NSAyNy45LDU0LjkzIDIxLjM5LDQ4LjQyIFoiLz4mI3hhOyYjeGE7PHBhdGggaWQ9InBhdGg0OTI0NSIgaW5rc2NhcGU6Y29ubmVjdG9yLWN1cnZhdHVyZT0iMCIgc3R5bGU9ImZpbGw6IzU5YjRkOSIgZD0ibSA1OC4yOSwzNS41OCBjIC0yLjQyLDEuODUgLTUuMjgsMi43NiAtOC4xMiwyLjc2IC00LjAzLDAgLTguMDEsLTEuODEgLTEwLjY0LC01LjI2IC00LjUsLTUuODcgLTMuMzksLTE0LjI3IDIuNDksLTE4Ljc3IDIuNDMsLTEuODYgNS4yOSwtMi43NSA4LjEyLC0yLjc1IDQuMDMsMCA4LjAyLDEuOCAxMC42NSw1LjI1IDQuNSw1Ljg3IDMuMzgsMTQuMjcgLTIuNSwxOC43NyB6Ii8+JiN4YTsmI3hhOzxwYXRoIGlkPSJwYXRoNDkyNTMiIGlua3NjYXBlOmNvbm5lY3Rvci1jdXJ2YXR1cmU9IjAiIHN0eWxlPSJmaWxsOiNmZmZmZmYiIGQ9Im0gNTUuODMsMjcuMyBjIDAuOTgsMS4yNyAyLjc4LDEuNDkgNC4wNCwwLjU0IDAuMDcsLTAuMDUgMC4xMiwtMC4xMiAwLjE4LC0wLjE3IDEuMjksMC45MSAyLjE4LDEuNTEgMi42OSwxLjg1IDAuMTUsLTAuMzkgMC4yNSwtMC43NiAwLjM2LC0xLjE1IC0wLjUzLC0wLjM5IC0xLjI2LC0wLjk1IC0yLjMsLTEuNzkgMC4zNCwtMC45IDAuMjMsLTEuOTUgLTAuMzksLTIuNzggLTAuOSwtMS4xNSAtMi40OCwtMS40NSAtMy43MiwtMC43MyAtMS4zNiwtMS4yMyAtMi44NiwtMi42MyAtNC40NCwtNC4yIDQuOTEsLTIuNjQgOC40LC0yLjI1IDguNCwtMi4yNSAtMC41OSwtMC43NSAtMS4yNCwtMS40IC0xLjkzLC0xLjk4IC0yLjA3LC0wLjMyIC01LjI5LC0wLjI5IC04Ljk3LDEuNjcgViAxNi4zIGMgLTEuMjIsLTEuMjggLTIuNDcsLTIuNjUgLTMuNzQsLTQuMTMgLTAuNiwwLjIgLTEuMiwwLjQ0IC0xLjc3LDAuNzMgMC45MywxLjUzIDIuMiwzLjA3IDMuNjIsNC41OCAwLDAuMDEgMCwwLjAxIDAuMDEsMC4wMSAtMS4xOSwwLjgzIC0yLjUxLDEuOTQgLTMuNzIsMy4yMyAtMC4xNiwwLjE2IC0wLjMxLDAuMzMgLTAuNDUsMC40OSAtMC43MywtMC4xNSAtMS41LC0wLjEgLTIuMjEsMC4xNSAtMS4yMSwtMi42MSAtMS4xMiwtNC43MSAtMC45MiwtNS44IC0wLjUzLDAuNTUgLTEuMDIsMS4xMyAtMS40NSwxLjc1IC0wLjMxLDEuMyAtMC40LDMuMTYgMC41Myw1LjQxIC0xLjA4LDEuNDIgLTEuMTMsMy40MiAwLDQuOSAwLjEsMC4xMiAwLjIsMC4yNCAwLjMsMC4zNSAtMC40OSwxLjY4IC0wLjcxLDMuMyAtMC43OCw0LjY5IDAuMTIsMC4xNyAwLjEyLDAuMzEgMC4yNSwwLjQ4IDAuNjQsMC44MyAxLjQ1LDEuNTIgMi4yMywyLjE1IC0wLjEsLTEuNDcgMC4wMSwtMy42NSAwLjkyLC02LjA5IDAuNjMsMC4wNCAxLjI3LC0wLjA2IDEuODYsLTAuMzEgMC4zNSwwLjMxIDAuNywwLjYxIDEuMDksMC45MiAxLjMxLDEuMDQgMi42MiwxLjg1IDMuOSwyLjQ5IC0wLjA2LDAuNjUgMC4xLDEuMzIgMC41MiwxLjg4IDAuOSwxLjE3IDIuNTcsMS4zOSAzLjc0LDAuNDkgMC4yNCwtMC4xOCAwLjQzLC0wLjQxIDAuNTksLTAuNjUgMi4wOSwwLjQ3IDMuOTEsMC41NSA1LjI2LDAuNTUgMC4yLDAgMS4xNiwtMS4zMSAxLjcxLC0yLjExIC0wLjgyLDAuMTcgLTMuMjYsMC41IC02LjU5LC0wLjQ1IC0wLjA4LC0wLjM4IC0wLjIzLC0wLjc0IC0wLjQ4LC0xLjA3IC0wLjg0LC0xLjEgLTIuMzksLTEuMzUgLTMuNTQsLTAuNiAtMS4xNiwtMC42MyAtMi4zNywtMS40MiAtMy42MiwtMi40MSAtMC4yNiwtMC4yIC0wLjUsLTAuNCAtMC43MywtMC42IDAuNzYsLTEuMiAwLjg0LC0yLjc0IDAuMTcsLTQuMDQgMC4xNSwtMC4xNSAwLjMsLTAuMzEgMC40NiwtMC40NiAxLjI0LC0xLjE2IDIuNDEsLTIuMDggMy41LC0yLjgyIC0wLjA1LC0wLjA0IC0wLjA5LC0wLjA5IC0wLjEzLC0wLjEzIDAuMDQsMC4wNCAwLjA4LDAuMDggMC4xMywwLjEyIHYgMCBjIDEuNjcsMS41NSAzLjQ0LDMuMDIgNS4xMiw0LjMzIC0wLjQ0LDAuOTQgLTAuMzcsMi4wOCAwLjMsMi45NyB6Ii8+JiN4YTs8L3N2Zz4=;" vertex="1" parent="1">
          <mxGeometry x="210" y="300" width="70" height="70" as="geometry" />
        </mxCell>
        <mxCell id="t415n4CLTocWxzWvGbID-20" value="Public Gateway" style="shape=image;verticalLabelPosition=bottom;labelBackgroundColor=#ffffff;verticalAlign=top;aspect=fixed;imageAspect=0;image=data:image/svg+xml,PHN2ZyB4bWxuczpkYz0iaHR0cDovL3B1cmwub3JnL2RjL2VsZW1lbnRzLzEuMS8iIHhtbG5zOmNjPSJodHRwOi8vY3JlYXRpdmVjb21tb25zLm9yZy9ucyMiIHhtbG5zOnJkZj0iaHR0cDovL3d3dy53My5vcmcvMTk5OS8wMi8yMi1yZGYtc3ludGF4LW5zIyIgeG1sbnM6c3ZnPSJodHRwOi8vd3d3LnczLm9yZy8yMDAwL3N2ZyIgeG1sbnM9Imh0dHA6Ly93d3cudzMub3JnLzIwMDAvc3ZnIiB4bWxuczpzb2RpcG9kaT0iaHR0cDovL3NvZGlwb2RpLnNvdXJjZWZvcmdlLm5ldC9EVEQvc29kaXBvZGktMC5kdGQiIHhtbG5zOmlua3NjYXBlPSJodHRwOi8vd3d3Lmlua3NjYXBlLm9yZy9uYW1lc3BhY2VzL2lua3NjYXBlIiB2ZXJzaW9uPSIxLjEiIGlkPSJzdmc0OTI1OSIgaW5rc2NhcGU6dmVyc2lvbj0iMC45Mi4zICgyNDA1NTQ2LCAyMDE4LTAzLTExKSIgc29kaXBvZGk6ZG9jbmFtZT0iYXBwbGljYXRpb25fZ2F0ZXdheS5zdmciIHg9IjBweCIgeT0iMHB4IiB2aWV3Qm94PSIwIDAgMTAwLjMxIDEwMC4xMSIgeG1sOnNwYWNlPSJwcmVzZXJ2ZSIgd2lkdGg9IjEwMC4zMSIgaGVpZ2h0PSIxMDAuMTEiPjxtZXRhZGF0YSBpZD0ibWV0YWRhdGExNjMzNSI+PHJkZjpSREY+PGNjOldvcmsgcmRmOmFib3V0PSIiPjxkYzpmb3JtYXQ+aW1hZ2Uvc3ZnK3htbDwvZGM6Zm9ybWF0PjxkYzp0eXBlIHJkZjpyZXNvdXJjZT0iaHR0cDovL3B1cmwub3JnL2RjL2RjbWl0eXBlL1N0aWxsSW1hZ2UiLz48ZGM6dGl0bGUvPjwvY2M6V29yaz48L3JkZjpSREY+PC9tZXRhZGF0YT48ZGVmcyBpZD0iZGVmczE2MzMzIi8+JiN4YTs8ZmlsdGVyIGlkPSJmaWx0ZXJfMiI+JiN4YTsJPGZlR2F1c3NpYW5CbHVyIGlkPSJmZUdhdXNzaWFuQmx1cjQ5MTg0IiBzdGREZXZpYXRpb249IjIiLz4mI3hhOzwvZmlsdGVyPiYjeGE7PHNvZGlwb2RpOm5hbWVkdmlldyBib3JkZXJjb2xvcj0iIzY2NjY2NiIgYm9yZGVyb3BhY2l0eT0iMSIgZml0LW1hcmdpbi1ib3R0b209IjAiIGZpdC1tYXJnaW4tbGVmdD0iMCIgZml0LW1hcmdpbi1yaWdodD0iMCIgZml0LW1hcmdpbi10b3A9IjAiIGdyaWR0b2xlcmFuY2U9IjEwIiBndWlkZXRvbGVyYW5jZT0iMTAiIGlkPSJuYW1lZHZpZXc0OTI2MSIgaW5rc2NhcGU6Y3VycmVudC1sYXllcj0ic3ZnNDkyNTkiIGlua3NjYXBlOmN4PSIzNy42OTE3NzEiIGlua3NjYXBlOmN5PSI0OC40MTY5MjYiIGlua3NjYXBlOnBhZ2VvcGFjaXR5PSIwIiBpbmtzY2FwZTpwYWdlc2hhZG93PSIyIiBpbmtzY2FwZTp3aW5kb3ctaGVpZ2h0PSIxMDE3IiBpbmtzY2FwZTp3aW5kb3ctbWF4aW1pemVkPSIxIiBpbmtzY2FwZTp3aW5kb3ctd2lkdGg9IjE5MjAiIGlua3NjYXBlOndpbmRvdy14PSItOCIgaW5rc2NhcGU6d2luZG93LXk9Ii04IiBpbmtzY2FwZTp6b29tPSI1LjIxOTMxOTgiIG9iamVjdHRvbGVyYW5jZT0iMTAiIHBhZ2Vjb2xvcj0iI2ZmZmZmZiIgc2hvd2dyaWQ9ImZhbHNlIj4mI3hhOwk8L3NvZGlwb2RpOm5hbWVkdmlldz4mI3hhOyYjeGE7PHBhdGggaWQ9InBhdGg0OTE5NyIgaW5rc2NhcGU6Y29ubmVjdG9yLWN1cnZhdHVyZT0iMCIgc3R5bGU9ImZpbGw6IzdmYmEwMCIgZD0ibSA1MC4wNSwxMDAuMTEgYyAtMi40LDAgLTQuOCwtMS4wMSAtNi42LC0yLjgxIEwgMi44LDU2LjY2IEMgMSw1NC44NiAwLDUyLjQ2IDAsNTAuMDUgYyAwLC0yLjQgMSwtNC44IDIuOCwtNi42IEwgNDMuNDUsMi44IEMgNDUuMjUsMSA0Ny42NSwwIDUwLjA1LDAgYyAyLjQxLDAgNC44MSwxIDYuNjEsMi44IEwgOTcuNSw0My42NSBjIDEuOCwxLjggMi44MSw0IDIuODEsNi42IDAsMi40MSAtMS4wMSw0LjgxIC0yLjgxLDYuNjEgTCA1Ni42Niw5Ny4zIGMgLTEuOCwxLjggLTQuMiwyLjgxIC02LjYxLDIuODEgeiIvPiYjeGE7JiN4YTs8cGF0aCBpZD0icGF0aDQ5MjA1IiBpbmtzY2FwZTpjb25uZWN0b3ItY3VydmF0dXJlPSIwIiBzdHlsZT0iZmlsbDojZmZmZmZmIiBkPSJtIDU5LjU0LDM3LjIgYyAtMi44LDIuMTQgLTYuMDksMy4xOSAtOS4zNywzLjE5IC00LjY0LDAgLTkuMjQsLTIuMDkgLTEyLjI3LC02LjA2IC01LjE5LC02Ljc3IC0zLjkxLC0xNi40NiAyLjg3LC0yMS42NSAyLjgsLTIuMTUgNi4xLC0zLjE4IDkuMzcsLTMuMTggNC42NSwwIDkuMjQsMi4wOSAxMi4yOCw2LjA2IDUuMTgsNi43OCAzLjg5LDE2LjQ2IC0yLjg4LDIxLjY0IHoiLz4mI3hhOyYjeGE7PHBhdGggaWQ9InBhdGg0OTIxMyIgaW5rc2NhcGU6Y29ubmVjdG9yLWN1cnZhdHVyZT0iMCIgc3R5bGU9ImZpbGw6I2ZmZmZmZjtmaWxsLW9wYWNpdHk6MC4xNSIgZD0iTSA1Ni42NiwyLjggQyA1NC44NiwxIDUyLjQ2LDAgNTAuMDUsMCBjIC0yLjQsMCAtNC44LDEgLTYuNiwyLjggTCAyLjgsNDMuNDUgQyAxLDQ1LjI1IDAsNDcuNjUgMCw1MC4wNSBjIDAsMi40MSAxLDQuODEgMi44LDYuNjEgTCAyNS44Myw3OS42OSA2OS4yNywxNS40MiBaIi8+JiN4YTsmI3hhOzxwYXRoIGlkPSJwYXRoNDkyMjEiIGlua3NjYXBlOmNvbm5lY3Rvci1jdXJ2YXR1cmU9IjAiIHN0eWxlPSJmaWxsOiNmZmZmZmYiIGQ9Ik0gNTAuMDUsOTEuMyA2My4yNyw3OC4wOCBIIDUzLjg2IFYgMzguMzQgaCAtNy44MSB2IDM5Ljc0IGggLTkuMjEgeiIvPiYjeGE7JiN4YTs8cGF0aCBpZD0icGF0aDQ5MjI5IiBpbmtzY2FwZTpjb25uZWN0b3ItY3VydmF0dXJlPSIwIiBzdHlsZT0iZmlsbDojZmZmZmZmIiBkPSJNIDc4Ljc0LDY3LjA0IFYgNDguMzUgbCAtNi41MSw2LjUxIC0xNi45MSwtMTYuOTEgLTUuNjYsNS42NyAxNi45MSwxNi45IC02LjUyLDYuNTIgeiIvPiYjeGE7JiN4YTs8cGF0aCBpZD0icGF0aDQ5MjM3IiBpbmtzY2FwZTpjb25uZWN0b3ItY3VydmF0dXJlPSIwIiBzdHlsZT0iZmlsbDojZmZmZmZmIiBkPSJNIDIxLjM5LDY3LjExIEggNDAuMDggTCAzMy41Niw2MC41OSA1MC45NSw0My4yMSA0NS4yOCwzNy41NSAyNy45LDU0LjkzIDIxLjM5LDQ4LjQyIFoiLz4mI3hhOyYjeGE7PHBhdGggaWQ9InBhdGg0OTI0NSIgaW5rc2NhcGU6Y29ubmVjdG9yLWN1cnZhdHVyZT0iMCIgc3R5bGU9ImZpbGw6IzU5YjRkOSIgZD0ibSA1OC4yOSwzNS41OCBjIC0yLjQyLDEuODUgLTUuMjgsMi43NiAtOC4xMiwyLjc2IC00LjAzLDAgLTguMDEsLTEuODEgLTEwLjY0LC01LjI2IC00LjUsLTUuODcgLTMuMzksLTE0LjI3IDIuNDksLTE4Ljc3IDIuNDMsLTEuODYgNS4yOSwtMi43NSA4LjEyLC0yLjc1IDQuMDMsMCA4LjAyLDEuOCAxMC42NSw1LjI1IDQuNSw1Ljg3IDMuMzgsMTQuMjcgLTIuNSwxOC43NyB6Ii8+JiN4YTsmI3hhOzxwYXRoIGlkPSJwYXRoNDkyNTMiIGlua3NjYXBlOmNvbm5lY3Rvci1jdXJ2YXR1cmU9IjAiIHN0eWxlPSJmaWxsOiNmZmZmZmYiIGQ9Im0gNTUuODMsMjcuMyBjIDAuOTgsMS4yNyAyLjc4LDEuNDkgNC4wNCwwLjU0IDAuMDcsLTAuMDUgMC4xMiwtMC4xMiAwLjE4LC0wLjE3IDEuMjksMC45MSAyLjE4LDEuNTEgMi42OSwxLjg1IDAuMTUsLTAuMzkgMC4yNSwtMC43NiAwLjM2LC0xLjE1IC0wLjUzLC0wLjM5IC0xLjI2LC0wLjk1IC0yLjMsLTEuNzkgMC4zNCwtMC45IDAuMjMsLTEuOTUgLTAuMzksLTIuNzggLTAuOSwtMS4xNSAtMi40OCwtMS40NSAtMy43MiwtMC43MyAtMS4zNiwtMS4yMyAtMi44NiwtMi42MyAtNC40NCwtNC4yIDQuOTEsLTIuNjQgOC40LC0yLjI1IDguNCwtMi4yNSAtMC41OSwtMC43NSAtMS4yNCwtMS40IC0xLjkzLC0xLjk4IC0yLjA3LC0wLjMyIC01LjI5LC0wLjI5IC04Ljk3LDEuNjcgViAxNi4zIGMgLTEuMjIsLTEuMjggLTIuNDcsLTIuNjUgLTMuNzQsLTQuMTMgLTAuNiwwLjIgLTEuMiwwLjQ0IC0xLjc3LDAuNzMgMC45MywxLjUzIDIuMiwzLjA3IDMuNjIsNC41OCAwLDAuMDEgMCwwLjAxIDAuMDEsMC4wMSAtMS4xOSwwLjgzIC0yLjUxLDEuOTQgLTMuNzIsMy4yMyAtMC4xNiwwLjE2IC0wLjMxLDAuMzMgLTAuNDUsMC40OSAtMC43MywtMC4xNSAtMS41LC0wLjEgLTIuMjEsMC4xNSAtMS4yMSwtMi42MSAtMS4xMiwtNC43MSAtMC45MiwtNS44IC0wLjUzLDAuNTUgLTEuMDIsMS4xMyAtMS40NSwxLjc1IC0wLjMxLDEuMyAtMC40LDMuMTYgMC41Myw1LjQxIC0xLjA4LDEuNDIgLTEuMTMsMy40MiAwLDQuOSAwLjEsMC4xMiAwLjIsMC4yNCAwLjMsMC4zNSAtMC40OSwxLjY4IC0wLjcxLDMuMyAtMC43OCw0LjY5IDAuMTIsMC4xNyAwLjEyLDAuMzEgMC4yNSwwLjQ4IDAuNjQsMC44MyAxLjQ1LDEuNTIgMi4yMywyLjE1IC0wLjEsLTEuNDcgMC4wMSwtMy42NSAwLjkyLC02LjA5IDAuNjMsMC4wNCAxLjI3LC0wLjA2IDEuODYsLTAuMzEgMC4zNSwwLjMxIDAuNywwLjYxIDEuMDksMC45MiAxLjMxLDEuMDQgMi42MiwxLjg1IDMuOSwyLjQ5IC0wLjA2LDAuNjUgMC4xLDEuMzIgMC41MiwxLjg4IDAuOSwxLjE3IDIuNTcsMS4zOSAzLjc0LDAuNDkgMC4yNCwtMC4xOCAwLjQzLC0wLjQxIDAuNTksLTAuNjUgMi4wOSwwLjQ3IDMuOTEsMC41NSA1LjI2LDAuNTUgMC4yLDAgMS4xNiwtMS4zMSAxLjcxLC0yLjExIC0wLjgyLDAuMTcgLTMuMjYsMC41IC02LjU5LC0wLjQ1IC0wLjA4LC0wLjM4IC0wLjIzLC0wLjc0IC0wLjQ4LC0xLjA3IC0wLjg0LC0xLjEgLTIuMzksLTEuMzUgLTMuNTQsLTAuNiAtMS4xNiwtMC42MyAtMi4zNywtMS40MiAtMy42MiwtMi40MSAtMC4yNiwtMC4yIC0wLjUsLTAuNCAtMC43MywtMC42IDAuNzYsLTEuMiAwLjg0LC0yLjc0IDAuMTcsLTQuMDQgMC4xNSwtMC4xNSAwLjMsLTAuMzEgMC40NiwtMC40NiAxLjI0LC0xLjE2IDIuNDEsLTIuMDggMy41LC0yLjgyIC0wLjA1LC0wLjA0IC0wLjA5LC0wLjA5IC0wLjEzLC0wLjEzIDAuMDQsMC4wNCAwLjA4LDAuMDggMC4xMywwLjEyIHYgMCBjIDEuNjcsMS41NSAzLjQ0LDMuMDIgNS4xMiw0LjMzIC0wLjQ0LDAuOTQgLTAuMzcsMi4wOCAwLjMsMi45NyB6Ii8+JiN4YTs8L3N2Zz4=;" vertex="1" parent="1">
          <mxGeometry x="414" y="300" width="70" height="70" as="geometry" />
        </mxCell>
        <mxCell id="t415n4CLTocWxzWvGbID-21" value="Container Groups" style="shape=image;verticalLabelPosition=bottom;labelBackgroundColor=#ffffff;verticalAlign=top;aspect=fixed;imageAspect=0;image=data:image/svg+xml,PHN2ZyB4bWxuczpkYz0iaHR0cDovL3B1cmwub3JnL2RjL2VsZW1lbnRzLzEuMS8iIHhtbG5zOmNjPSJodHRwOi8vY3JlYXRpdmVjb21tb25zLm9yZy9ucyMiIHhtbG5zOnJkZj0iaHR0cDovL3d3dy53My5vcmcvMTk5OS8wMi8yMi1yZGYtc3ludGF4LW5zIyIgeG1sbnM6c3ZnPSJodHRwOi8vd3d3LnczLm9yZy8yMDAwL3N2ZyIgeG1sbnM9Imh0dHA6Ly93d3cudzMub3JnLzIwMDAvc3ZnIiB4bWxuczpzb2RpcG9kaT0iaHR0cDovL3NvZGlwb2RpLnNvdXJjZWZvcmdlLm5ldC9EVEQvc29kaXBvZGktMC5kdGQiIHhtbG5zOmlua3NjYXBlPSJodHRwOi8vd3d3Lmlua3NjYXBlLm9yZy9uYW1lc3BhY2VzL2lua3NjYXBlIiB2ZXJzaW9uPSIxLjEiIGlkPSJzdmc1NjAxOCIgaW5rc2NhcGU6dmVyc2lvbj0iMC45Mi4zICgyNDA1NTQ2LCAyMDE4LTAzLTExKSIgc29kaXBvZGk6ZG9jbmFtZT0iYXp1cmVfY29udGFpbmVyLnN2ZyIgeD0iMHB4IiB5PSIwcHgiIHZpZXdCb3g9IjAgMCA2NS41MiA0OC40OSIgeG1sOnNwYWNlPSJwcmVzZXJ2ZSIgd2lkdGg9IjY1LjUxOTk5NyIgaGVpZ2h0PSI0OC40OTAwMDIiPjxtZXRhZGF0YSBpZD0ibWV0YWRhdGE1NTM4Ij48cmRmOlJERj48Y2M6V29yayByZGY6YWJvdXQ9IiI+PGRjOmZvcm1hdD5pbWFnZS9zdmcreG1sPC9kYzpmb3JtYXQ+PGRjOnR5cGUgcmRmOnJlc291cmNlPSJodHRwOi8vcHVybC5vcmcvZGMvZGNtaXR5cGUvU3RpbGxJbWFnZSIvPjxkYzp0aXRsZS8+PC9jYzpXb3JrPjwvcmRmOlJERj48L21ldGFkYXRhPjxkZWZzIGlkPSJkZWZzNTUzNiIvPiYjeGE7PGZpbHRlciBpZD0iZmlsdGVyXzIiPiYjeGE7CTxmZUdhdXNzaWFuQmx1ciBpZD0iZmVHYXVzc2lhbkJsdXI1NTgzOSIgc3RkRGV2aWF0aW9uPSIyIi8+JiN4YTs8L2ZpbHRlcj4mI3hhOzxzb2RpcG9kaTpuYW1lZHZpZXcgYm9yZGVyY29sb3I9IiM2NjY2NjYiIGJvcmRlcm9wYWNpdHk9IjEiIGZpdC1tYXJnaW4tYm90dG9tPSIwIiBmaXQtbWFyZ2luLWxlZnQ9IjAiIGZpdC1tYXJnaW4tcmlnaHQ9IjAiIGZpdC1tYXJnaW4tdG9wPSIwIiBncmlkdG9sZXJhbmNlPSIxMCIgZ3VpZGV0b2xlcmFuY2U9IjEwIiBpZD0ibmFtZWR2aWV3NTYwMjAiIGlua3NjYXBlOmN1cnJlbnQtbGF5ZXI9InN2ZzU2MDE4IiBpbmtzY2FwZTpjeD0iLTMuNDYzNzEzOSIgaW5rc2NhcGU6Y3k9IjIwLjQ1NjkyNyIgaW5rc2NhcGU6cGFnZW9wYWNpdHk9IjAiIGlua3NjYXBlOnBhZ2VzaGFkb3c9IjIiIGlua3NjYXBlOndpbmRvdy1oZWlnaHQ9IjEwMTciIGlua3NjYXBlOndpbmRvdy1tYXhpbWl6ZWQ9IjEiIGlua3NjYXBlOndpbmRvdy13aWR0aD0iMTkyMCIgaW5rc2NhcGU6d2luZG93LXg9Ii04IiBpbmtzY2FwZTp3aW5kb3cteT0iLTgiIGlua3NjYXBlOnpvb209IjguOTExNjU1NyIgb2JqZWN0dG9sZXJhbmNlPSIxMCIgcGFnZWNvbG9yPSIjZmZmZmZmIiBzaG93Z3JpZD0iZmFsc2UiPiYjeGE7CTwvc29kaXBvZGk6bmFtZWR2aWV3PiYjeGE7JiN4YTs8cGF0aCBpZD0icGF0aDU1ODUyIiBpbmtzY2FwZTpjb25uZWN0b3ItY3VydmF0dXJlPSIwIiBzdHlsZT0iZmlsbDojODA0OTk4IiBkPSJNIDMwLjAxLDEyLjMyIDE5LjkyLDE2LjI1IFYgMCBsIDEwLjA5LDMuNTQgeiIvPiYjeGE7JiN4YTs8cGF0aCBpZD0icGF0aDU1ODYwIiBpbmtzY2FwZTpjb25uZWN0b3ItY3VydmF0dXJlPSIwIiBzdHlsZT0iZmlsbDojODA0OTk4IiBkPSJtIDEwLjg4LDIuNzUgdiAxMC42MSBsIDcuNDcsMi44OSBWIDAuMTMgWiBtIDAuNzksOS44MyAtMC40LC0wLjEzIFYgMy42NyBsIDAuNCwtMC4xMyAwLjM5LC0wLjE0IDAuMzksLTAuMTMgdiA5LjU3IGwgLTAuMzksLTAuMTMgeiBtIDEuOTYsMC41MiAtMC41MiwtMC4xMyBWIDMuMTQgbCAwLjUyLC0wLjEzIDAuNTMsLTAuMTMgMC41MiwtMC4xMyB2IDEwLjc0IGwgLTAuNTIsLTAuMTMgeiBtIDIuMzYsMC43OSAtMC42NSwtMC4yNiBWIDIuNDkgbCAwLjY1LC0wLjEzIDAuNjYsLTAuMjcgMC43OCwtMC4yNiB2IDEyLjQ1IGwgLTAuNzgsLTAuMjYgeiIvPiYjeGE7JiN4YTs8cGF0aCBpZD0icGF0aDU1ODY4IiBpbmtzY2FwZTpjb25uZWN0b3ItY3VydmF0dXJlPSIwIiBzdHlsZT0iZmlsbDojODA0OTk4IiBkPSJNIDUzLjQ3LDEyLjMyIDQzLjM4LDE2LjI1IFYgMCBsIDEwLjA5LDMuNTQgeiIvPiYjeGE7JiN4YTs8cGF0aCBpZD0icGF0aDU1ODc2IiBpbmtzY2FwZTpjb25uZWN0b3ItY3VydmF0dXJlPSIwIiBzdHlsZT0iZmlsbDojODA0OTk4IiBkPSJtIDM0LjMzLDIuNzUgdiAxMC42MSBsIDcuNDcsMi44OSBWIDAuMTMgWiBtIDAuNzksOS44MyAtMC40LC0wLjEzIFYgMy42NyBMIDM1LjEyLDMuNTQgMzUuNTEsMy40IDM1LjksMy4yNyB2IDkuNTcgbCAtMC4zOSwtMC4xMyB6IG0gMS45NiwwLjUyIC0wLjUyLC0wLjEzIFYgMy4xNCBsIDAuNTIsLTAuMTMgMC41MywtMC4xMyAwLjUyLC0wLjEzIHYgMTAuNzQgbCAtMC41MiwtMC4xMyB6IG0gMi4zNiwwLjc5IC0wLjY1LC0wLjI2IFYgMi40OSBMIDM5LjQ0LDIuMzYgNDAuMSwyLjA5IDQwLjg4LDEuODMgViAxNC4yOCBMIDQwLjEsMTQuMDIgWiIvPiYjeGE7JiN4YTs8cGF0aCBpZD0icGF0aDU1ODg0IiBpbmtzY2FwZTpjb25uZWN0b3ItY3VydmF0dXJlPSIwIiBzdHlsZT0iZmlsbDojODA0OTk4IiBkPSJNIDMwLjAxLDQ0LjU2IDE5LjkyLDQ4LjQ5IFYgMzIuMjQgbCAxMC4wOSwzLjU0IHoiLz4mI3hhOyYjeGE7PHBhdGggaWQ9InBhdGg1NTg5MiIgaW5rc2NhcGU6Y29ubmVjdG9yLWN1cnZhdHVyZT0iMCIgc3R5bGU9ImZpbGw6IzgwNDk5OCIgZD0iTSAxMC44OCwzNC45OSBWIDQ1LjYgbCA3LjQ3LDIuODkgViAzMi4zNyBaIG0gMC43OSw5LjgzIC0wLjQsLTAuMTMgdiAtOC43OCBsIDAuNCwtMC4xMyAwLjM5LC0wLjE0IDAuMzksLTAuMTMgdiA5LjU3IGwgLTAuMzksLTAuMTMgeiBtIDEuOTYsMC41MiAtMC41MiwtMC4xMyB2IC05LjgzIGwgMC41MiwtMC4xMyAwLjUzLC0wLjEzIDAuNTIsLTAuMTMgViA0NS43MyBMIDE0LjE2LDQ1LjYgWiBtIDIuMzYsMC43OSAtMC42NSwtMC4yNiBWIDM0LjczIGwgMC42NSwtMC4xMyAwLjY2LC0wLjI3IDAuNzgsLTAuMjYgdiAxMi40NSBsIC0wLjc4LC0wLjI2IHoiLz4mI3hhOyYjeGE7PHBhdGggaWQ9InBhdGg1NTkwMCIgaW5rc2NhcGU6Y29ubmVjdG9yLWN1cnZhdHVyZT0iMCIgc3R5bGU9ImZpbGw6IzgwNDk5OCIgZD0iTSA1My40Nyw0NC41NiA0My4zOCw0OC40OSBWIDMyLjI0IGwgMTAuMDksMy41NCB6Ii8+JiN4YTsmI3hhOzxwYXRoIGlkPSJwYXRoNTU5MDgiIGlua3NjYXBlOmNvbm5lY3Rvci1jdXJ2YXR1cmU9IjAiIHN0eWxlPSJmaWxsOiM4MDQ5OTgiIGQ9Ik0gMzQuMzMsMzQuOTkgViA0NS42IGwgNy40NywyLjg5IFYgMzIuMzcgWiBtIDAuNzksOS44MyAtMC40LC0wLjEzIHYgLTguNzggbCAwLjQsLTAuMTMgMC4zOSwtMC4xNCAwLjM5LC0wLjEzIHYgOS41NyBsIC0wLjM5LC0wLjEzIHogbSAxLjk2LDAuNTIgLTAuNTIsLTAuMTMgdiAtOS44MyBsIDAuNTIsLTAuMTMgMC41MywtMC4xMyAwLjUyLC0wLjEzIFYgNDUuNzMgTCAzNy42MSw0NS42IFogbSAyLjM2LDAuNzkgLTAuNjUsLTAuMjYgViAzNC43MyBsIDAuNjUsLTAuMTMgMC42NiwtMC4yNyAwLjc4LC0wLjI2IFYgNDYuNTIgTCA0MC4xLDQ2LjI2IFoiLz4mI3hhOyYjeGE7PHBhdGggaWQ9InBhdGg1NTkxNiIgaW5rc2NhcGU6Y29ubmVjdG9yLWN1cnZhdHVyZT0iMCIgc3R5bGU9ImZpbGw6IzgwNDk5OCIgZD0ibSA0Mi40NiwyOC40NCAtOS45NiwzLjggViAxNi4xMiBsIDkuOTYsMy41NCB6Ii8+JiN4YTsmI3hhOzxwYXRoIGlkPSJwYXRoNTU5MjQiIGlua3NjYXBlOmNvbm5lY3Rvci1jdXJ2YXR1cmU9IjAiIHN0eWxlPSJmaWxsOiM4MDQ5OTgiIGQ9Im0gMjMuMzMsMTguNzQgdiAxMC42MSBsIDcuNDcsMi44OSBWIDE2LjEyIFogbSAwLjc5LDkuODMgLTAuNCwtMC4xMyB2IC04Ljc4IGwgMC40LC0wLjEzIDAuMzksLTAuMTQgMC4zOSwtMC4xMyB2IDkuNTcgTCAyNC41MSwyOC43IFogbSAxLjk2LDAuNjUgLTAuNTIsLTAuMTMgdiAtOS44MyBsIDAuNTIsLTAuMTMgMC41MywtMC4xMyAwLjUyLC0wLjEzIHYgMTAuNzUgbCAtMC41MiwtMC4xNCB6IG0gMi4zNiwwLjc5IC0wLjY1LC0wLjI2IFYgMTguNjEgbCAwLjY1LC0wLjEzIDAuNjYsLTAuMjcgMC43OCwtMC4yNiBWIDMwLjQgTCAyOS4xLDMwLjE0IFoiLz4mI3hhOyYjeGE7PHBhdGggaWQ9InBhdGg1NTkzMiIgaW5rc2NhcGU6Y29ubmVjdG9yLWN1cnZhdHVyZT0iMCIgc3R5bGU9ImZpbGw6IzgwNDk5OCIgZD0ibSAxOS4xMywyOC40NCAtOS45NiwzLjggViAxNi4xMiBsIDkuOTYsMy41NCB6Ii8+JiN4YTsmI3hhOzxwYXRoIGlkPSJwYXRoNTU5NDAiIGlua3NjYXBlOmNvbm5lY3Rvci1jdXJ2YXR1cmU9IjAiIHN0eWxlPSJmaWxsOiM4MDQ5OTgiIGQ9Im0gMCwxOC43NCB2IDEwLjYxIGwgNy40NywyLjg5IFYgMTYuMTIgWiBtIDAuNzksOS44MyAtMC40LC0wLjEzIHYgLTguNzggbCAwLjQsLTAuMTMgMC4zOSwtMC4xNCAwLjM5LC0wLjEzIHYgOS41NyBMIDEuMTgsMjguNyBaIE0gMi43NSwyOS4yMiAyLjIzLDI5LjA5IFYgMTkuMjYgTCAyLjc1LDE5LjEzIDMuMjgsMTkgMy44LDE4Ljg3IFYgMjkuNjIgTCAzLjI4LDI5LjQ4IFogTSA1LjExLDMwLjAxIDQuNDYsMjkuNzUgViAxOC42MSBMIDUuMTEsMTguNDggNS43NywxOC4yMSA2LjU1LDE3Ljk1IFYgMzAuNCBMIDUuNzcsMzAuMTQgWiIvPiYjeGE7JiN4YTs8cGF0aCBpZD0icGF0aDU1OTQ4IiBpbmtzY2FwZTpjb25uZWN0b3ItY3VydmF0dXJlPSIwIiBzdHlsZT0iZmlsbDojODA0OTk4IiBkPSJtIDY1LjUyLDI4LjQ0IC05Ljk2LDMuOCBWIDE2LjEyIGwgOS45NiwzLjU0IHoiLz4mI3hhOyYjeGE7JiN4YTsmI3hhOyYjeGE7JiN4YTsmI3hhOyYjeGE7JiN4YTsmI3hhOyYjeGE7JiN4YTsmI3hhOyYjeGE7JiN4YTsmI3hhOzxwYXRoIGlkPSJwYXRoNTYwMTIiIGlua3NjYXBlOmNvbm5lY3Rvci1jdXJ2YXR1cmU9IjAiIHN0eWxlPSJmaWxsOiM4MDQ5OTgiIGQ9Im0gNDYuMzksMTguNzQgdiAxMC42MSBsIDcuNDcsMi44OSBWIDE2LjEyIFogbSAwLjc5LDkuODMgLTAuNCwtMC4xMyB2IC04Ljc4IGwgMC40LC0wLjEzIDAuMzksLTAuMTQgMC4zOSwtMC4xMyB2IDkuNTcgTCA0Ny41NywyOC43IFogbSAxLjk2LDAuNjUgLTAuNTIsLTAuMTMgdiAtOS44MyBsIDAuNTIsLTAuMTMgMC41MywtMC4xMyAwLjUyLC0wLjEzIHYgMTAuNzUgbCAtMC41MiwtMC4xNCB6IG0gMi4zNiwwLjc5IC0wLjY1LC0wLjI2IFYgMTguNjEgbCAwLjY1LC0wLjEzIDAuNjYsLTAuMjcgMC43OCwtMC4yNiBWIDMwLjQgbCAtMC43OCwtMC4yNiB6Ii8+JiN4YTs8L3N2Zz4=;" vertex="1" parent="1">
          <mxGeometry x="169.99999999999994" y="520" width="66" height="48" as="geometry" />
        </mxCell>
        <mxCell id="t415n4CLTocWxzWvGbID-22" value="" style="shape=image;verticalLabelPosition=bottom;labelBackgroundColor=#ffffff;verticalAlign=top;aspect=fixed;imageAspect=0;image=data:image/svg+xml,PHN2ZyB4bWxuczpkYz0iaHR0cDovL3B1cmwub3JnL2RjL2VsZW1lbnRzLzEuMS8iIHhtbG5zOmNjPSJodHRwOi8vY3JlYXRpdmVjb21tb25zLm9yZy9ucyMiIHhtbG5zOnJkZj0iaHR0cDovL3d3dy53My5vcmcvMTk5OS8wMi8yMi1yZGYtc3ludGF4LW5zIyIgeG1sbnM6c3ZnPSJodHRwOi8vd3d3LnczLm9yZy8yMDAwL3N2ZyIgeG1sbnM9Imh0dHA6Ly93d3cudzMub3JnLzIwMDAvc3ZnIiB4bWxuczpzb2RpcG9kaT0iaHR0cDovL3NvZGlwb2RpLnNvdXJjZWZvcmdlLm5ldC9EVEQvc29kaXBvZGktMC5kdGQiIHhtbG5zOmlua3NjYXBlPSJodHRwOi8vd3d3Lmlua3NjYXBlLm9yZy9uYW1lc3BhY2VzL2lua3NjYXBlIiB2ZXJzaW9uPSIxLjEiIGlkPSJzdmc1MTc5OSIgaW5rc2NhcGU6dmVyc2lvbj0iMC45Mi4zICgyNDA1NTQ2LCAyMDE4LTAzLTExKSIgc29kaXBvZGk6ZG9jbmFtZT0iYXp1cmVfYXBwX3NlcnZpY2Vfd29ya2VyX3Bvb2xzLnN2ZyIgeD0iMHB4IiB5PSIwcHgiIHZpZXdCb3g9IjAgMCAzNy41NyAzNy41IiB4bWw6c3BhY2U9InByZXNlcnZlIiB3aWR0aD0iMzcuNTciIGhlaWdodD0iMzcuNSI+PG1ldGFkYXRhIGlkPSJtZXRhZGF0YTU3NyI+PHJkZjpSREY+PGNjOldvcmsgcmRmOmFib3V0PSIiPjxkYzpmb3JtYXQ+aW1hZ2Uvc3ZnK3htbDwvZGM6Zm9ybWF0PjxkYzp0eXBlIHJkZjpyZXNvdXJjZT0iaHR0cDovL3B1cmwub3JnL2RjL2RjbWl0eXBlL1N0aWxsSW1hZ2UiLz48ZGM6dGl0bGUvPjwvY2M6V29yaz48L3JkZjpSREY+PC9tZXRhZGF0YT48ZGVmcyBpZD0iZGVmczU3NSI+JiN4YTsJJiN4YTsmI3hhOwkmI3hhOyYjeGE7CSYjeGE7JiN4YTsJJiN4YTsmI3hhOwkmI3hhOyYjeGE7CSYjeGE7JiN4YTsJJiN4YTsmI3hhOwkmI3hhOyYjeGE7CSYjeGE7JiN4YTsJJiN4YTsmI3hhOwkmI3hhOyYjeGE7CSYjeGE7JiN4YTsJJiN4YTsmI3hhOwkmI3hhOzwvZGVmcz4mI3hhOzxmaWx0ZXIgaWQ9ImZpbHRlcl8yIj4mI3hhOwk8ZmVHYXVzc2lhbkJsdXIgaWQ9ImZlR2F1c3NpYW5CbHVyNTE2NzYiIHN0ZERldmlhdGlvbj0iMiIvPiYjeGE7PC9maWx0ZXI+JiN4YTs8c29kaXBvZGk6bmFtZWR2aWV3IGJvcmRlcmNvbG9yPSIjNjY2NjY2IiBib3JkZXJvcGFjaXR5PSIxIiBmaXQtbWFyZ2luLWJvdHRvbT0iMCIgZml0LW1hcmdpbi1sZWZ0PSIwIiBmaXQtbWFyZ2luLXJpZ2h0PSIwIiBmaXQtbWFyZ2luLXRvcD0iMCIgZ3JpZHRvbGVyYW5jZT0iMTAiIGd1aWRldG9sZXJhbmNlPSIxMCIgaWQ9Im5hbWVkdmlldzUxODAxIiBpbmtzY2FwZTpjdXJyZW50LWxheWVyPSJzdmc1MTc5OSIgaW5rc2NhcGU6Y3g9IjIyLjk4MzU3MyIgaW5rc2NhcGU6Y3k9IjE0LjI2MjU4NiIgaW5rc2NhcGU6cGFnZW9wYWNpdHk9IjAiIGlua3NjYXBlOnBhZ2VzaGFkb3c9IjIiIGlua3NjYXBlOndpbmRvdy1oZWlnaHQ9IjEwMTciIGlua3NjYXBlOndpbmRvdy1tYXhpbWl6ZWQ9IjEiIGlua3NjYXBlOndpbmRvdy13aWR0aD0iMTkyMCIgaW5rc2NhcGU6d2luZG93LXg9Ii04IiBpbmtzY2FwZTp3aW5kb3cteT0iLTgiIGlua3NjYXBlOnpvb209IjEwLjU3MDAyMiIgb2JqZWN0dG9sZXJhbmNlPSIxMCIgcGFnZWNvbG9yPSIjZmZmZmZmIiBzaG93Z3JpZD0iZmFsc2UiPiYjeGE7CTwvc29kaXBvZGk6bmFtZWR2aWV3PiYjeGE7JiN4YTs8cGF0aCBpZD0icGF0aDUxNjg5IiBpbmtzY2FwZTpjb25uZWN0b3ItY3VydmF0dXJlPSIwIiBzdHlsZT0iZmlsbDojNTliNGQ5IiBkPSJtIDE4Ljc1LDM3LjUgYyAtMC45LDAgLTEuOCwtMC4zOCAtMi40OCwtMS4wNSBMIDEuMDUsMjEuMjIgQyAwLjM3LDIwLjU1IDAsMTkuNjUgMCwxOC43NSAwLDE3Ljg1IDAuMzcsMTYuOTUgMS4wNSwxNi4yNyBMIDE2LjI3LDEuMDUgQyAxNi45NSwwLjM3IDE3Ljg1LDAgMTguNzUsMCBjIDAuOSwwIDEuOCwwLjM3IDIuNDcsMS4wNSBsIDE1LjMxLDE1LjMgYyAwLjY3LDAuNjcgMS4wNCwxLjUgMS4wNCwyLjQ3IDAsMC45OCAtMC4zNywxLjggLTEuMDQsMi40OCBMIDIxLjIyLDM2LjQ1IGMgLTAuNjcsMC42NyAtMS41NywxLjA1IC0yLjQ3LDEuMDUgeiIvPiYjeGE7JiN4YTs8cGF0aCBpZD0icGF0aDUxNjk3IiBpbmtzY2FwZTpjb25uZWN0b3ItY3VydmF0dXJlPSIwIiBzdHlsZT0iZmlsbDojZmZmZmZmO2ZpbGwtb3BhY2l0eTowLjA5ODAwMDAyIiBkPSJNIDIxLjIzLDEuMDUgQyAyMC41NSwwLjM3IDE5LjY1LDAgMTguNzUsMCAxNy44NSwwIDE2Ljk1LDAuMzcgMTYuMjgsMS4wNSBMIDEuMDUsMTYuMjcgQyAwLjM3LDE2Ljk1IDAsMTcuODUgMCwxOC43NSBjIDAsMC45IDAuMzcsMS44IDEuMDUsMi40NyBMIDkuNjcsMjkuODUgMjUuOTUsNS43NyBaIi8+JiN4YTsmI3hhOzxwYXRoIGlkPSJwYXRoNTE3MDUiIGlua3NjYXBlOmNvbm5lY3Rvci1jdXJ2YXR1cmU9IjAiIHN0eWxlPSJmaWxsOiMzZTNlM2UiIGQ9Ik0gMjIuOTUsOS40NSBWIDguNTUgTCAyMi44LDguNDcgMjEuODMsOC4xNyAyMS41Myw3LjUgMjIuMDUsNi4zNyAyMS4zOCw1LjcgMjEuMjMsNS43NyAyMC4zMyw2LjIyIDE5LjY1LDUuOTIgMTkuMiw0LjggSCAxOC4yMyBWIDQuOTUgTCAxNy44NSw2IDE3LjE4LDYuMjIgMTYuMTMsNS43IDE1LjQ1LDYuMzcgdiAwLjE1IGwgMC41MywwLjk4IC0wLjMsMC42NyAtMS4xMywwLjM4IHYgMC45NyBsIDAuMTUsMC4wOCAwLjk4LDAuMyAwLjMsMC42NyAtMC41MywxLjEzIDAuNjgsMC42NyAwLjE1LC0wLjA3IDAuOSwtMC41MyAwLjY3LDAuMyAwLjQ1LDEuMTMgaCAwLjk4IHYgLTAuMDggbCAwLjM3LC0xLjA1IDAuNjgsLTAuMyAxLjA1LDAuNTMgMC42NywtMC42OCB2IC0wLjA3IGwgLTAuNTIsLTAuOTggMC4zLC0wLjY3IHoiLz4mI3hhOyYjeGE7PHBhdGggaWQ9InBhdGg1MTcxMyIgaW5rc2NhcGU6Y29ubmVjdG9yLWN1cnZhdHVyZT0iMCIgc3R5bGU9ImZpbGw6I2YxZjFmMTtmaWxsLW9wYWNpdHk6MC4yIiBkPSJNIDIxLjIyLDUuNzcgMjAuMjUsNi4yMiAxOS41Nyw1LjkyIDE5LjEyLDQuNzkgaCAtMC45NyBsIC0wLjA4LDAuMTUgLTAuMjIsMS4wNSAtMC42OCwwLjMgLTEuMTIsLTAuNTIgLTAuNjgsMC42NyAwLjA4LDAuMTUgMC41MiwwLjk4IC0wLjMsMC42NyAtMS4xMiwwLjQ1IHYgMC45OCBsIDAuMTUsMC4wNyAxLjA1LDAuMyAwLjMsMC42OCAtMC41MywxLjEyIDAuNjgsMC42OCAwLjE1LC0wLjA4IDAuMzcsLTAuMjIgMC41MywtMC45OCB2IDAgbCAzLjIyLC00LjQyIHYgMCB6Ii8+JiN4YTsmI3hhOzxjaXJjbGUgaWQ9ImVsbGlwc2U1MTcyMSIgc3R5bGU9ImZpbGw6IzU5YjRkOSIgY3g9IjE4Ljc1IiBjeT0iOSIgcj0iMS41Ii8+JiN4YTsmI3hhOzxwYXRoIGlkPSJwYXRoNTE3MjkiIGlua3NjYXBlOmNvbm5lY3Rvci1jdXJ2YXR1cmU9IjAiIHN0eWxlPSJmaWxsOiMzZTNlM2UiIGQ9Ik0gMjIuOTUsMjkuNTUgViAyOC41NyBIIDIyLjggbCAtMC45NywtMC4zNyAtMC4zLC0wLjY4IDAuNTIsLTEuMDUgLTAuNjcsLTAuNjcgaCAtMC4xNSBsIC0wLjksMC41MiAtMC42OCwtMC4zIC0wLjQ1LC0xLjEyIGggLTAuOTcgdiAwLjE1IGwgLTAuMzgsMC45NyAtMC42NywwLjMgLTEuMDUsLTAuNTIgLTAuNjgsMC42NyB2IDAuMTUgbCAwLjUzLDAuOTggLTAuMywwLjYgLTEuMTMsMC40NSB2IDAuOTcgaCAwLjE1IGwgMC45OCwwLjM4IDAuMywwLjY3IC0wLjUzLDEuMDUgMC42OCwwLjc1IDAuMTUsLTAuMDcgMC45LC0wLjUzIDAuNjcsMC4zIDAuNDUsMS4xMyBoIDAuOTggdiAtMC4xNSBsIDAuMzcsLTAuOTggMC42OCwtMC4zIDEuMDUsMC41MyAwLjY3LC0wLjY4IHYgLTAuMTUgbCAtMC41MiwtMC45IDAuMywtMC42NyB6Ii8+JiN4YTsmI3hhOzxwYXRoIGlkPSJwYXRoNTE3MzciIGlua3NjYXBlOmNvbm5lY3Rvci1jdXJ2YXR1cmU9IjAiIHN0eWxlPSJmaWxsOiNmMWYxZjE7ZmlsbC1vcGFjaXR5OjAuMiIgZD0ibSAyMS4yMywyNS44NyAtMC45OCwwLjQ1IC0wLjY3LC0wLjMgLTAuNDUsLTEuMTMgaCAtMC45OCBsIC0wLjA3LDAuMTUgLTAuMywxLjA1IC0wLjY4LDAuMyAtMS4xMiwtMC41MiAtMC42OCwwLjY3IDAuMDgsMC4xNSAwLjUyLDAuOTggLTAuMywwLjY3IC0xLjEyLDAuNDUgdiAwLjk4IGwgMC4xNSwwLjA3IDEuMDUsMC4zIDAuMywwLjY4IC0wLjUzLDEuMTIgMC42OCwwLjY4IDAuMTUsLTAuMDggMC4zNywtMC4yMiAwLjYsLTAuODMgdiAwIGwgMy4yMywtNC40MiB2IDAgeiIvPiYjeGE7JiN4YTs8Y2lyY2xlIGlkPSJlbGxpcHNlNTE3NDUiIHN0eWxlPSJmaWxsOiM1OWI0ZDkiIGN4PSIxOC43NSIgY3k9IjI5LjEiIHI9IjEuNSIvPiYjeGE7JiN4YTs8cGF0aCBpZD0icGF0aDUxNzUzIiBpbmtzY2FwZTpjb25uZWN0b3ItY3VydmF0dXJlPSIwIiBzdHlsZT0iZmlsbDojM2UzZTNlIiBkPSJNIDEyLjY4LDE5LjIgViAxOC4yMiBIIDEyLjUzIEwgMTEuNDgsMTcuODUgMTEuMjUsMTcuMTcgMTEuNzgsMTYuMTIgMTEuMSwxNS40NSBIIDEwLjk1IEwgOS45OCwxNS45NyA5LjMsMTUuNjcgOC45MywxNC41NSBIIDcuOTUgTCA3Ljg4LDE0LjcgNy41OCwxNS42NyA2LjksMTUuOTcgNS43OCwxNS40NSA1LjEsMTYuMTIgNS4xOCwxNi4yNyA1LjYzLDE3LjE3IDUuNCwxNy44NSA0LjIsMTguMyB2IDAuOTcgaCAwLjE1IGwgMS4wNSwwLjM4IDAuMjMsMC42NyAtMC41MywxLjA1IDAuNjgsMC42OCBoIDAuMTUgbCAwLjk3LC0wLjUzIDAuNjgsMC4zIDAuMzcsMS4xMyBIIDguOTMgTCA5LDIyLjggbCAwLjMsLTAuOTggMC42OCwtMC4zIDEuMTIsMC41MyAwLjY4LC0wLjY4IC0wLjA4LC0wLjE1IC0wLjQ1LC0wLjkgMC4yMywtMC42NyB6Ii8+JiN4YTsmI3hhOzxwYXRoIGlkPSJwYXRoNTE3NjEiIGlua3NjYXBlOmNvbm5lY3Rvci1jdXJ2YXR1cmU9IjAiIHN0eWxlPSJmaWxsOiNmMWYxZjE7ZmlsbC1vcGFjaXR5OjAuMiIgZD0iTSAxMC45NSwxNS40NSA5Ljk3LDE1LjkgOS4zLDE1LjYgOC44NSwxNC40NyBIIDcuODcgTCA3LjgsMTQuNjIgNy41LDE1LjY3IDYuODIsMTUuOTcgNS43LDE1LjQ1IDUuMDIsMTYuMTIgNS4xLDE2LjI3IDUuNjIsMTcuMjUgNS4zMiwxNy45MiA0LjIsMTguMzcgdiAwLjk4IEwgNC4zNSwxOS40MiA1LjQsMTkuNzIgNS43LDIwLjQgNS4xNywyMS41MiA1Ljg1LDIyLjIgNiwyMi4xMiA2LjM3LDIxLjkgNi45LDIxIHYgMCBsIDMuMjIsLTQuNDMgdiAwIHoiLz4mI3hhOyYjeGE7PGNpcmNsZSBpZD0iZWxsaXBzZTUxNzY5IiBzdHlsZT0iZmlsbDojNTliNGQ5IiBjeD0iOC40Nzk5OTk1IiBjeT0iMTguNzUiIHI9IjEuNSIvPiYjeGE7JiN4YTs8cGF0aCBpZD0icGF0aDUxNzc3IiBpbmtzY2FwZTpjb25uZWN0b3ItY3VydmF0dXJlPSIwIiBzdHlsZT0iZmlsbDojM2UzZTNlIiBkPSJtIDMzLjY4LDE5LjIgdiAtMC45OCBoIC0wLjE1IGwgLTEuMDUsLTAuMzcgLTAuMywtMC42OCAwLjUyLC0xLjA1IC0wLjY3LC0wLjY3IGggLTAuMDggbCAtMC45NywwLjUyIC0wLjY4LC0wLjMgLTAuNDUsLTEuMTIgaCAtMC45IGwgLTAuMDcsMC4xNSAtMC4zLDAuOTcgLTAuNjgsMC4zIC0xLjEyLC0wLjUyIC0wLjY4LDAuNjcgMC4wOCwwLjE1IDAuNDUsMC45IC0wLjIzLDAuNjggLTEuMiwwLjQ1IHYgMC45NyBoIDAuMTUgbCAxLjA1LDAuMzggMC4yMywwLjY3IC0wLjUzLDEuMDUgMC42OCwwLjY4IGggMC4xNSBsIDAuOTcsLTAuNTMgMC42OCwwLjMgMC4zNywxLjEzIGggMC45OCBMIDMwLDIyLjggbCAwLjMsLTAuOTggMC42OCwtMC4zIDEuMTIsMC41MyAwLjY4LC0wLjY4IC0wLjA4LC0wLjE1IC0wLjUyLC0wLjkgMC4zLC0wLjY3IHoiLz4mI3hhOyYjeGE7PHBhdGggaWQ9InBhdGg1MTc4NSIgaW5rc2NhcGU6Y29ubmVjdG9yLWN1cnZhdHVyZT0iMCIgc3R5bGU9ImZpbGw6I2YxZjFmMTtmaWxsLW9wYWNpdHk6MC4yIiBkPSJNIDMxLjk1LDE1LjQ1IDMwLjk3LDE1LjkgMzAuMywxNS42IDI5Ljg1LDE0LjQ3IGggLTAuOTggbCAtMC4wNywwLjE1IC0wLjMsMS4wNSAtMC42OCwwLjMgLTEuMTIsLTAuNTIgLTAuNjgsMC42NyAwLjA4LDAuMTUgMC41MiwwLjk4IC0wLjMsMC42NyAtMS4xMiwwLjQ1IHYgMC45OCBsIDAuMTUsMC4wNyAxLjA1LDAuMyAwLjMsMC42OCAtMC41MywxLjEyIDAuNjgsMC42OCAwLjE1LC0wLjA4IDAuMzcsLTAuMjIgMC42LC0wLjgzIHYgMCBsIDMuMjMsLTQuNDIgdiAwIHoiLz4mI3hhOyYjeGE7PGNpcmNsZSBpZD0iZWxsaXBzZTUxNzkzIiBzdHlsZT0iZmlsbDojNTliNGQ5IiBjeD0iMjkuNCIgY3k9IjE4Ljc1IiByPSIxLjUiLz4mI3hhOzwvc3ZnPg==;" vertex="1" parent="1">
          <mxGeometry x="183.99999999999997" y="470" width="38" height="38" as="geometry" />
        </mxCell>
        <mxCell id="t415n4CLTocWxzWvGbID-23" value="Container Groups" style="shape=image;verticalLabelPosition=bottom;labelBackgroundColor=#ffffff;verticalAlign=top;aspect=fixed;imageAspect=0;image=data:image/svg+xml,PHN2ZyB4bWxuczpkYz0iaHR0cDovL3B1cmwub3JnL2RjL2VsZW1lbnRzLzEuMS8iIHhtbG5zOmNjPSJodHRwOi8vY3JlYXRpdmVjb21tb25zLm9yZy9ucyMiIHhtbG5zOnJkZj0iaHR0cDovL3d3dy53My5vcmcvMTk5OS8wMi8yMi1yZGYtc3ludGF4LW5zIyIgeG1sbnM6c3ZnPSJodHRwOi8vd3d3LnczLm9yZy8yMDAwL3N2ZyIgeG1sbnM9Imh0dHA6Ly93d3cudzMub3JnLzIwMDAvc3ZnIiB4bWxuczpzb2RpcG9kaT0iaHR0cDovL3NvZGlwb2RpLnNvdXJjZWZvcmdlLm5ldC9EVEQvc29kaXBvZGktMC5kdGQiIHhtbG5zOmlua3NjYXBlPSJodHRwOi8vd3d3Lmlua3NjYXBlLm9yZy9uYW1lc3BhY2VzL2lua3NjYXBlIiB2ZXJzaW9uPSIxLjEiIGlkPSJzdmc1NjAxOCIgaW5rc2NhcGU6dmVyc2lvbj0iMC45Mi4zICgyNDA1NTQ2LCAyMDE4LTAzLTExKSIgc29kaXBvZGk6ZG9jbmFtZT0iYXp1cmVfY29udGFpbmVyLnN2ZyIgeD0iMHB4IiB5PSIwcHgiIHZpZXdCb3g9IjAgMCA2NS41MiA0OC40OSIgeG1sOnNwYWNlPSJwcmVzZXJ2ZSIgd2lkdGg9IjY1LjUxOTk5NyIgaGVpZ2h0PSI0OC40OTAwMDIiPjxtZXRhZGF0YSBpZD0ibWV0YWRhdGE1NTM4Ij48cmRmOlJERj48Y2M6V29yayByZGY6YWJvdXQ9IiI+PGRjOmZvcm1hdD5pbWFnZS9zdmcreG1sPC9kYzpmb3JtYXQ+PGRjOnR5cGUgcmRmOnJlc291cmNlPSJodHRwOi8vcHVybC5vcmcvZGMvZGNtaXR5cGUvU3RpbGxJbWFnZSIvPjxkYzp0aXRsZS8+PC9jYzpXb3JrPjwvcmRmOlJERj48L21ldGFkYXRhPjxkZWZzIGlkPSJkZWZzNTUzNiIvPiYjeGE7PGZpbHRlciBpZD0iZmlsdGVyXzIiPiYjeGE7CTxmZUdhdXNzaWFuQmx1ciBpZD0iZmVHYXVzc2lhbkJsdXI1NTgzOSIgc3RkRGV2aWF0aW9uPSIyIi8+JiN4YTs8L2ZpbHRlcj4mI3hhOzxzb2RpcG9kaTpuYW1lZHZpZXcgYm9yZGVyY29sb3I9IiM2NjY2NjYiIGJvcmRlcm9wYWNpdHk9IjEiIGZpdC1tYXJnaW4tYm90dG9tPSIwIiBmaXQtbWFyZ2luLWxlZnQ9IjAiIGZpdC1tYXJnaW4tcmlnaHQ9IjAiIGZpdC1tYXJnaW4tdG9wPSIwIiBncmlkdG9sZXJhbmNlPSIxMCIgZ3VpZGV0b2xlcmFuY2U9IjEwIiBpZD0ibmFtZWR2aWV3NTYwMjAiIGlua3NjYXBlOmN1cnJlbnQtbGF5ZXI9InN2ZzU2MDE4IiBpbmtzY2FwZTpjeD0iLTMuNDYzNzEzOSIgaW5rc2NhcGU6Y3k9IjIwLjQ1NjkyNyIgaW5rc2NhcGU6cGFnZW9wYWNpdHk9IjAiIGlua3NjYXBlOnBhZ2VzaGFkb3c9IjIiIGlua3NjYXBlOndpbmRvdy1oZWlnaHQ9IjEwMTciIGlua3NjYXBlOndpbmRvdy1tYXhpbWl6ZWQ9IjEiIGlua3NjYXBlOndpbmRvdy13aWR0aD0iMTkyMCIgaW5rc2NhcGU6d2luZG93LXg9Ii04IiBpbmtzY2FwZTp3aW5kb3cteT0iLTgiIGlua3NjYXBlOnpvb209IjguOTExNjU1NyIgb2JqZWN0dG9sZXJhbmNlPSIxMCIgcGFnZWNvbG9yPSIjZmZmZmZmIiBzaG93Z3JpZD0iZmFsc2UiPiYjeGE7CTwvc29kaXBvZGk6bmFtZWR2aWV3PiYjeGE7JiN4YTs8cGF0aCBpZD0icGF0aDU1ODUyIiBpbmtzY2FwZTpjb25uZWN0b3ItY3VydmF0dXJlPSIwIiBzdHlsZT0iZmlsbDojODA0OTk4IiBkPSJNIDMwLjAxLDEyLjMyIDE5LjkyLDE2LjI1IFYgMCBsIDEwLjA5LDMuNTQgeiIvPiYjeGE7JiN4YTs8cGF0aCBpZD0icGF0aDU1ODYwIiBpbmtzY2FwZTpjb25uZWN0b3ItY3VydmF0dXJlPSIwIiBzdHlsZT0iZmlsbDojODA0OTk4IiBkPSJtIDEwLjg4LDIuNzUgdiAxMC42MSBsIDcuNDcsMi44OSBWIDAuMTMgWiBtIDAuNzksOS44MyAtMC40LC0wLjEzIFYgMy42NyBsIDAuNCwtMC4xMyAwLjM5LC0wLjE0IDAuMzksLTAuMTMgdiA5LjU3IGwgLTAuMzksLTAuMTMgeiBtIDEuOTYsMC41MiAtMC41MiwtMC4xMyBWIDMuMTQgbCAwLjUyLC0wLjEzIDAuNTMsLTAuMTMgMC41MiwtMC4xMyB2IDEwLjc0IGwgLTAuNTIsLTAuMTMgeiBtIDIuMzYsMC43OSAtMC42NSwtMC4yNiBWIDIuNDkgbCAwLjY1LC0wLjEzIDAuNjYsLTAuMjcgMC43OCwtMC4yNiB2IDEyLjQ1IGwgLTAuNzgsLTAuMjYgeiIvPiYjeGE7JiN4YTs8cGF0aCBpZD0icGF0aDU1ODY4IiBpbmtzY2FwZTpjb25uZWN0b3ItY3VydmF0dXJlPSIwIiBzdHlsZT0iZmlsbDojODA0OTk4IiBkPSJNIDUzLjQ3LDEyLjMyIDQzLjM4LDE2LjI1IFYgMCBsIDEwLjA5LDMuNTQgeiIvPiYjeGE7JiN4YTs8cGF0aCBpZD0icGF0aDU1ODc2IiBpbmtzY2FwZTpjb25uZWN0b3ItY3VydmF0dXJlPSIwIiBzdHlsZT0iZmlsbDojODA0OTk4IiBkPSJtIDM0LjMzLDIuNzUgdiAxMC42MSBsIDcuNDcsMi44OSBWIDAuMTMgWiBtIDAuNzksOS44MyAtMC40LC0wLjEzIFYgMy42NyBMIDM1LjEyLDMuNTQgMzUuNTEsMy40IDM1LjksMy4yNyB2IDkuNTcgbCAtMC4zOSwtMC4xMyB6IG0gMS45NiwwLjUyIC0wLjUyLC0wLjEzIFYgMy4xNCBsIDAuNTIsLTAuMTMgMC41MywtMC4xMyAwLjUyLC0wLjEzIHYgMTAuNzQgbCAtMC41MiwtMC4xMyB6IG0gMi4zNiwwLjc5IC0wLjY1LC0wLjI2IFYgMi40OSBMIDM5LjQ0LDIuMzYgNDAuMSwyLjA5IDQwLjg4LDEuODMgViAxNC4yOCBMIDQwLjEsMTQuMDIgWiIvPiYjeGE7JiN4YTs8cGF0aCBpZD0icGF0aDU1ODg0IiBpbmtzY2FwZTpjb25uZWN0b3ItY3VydmF0dXJlPSIwIiBzdHlsZT0iZmlsbDojODA0OTk4IiBkPSJNIDMwLjAxLDQ0LjU2IDE5LjkyLDQ4LjQ5IFYgMzIuMjQgbCAxMC4wOSwzLjU0IHoiLz4mI3hhOyYjeGE7PHBhdGggaWQ9InBhdGg1NTg5MiIgaW5rc2NhcGU6Y29ubmVjdG9yLWN1cnZhdHVyZT0iMCIgc3R5bGU9ImZpbGw6IzgwNDk5OCIgZD0iTSAxMC44OCwzNC45OSBWIDQ1LjYgbCA3LjQ3LDIuODkgViAzMi4zNyBaIG0gMC43OSw5LjgzIC0wLjQsLTAuMTMgdiAtOC43OCBsIDAuNCwtMC4xMyAwLjM5LC0wLjE0IDAuMzksLTAuMTMgdiA5LjU3IGwgLTAuMzksLTAuMTMgeiBtIDEuOTYsMC41MiAtMC41MiwtMC4xMyB2IC05LjgzIGwgMC41MiwtMC4xMyAwLjUzLC0wLjEzIDAuNTIsLTAuMTMgViA0NS43MyBMIDE0LjE2LDQ1LjYgWiBtIDIuMzYsMC43OSAtMC42NSwtMC4yNiBWIDM0LjczIGwgMC42NSwtMC4xMyAwLjY2LC0wLjI3IDAuNzgsLTAuMjYgdiAxMi40NSBsIC0wLjc4LC0wLjI2IHoiLz4mI3hhOyYjeGE7PHBhdGggaWQ9InBhdGg1NTkwMCIgaW5rc2NhcGU6Y29ubmVjdG9yLWN1cnZhdHVyZT0iMCIgc3R5bGU9ImZpbGw6IzgwNDk5OCIgZD0iTSA1My40Nyw0NC41NiA0My4zOCw0OC40OSBWIDMyLjI0IGwgMTAuMDksMy41NCB6Ii8+JiN4YTsmI3hhOzxwYXRoIGlkPSJwYXRoNTU5MDgiIGlua3NjYXBlOmNvbm5lY3Rvci1jdXJ2YXR1cmU9IjAiIHN0eWxlPSJmaWxsOiM4MDQ5OTgiIGQ9Ik0gMzQuMzMsMzQuOTkgViA0NS42IGwgNy40NywyLjg5IFYgMzIuMzcgWiBtIDAuNzksOS44MyAtMC40LC0wLjEzIHYgLTguNzggbCAwLjQsLTAuMTMgMC4zOSwtMC4xNCAwLjM5LC0wLjEzIHYgOS41NyBsIC0wLjM5LC0wLjEzIHogbSAxLjk2LDAuNTIgLTAuNTIsLTAuMTMgdiAtOS44MyBsIDAuNTIsLTAuMTMgMC41MywtMC4xMyAwLjUyLC0wLjEzIFYgNDUuNzMgTCAzNy42MSw0NS42IFogbSAyLjM2LDAuNzkgLTAuNjUsLTAuMjYgViAzNC43MyBsIDAuNjUsLTAuMTMgMC42NiwtMC4yNyAwLjc4LC0wLjI2IFYgNDYuNTIgTCA0MC4xLDQ2LjI2IFoiLz4mI3hhOyYjeGE7PHBhdGggaWQ9InBhdGg1NTkxNiIgaW5rc2NhcGU6Y29ubmVjdG9yLWN1cnZhdHVyZT0iMCIgc3R5bGU9ImZpbGw6IzgwNDk5OCIgZD0ibSA0Mi40NiwyOC40NCAtOS45NiwzLjggViAxNi4xMiBsIDkuOTYsMy41NCB6Ii8+JiN4YTsmI3hhOzxwYXRoIGlkPSJwYXRoNTU5MjQiIGlua3NjYXBlOmNvbm5lY3Rvci1jdXJ2YXR1cmU9IjAiIHN0eWxlPSJmaWxsOiM4MDQ5OTgiIGQ9Im0gMjMuMzMsMTguNzQgdiAxMC42MSBsIDcuNDcsMi44OSBWIDE2LjEyIFogbSAwLjc5LDkuODMgLTAuNCwtMC4xMyB2IC04Ljc4IGwgMC40LC0wLjEzIDAuMzksLTAuMTQgMC4zOSwtMC4xMyB2IDkuNTcgTCAyNC41MSwyOC43IFogbSAxLjk2LDAuNjUgLTAuNTIsLTAuMTMgdiAtOS44MyBsIDAuNTIsLTAuMTMgMC41MywtMC4xMyAwLjUyLC0wLjEzIHYgMTAuNzUgbCAtMC41MiwtMC4xNCB6IG0gMi4zNiwwLjc5IC0wLjY1LC0wLjI2IFYgMTguNjEgbCAwLjY1LC0wLjEzIDAuNjYsLTAuMjcgMC43OCwtMC4yNiBWIDMwLjQgTCAyOS4xLDMwLjE0IFoiLz4mI3hhOyYjeGE7PHBhdGggaWQ9InBhdGg1NTkzMiIgaW5rc2NhcGU6Y29ubmVjdG9yLWN1cnZhdHVyZT0iMCIgc3R5bGU9ImZpbGw6IzgwNDk5OCIgZD0ibSAxOS4xMywyOC40NCAtOS45NiwzLjggViAxNi4xMiBsIDkuOTYsMy41NCB6Ii8+JiN4YTsmI3hhOzxwYXRoIGlkPSJwYXRoNTU5NDAiIGlua3NjYXBlOmNvbm5lY3Rvci1jdXJ2YXR1cmU9IjAiIHN0eWxlPSJmaWxsOiM4MDQ5OTgiIGQ9Im0gMCwxOC43NCB2IDEwLjYxIGwgNy40NywyLjg5IFYgMTYuMTIgWiBtIDAuNzksOS44MyAtMC40LC0wLjEzIHYgLTguNzggbCAwLjQsLTAuMTMgMC4zOSwtMC4xNCAwLjM5LC0wLjEzIHYgOS41NyBMIDEuMTgsMjguNyBaIE0gMi43NSwyOS4yMiAyLjIzLDI5LjA5IFYgMTkuMjYgTCAyLjc1LDE5LjEzIDMuMjgsMTkgMy44LDE4Ljg3IFYgMjkuNjIgTCAzLjI4LDI5LjQ4IFogTSA1LjExLDMwLjAxIDQuNDYsMjkuNzUgViAxOC42MSBMIDUuMTEsMTguNDggNS43NywxOC4yMSA2LjU1LDE3Ljk1IFYgMzAuNCBMIDUuNzcsMzAuMTQgWiIvPiYjeGE7JiN4YTs8cGF0aCBpZD0icGF0aDU1OTQ4IiBpbmtzY2FwZTpjb25uZWN0b3ItY3VydmF0dXJlPSIwIiBzdHlsZT0iZmlsbDojODA0OTk4IiBkPSJtIDY1LjUyLDI4LjQ0IC05Ljk2LDMuOCBWIDE2LjEyIGwgOS45NiwzLjU0IHoiLz4mI3hhOyYjeGE7JiN4YTsmI3hhOyYjeGE7JiN4YTsmI3hhOyYjeGE7JiN4YTsmI3hhOyYjeGE7JiN4YTsmI3hhOyYjeGE7JiN4YTsmI3hhOzxwYXRoIGlkPSJwYXRoNTYwMTIiIGlua3NjYXBlOmNvbm5lY3Rvci1jdXJ2YXR1cmU9IjAiIHN0eWxlPSJmaWxsOiM4MDQ5OTgiIGQ9Im0gNDYuMzksMTguNzQgdiAxMC42MSBsIDcuNDcsMi44OSBWIDE2LjEyIFogbSAwLjc5LDkuODMgLTAuNCwtMC4xMyB2IC04Ljc4IGwgMC40LC0wLjEzIDAuMzksLTAuMTQgMC4zOSwtMC4xMyB2IDkuNTcgTCA0Ny41NywyOC43IFogbSAxLjk2LDAuNjUgLTAuNTIsLTAuMTMgdiAtOS44MyBsIDAuNTIsLTAuMTMgMC41MywtMC4xMyAwLjUyLC0wLjEzIHYgMTAuNzUgbCAtMC41MiwtMC4xNCB6IG0gMi4zNiwwLjc5IC0wLjY1LC0wLjI2IFYgMTguNjEgbCAwLjY1LC0wLjEzIDAuNjYsLTAuMjcgMC43OCwtMC4yNiBWIDMwLjQgbCAtMC43OCwtMC4yNiB6Ii8+JiN4YTs8L3N2Zz4=;" vertex="1" parent="1">
          <mxGeometry x="309.99999999999994" y="520" width="66" height="48" as="geometry" />
        </mxCell>
        <mxCell id="t415n4CLTocWxzWvGbID-24" value="" style="shape=image;verticalLabelPosition=bottom;labelBackgroundColor=#ffffff;verticalAlign=top;aspect=fixed;imageAspect=0;image=data:image/svg+xml,PHN2ZyB4bWxuczpkYz0iaHR0cDovL3B1cmwub3JnL2RjL2VsZW1lbnRzLzEuMS8iIHhtbG5zOmNjPSJodHRwOi8vY3JlYXRpdmVjb21tb25zLm9yZy9ucyMiIHhtbG5zOnJkZj0iaHR0cDovL3d3dy53My5vcmcvMTk5OS8wMi8yMi1yZGYtc3ludGF4LW5zIyIgeG1sbnM6c3ZnPSJodHRwOi8vd3d3LnczLm9yZy8yMDAwL3N2ZyIgeG1sbnM9Imh0dHA6Ly93d3cudzMub3JnLzIwMDAvc3ZnIiB4bWxuczpzb2RpcG9kaT0iaHR0cDovL3NvZGlwb2RpLnNvdXJjZWZvcmdlLm5ldC9EVEQvc29kaXBvZGktMC5kdGQiIHhtbG5zOmlua3NjYXBlPSJodHRwOi8vd3d3Lmlua3NjYXBlLm9yZy9uYW1lc3BhY2VzL2lua3NjYXBlIiB2ZXJzaW9uPSIxLjEiIGlkPSJzdmc1MTc5OSIgaW5rc2NhcGU6dmVyc2lvbj0iMC45Mi4zICgyNDA1NTQ2LCAyMDE4LTAzLTExKSIgc29kaXBvZGk6ZG9jbmFtZT0iYXp1cmVfYXBwX3NlcnZpY2Vfd29ya2VyX3Bvb2xzLnN2ZyIgeD0iMHB4IiB5PSIwcHgiIHZpZXdCb3g9IjAgMCAzNy41NyAzNy41IiB4bWw6c3BhY2U9InByZXNlcnZlIiB3aWR0aD0iMzcuNTciIGhlaWdodD0iMzcuNSI+PG1ldGFkYXRhIGlkPSJtZXRhZGF0YTU3NyI+PHJkZjpSREY+PGNjOldvcmsgcmRmOmFib3V0PSIiPjxkYzpmb3JtYXQ+aW1hZ2Uvc3ZnK3htbDwvZGM6Zm9ybWF0PjxkYzp0eXBlIHJkZjpyZXNvdXJjZT0iaHR0cDovL3B1cmwub3JnL2RjL2RjbWl0eXBlL1N0aWxsSW1hZ2UiLz48ZGM6dGl0bGUvPjwvY2M6V29yaz48L3JkZjpSREY+PC9tZXRhZGF0YT48ZGVmcyBpZD0iZGVmczU3NSI+JiN4YTsJJiN4YTsmI3hhOwkmI3hhOyYjeGE7CSYjeGE7JiN4YTsJJiN4YTsmI3hhOwkmI3hhOyYjeGE7CSYjeGE7JiN4YTsJJiN4YTsmI3hhOwkmI3hhOyYjeGE7CSYjeGE7JiN4YTsJJiN4YTsmI3hhOwkmI3hhOyYjeGE7CSYjeGE7JiN4YTsJJiN4YTsmI3hhOwkmI3hhOzwvZGVmcz4mI3hhOzxmaWx0ZXIgaWQ9ImZpbHRlcl8yIj4mI3hhOwk8ZmVHYXVzc2lhbkJsdXIgaWQ9ImZlR2F1c3NpYW5CbHVyNTE2NzYiIHN0ZERldmlhdGlvbj0iMiIvPiYjeGE7PC9maWx0ZXI+JiN4YTs8c29kaXBvZGk6bmFtZWR2aWV3IGJvcmRlcmNvbG9yPSIjNjY2NjY2IiBib3JkZXJvcGFjaXR5PSIxIiBmaXQtbWFyZ2luLWJvdHRvbT0iMCIgZml0LW1hcmdpbi1sZWZ0PSIwIiBmaXQtbWFyZ2luLXJpZ2h0PSIwIiBmaXQtbWFyZ2luLXRvcD0iMCIgZ3JpZHRvbGVyYW5jZT0iMTAiIGd1aWRldG9sZXJhbmNlPSIxMCIgaWQ9Im5hbWVkdmlldzUxODAxIiBpbmtzY2FwZTpjdXJyZW50LWxheWVyPSJzdmc1MTc5OSIgaW5rc2NhcGU6Y3g9IjIyLjk4MzU3MyIgaW5rc2NhcGU6Y3k9IjE0LjI2MjU4NiIgaW5rc2NhcGU6cGFnZW9wYWNpdHk9IjAiIGlua3NjYXBlOnBhZ2VzaGFkb3c9IjIiIGlua3NjYXBlOndpbmRvdy1oZWlnaHQ9IjEwMTciIGlua3NjYXBlOndpbmRvdy1tYXhpbWl6ZWQ9IjEiIGlua3NjYXBlOndpbmRvdy13aWR0aD0iMTkyMCIgaW5rc2NhcGU6d2luZG93LXg9Ii04IiBpbmtzY2FwZTp3aW5kb3cteT0iLTgiIGlua3NjYXBlOnpvb209IjEwLjU3MDAyMiIgb2JqZWN0dG9sZXJhbmNlPSIxMCIgcGFnZWNvbG9yPSIjZmZmZmZmIiBzaG93Z3JpZD0iZmFsc2UiPiYjeGE7CTwvc29kaXBvZGk6bmFtZWR2aWV3PiYjeGE7JiN4YTs8cGF0aCBpZD0icGF0aDUxNjg5IiBpbmtzY2FwZTpjb25uZWN0b3ItY3VydmF0dXJlPSIwIiBzdHlsZT0iZmlsbDojNTliNGQ5IiBkPSJtIDE4Ljc1LDM3LjUgYyAtMC45LDAgLTEuOCwtMC4zOCAtMi40OCwtMS4wNSBMIDEuMDUsMjEuMjIgQyAwLjM3LDIwLjU1IDAsMTkuNjUgMCwxOC43NSAwLDE3Ljg1IDAuMzcsMTYuOTUgMS4wNSwxNi4yNyBMIDE2LjI3LDEuMDUgQyAxNi45NSwwLjM3IDE3Ljg1LDAgMTguNzUsMCBjIDAuOSwwIDEuOCwwLjM3IDIuNDcsMS4wNSBsIDE1LjMxLDE1LjMgYyAwLjY3LDAuNjcgMS4wNCwxLjUgMS4wNCwyLjQ3IDAsMC45OCAtMC4zNywxLjggLTEuMDQsMi40OCBMIDIxLjIyLDM2LjQ1IGMgLTAuNjcsMC42NyAtMS41NywxLjA1IC0yLjQ3LDEuMDUgeiIvPiYjeGE7JiN4YTs8cGF0aCBpZD0icGF0aDUxNjk3IiBpbmtzY2FwZTpjb25uZWN0b3ItY3VydmF0dXJlPSIwIiBzdHlsZT0iZmlsbDojZmZmZmZmO2ZpbGwtb3BhY2l0eTowLjA5ODAwMDAyIiBkPSJNIDIxLjIzLDEuMDUgQyAyMC41NSwwLjM3IDE5LjY1LDAgMTguNzUsMCAxNy44NSwwIDE2Ljk1LDAuMzcgMTYuMjgsMS4wNSBMIDEuMDUsMTYuMjcgQyAwLjM3LDE2Ljk1IDAsMTcuODUgMCwxOC43NSBjIDAsMC45IDAuMzcsMS44IDEuMDUsMi40NyBMIDkuNjcsMjkuODUgMjUuOTUsNS43NyBaIi8+JiN4YTsmI3hhOzxwYXRoIGlkPSJwYXRoNTE3MDUiIGlua3NjYXBlOmNvbm5lY3Rvci1jdXJ2YXR1cmU9IjAiIHN0eWxlPSJmaWxsOiMzZTNlM2UiIGQ9Ik0gMjIuOTUsOS40NSBWIDguNTUgTCAyMi44LDguNDcgMjEuODMsOC4xNyAyMS41Myw3LjUgMjIuMDUsNi4zNyAyMS4zOCw1LjcgMjEuMjMsNS43NyAyMC4zMyw2LjIyIDE5LjY1LDUuOTIgMTkuMiw0LjggSCAxOC4yMyBWIDQuOTUgTCAxNy44NSw2IDE3LjE4LDYuMjIgMTYuMTMsNS43IDE1LjQ1LDYuMzcgdiAwLjE1IGwgMC41MywwLjk4IC0wLjMsMC42NyAtMS4xMywwLjM4IHYgMC45NyBsIDAuMTUsMC4wOCAwLjk4LDAuMyAwLjMsMC42NyAtMC41MywxLjEzIDAuNjgsMC42NyAwLjE1LC0wLjA3IDAuOSwtMC41MyAwLjY3LDAuMyAwLjQ1LDEuMTMgaCAwLjk4IHYgLTAuMDggbCAwLjM3LC0xLjA1IDAuNjgsLTAuMyAxLjA1LDAuNTMgMC42NywtMC42OCB2IC0wLjA3IGwgLTAuNTIsLTAuOTggMC4zLC0wLjY3IHoiLz4mI3hhOyYjeGE7PHBhdGggaWQ9InBhdGg1MTcxMyIgaW5rc2NhcGU6Y29ubmVjdG9yLWN1cnZhdHVyZT0iMCIgc3R5bGU9ImZpbGw6I2YxZjFmMTtmaWxsLW9wYWNpdHk6MC4yIiBkPSJNIDIxLjIyLDUuNzcgMjAuMjUsNi4yMiAxOS41Nyw1LjkyIDE5LjEyLDQuNzkgaCAtMC45NyBsIC0wLjA4LDAuMTUgLTAuMjIsMS4wNSAtMC42OCwwLjMgLTEuMTIsLTAuNTIgLTAuNjgsMC42NyAwLjA4LDAuMTUgMC41MiwwLjk4IC0wLjMsMC42NyAtMS4xMiwwLjQ1IHYgMC45OCBsIDAuMTUsMC4wNyAxLjA1LDAuMyAwLjMsMC42OCAtMC41MywxLjEyIDAuNjgsMC42OCAwLjE1LC0wLjA4IDAuMzcsLTAuMjIgMC41MywtMC45OCB2IDAgbCAzLjIyLC00LjQyIHYgMCB6Ii8+JiN4YTsmI3hhOzxjaXJjbGUgaWQ9ImVsbGlwc2U1MTcyMSIgc3R5bGU9ImZpbGw6IzU5YjRkOSIgY3g9IjE4Ljc1IiBjeT0iOSIgcj0iMS41Ii8+JiN4YTsmI3hhOzxwYXRoIGlkPSJwYXRoNTE3MjkiIGlua3NjYXBlOmNvbm5lY3Rvci1jdXJ2YXR1cmU9IjAiIHN0eWxlPSJmaWxsOiMzZTNlM2UiIGQ9Ik0gMjIuOTUsMjkuNTUgViAyOC41NyBIIDIyLjggbCAtMC45NywtMC4zNyAtMC4zLC0wLjY4IDAuNTIsLTEuMDUgLTAuNjcsLTAuNjcgaCAtMC4xNSBsIC0wLjksMC41MiAtMC42OCwtMC4zIC0wLjQ1LC0xLjEyIGggLTAuOTcgdiAwLjE1IGwgLTAuMzgsMC45NyAtMC42NywwLjMgLTEuMDUsLTAuNTIgLTAuNjgsMC42NyB2IDAuMTUgbCAwLjUzLDAuOTggLTAuMywwLjYgLTEuMTMsMC40NSB2IDAuOTcgaCAwLjE1IGwgMC45OCwwLjM4IDAuMywwLjY3IC0wLjUzLDEuMDUgMC42OCwwLjc1IDAuMTUsLTAuMDcgMC45LC0wLjUzIDAuNjcsMC4zIDAuNDUsMS4xMyBoIDAuOTggdiAtMC4xNSBsIDAuMzcsLTAuOTggMC42OCwtMC4zIDEuMDUsMC41MyAwLjY3LC0wLjY4IHYgLTAuMTUgbCAtMC41MiwtMC45IDAuMywtMC42NyB6Ii8+JiN4YTsmI3hhOzxwYXRoIGlkPSJwYXRoNTE3MzciIGlua3NjYXBlOmNvbm5lY3Rvci1jdXJ2YXR1cmU9IjAiIHN0eWxlPSJmaWxsOiNmMWYxZjE7ZmlsbC1vcGFjaXR5OjAuMiIgZD0ibSAyMS4yMywyNS44NyAtMC45OCwwLjQ1IC0wLjY3LC0wLjMgLTAuNDUsLTEuMTMgaCAtMC45OCBsIC0wLjA3LDAuMTUgLTAuMywxLjA1IC0wLjY4LDAuMyAtMS4xMiwtMC41MiAtMC42OCwwLjY3IDAuMDgsMC4xNSAwLjUyLDAuOTggLTAuMywwLjY3IC0xLjEyLDAuNDUgdiAwLjk4IGwgMC4xNSwwLjA3IDEuMDUsMC4zIDAuMywwLjY4IC0wLjUzLDEuMTIgMC42OCwwLjY4IDAuMTUsLTAuMDggMC4zNywtMC4yMiAwLjYsLTAuODMgdiAwIGwgMy4yMywtNC40MiB2IDAgeiIvPiYjeGE7JiN4YTs8Y2lyY2xlIGlkPSJlbGxpcHNlNTE3NDUiIHN0eWxlPSJmaWxsOiM1OWI0ZDkiIGN4PSIxOC43NSIgY3k9IjI5LjEiIHI9IjEuNSIvPiYjeGE7JiN4YTs8cGF0aCBpZD0icGF0aDUxNzUzIiBpbmtzY2FwZTpjb25uZWN0b3ItY3VydmF0dXJlPSIwIiBzdHlsZT0iZmlsbDojM2UzZTNlIiBkPSJNIDEyLjY4LDE5LjIgViAxOC4yMiBIIDEyLjUzIEwgMTEuNDgsMTcuODUgMTEuMjUsMTcuMTcgMTEuNzgsMTYuMTIgMTEuMSwxNS40NSBIIDEwLjk1IEwgOS45OCwxNS45NyA5LjMsMTUuNjcgOC45MywxNC41NSBIIDcuOTUgTCA3Ljg4LDE0LjcgNy41OCwxNS42NyA2LjksMTUuOTcgNS43OCwxNS40NSA1LjEsMTYuMTIgNS4xOCwxNi4yNyA1LjYzLDE3LjE3IDUuNCwxNy44NSA0LjIsMTguMyB2IDAuOTcgaCAwLjE1IGwgMS4wNSwwLjM4IDAuMjMsMC42NyAtMC41MywxLjA1IDAuNjgsMC42OCBoIDAuMTUgbCAwLjk3LC0wLjUzIDAuNjgsMC4zIDAuMzcsMS4xMyBIIDguOTMgTCA5LDIyLjggbCAwLjMsLTAuOTggMC42OCwtMC4zIDEuMTIsMC41MyAwLjY4LC0wLjY4IC0wLjA4LC0wLjE1IC0wLjQ1LC0wLjkgMC4yMywtMC42NyB6Ii8+JiN4YTsmI3hhOzxwYXRoIGlkPSJwYXRoNTE3NjEiIGlua3NjYXBlOmNvbm5lY3Rvci1jdXJ2YXR1cmU9IjAiIHN0eWxlPSJmaWxsOiNmMWYxZjE7ZmlsbC1vcGFjaXR5OjAuMiIgZD0iTSAxMC45NSwxNS40NSA5Ljk3LDE1LjkgOS4zLDE1LjYgOC44NSwxNC40NyBIIDcuODcgTCA3LjgsMTQuNjIgNy41LDE1LjY3IDYuODIsMTUuOTcgNS43LDE1LjQ1IDUuMDIsMTYuMTIgNS4xLDE2LjI3IDUuNjIsMTcuMjUgNS4zMiwxNy45MiA0LjIsMTguMzcgdiAwLjk4IEwgNC4zNSwxOS40MiA1LjQsMTkuNzIgNS43LDIwLjQgNS4xNywyMS41MiA1Ljg1LDIyLjIgNiwyMi4xMiA2LjM3LDIxLjkgNi45LDIxIHYgMCBsIDMuMjIsLTQuNDMgdiAwIHoiLz4mI3hhOyYjeGE7PGNpcmNsZSBpZD0iZWxsaXBzZTUxNzY5IiBzdHlsZT0iZmlsbDojNTliNGQ5IiBjeD0iOC40Nzk5OTk1IiBjeT0iMTguNzUiIHI9IjEuNSIvPiYjeGE7JiN4YTs8cGF0aCBpZD0icGF0aDUxNzc3IiBpbmtzY2FwZTpjb25uZWN0b3ItY3VydmF0dXJlPSIwIiBzdHlsZT0iZmlsbDojM2UzZTNlIiBkPSJtIDMzLjY4LDE5LjIgdiAtMC45OCBoIC0wLjE1IGwgLTEuMDUsLTAuMzcgLTAuMywtMC42OCAwLjUyLC0xLjA1IC0wLjY3LC0wLjY3IGggLTAuMDggbCAtMC45NywwLjUyIC0wLjY4LC0wLjMgLTAuNDUsLTEuMTIgaCAtMC45IGwgLTAuMDcsMC4xNSAtMC4zLDAuOTcgLTAuNjgsMC4zIC0xLjEyLC0wLjUyIC0wLjY4LDAuNjcgMC4wOCwwLjE1IDAuNDUsMC45IC0wLjIzLDAuNjggLTEuMiwwLjQ1IHYgMC45NyBoIDAuMTUgbCAxLjA1LDAuMzggMC4yMywwLjY3IC0wLjUzLDEuMDUgMC42OCwwLjY4IGggMC4xNSBsIDAuOTcsLTAuNTMgMC42OCwwLjMgMC4zNywxLjEzIGggMC45OCBMIDMwLDIyLjggbCAwLjMsLTAuOTggMC42OCwtMC4zIDEuMTIsMC41MyAwLjY4LC0wLjY4IC0wLjA4LC0wLjE1IC0wLjUyLC0wLjkgMC4zLC0wLjY3IHoiLz4mI3hhOyYjeGE7PHBhdGggaWQ9InBhdGg1MTc4NSIgaW5rc2NhcGU6Y29ubmVjdG9yLWN1cnZhdHVyZT0iMCIgc3R5bGU9ImZpbGw6I2YxZjFmMTtmaWxsLW9wYWNpdHk6MC4yIiBkPSJNIDMxLjk1LDE1LjQ1IDMwLjk3LDE1LjkgMzAuMywxNS42IDI5Ljg1LDE0LjQ3IGggLTAuOTggbCAtMC4wNywwLjE1IC0wLjMsMS4wNSAtMC42OCwwLjMgLTEuMTIsLTAuNTIgLTAuNjgsMC42NyAwLjA4LDAuMTUgMC41MiwwLjk4IC0wLjMsMC42NyAtMS4xMiwwLjQ1IHYgMC45OCBsIDAuMTUsMC4wNyAxLjA1LDAuMyAwLjMsMC42OCAtMC41MywxLjEyIDAuNjgsMC42OCAwLjE1LC0wLjA4IDAuMzcsLTAuMjIgMC42LC0wLjgzIHYgMCBsIDMuMjMsLTQuNDIgdiAwIHoiLz4mI3hhOyYjeGE7PGNpcmNsZSBpZD0iZWxsaXBzZTUxNzkzIiBzdHlsZT0iZmlsbDojNTliNGQ5IiBjeD0iMjkuNCIgY3k9IjE4Ljc1IiByPSIxLjUiLz4mI3hhOzwvc3ZnPg==;" vertex="1" parent="1">
          <mxGeometry x="324" y="470" width="38" height="38" as="geometry" />
        </mxCell>
        <mxCell id="t415n4CLTocWxzWvGbID-25" value="Container Groups" style="shape=image;verticalLabelPosition=bottom;labelBackgroundColor=#ffffff;verticalAlign=top;aspect=fixed;imageAspect=0;image=data:image/svg+xml,PHN2ZyB4bWxuczpkYz0iaHR0cDovL3B1cmwub3JnL2RjL2VsZW1lbnRzLzEuMS8iIHhtbG5zOmNjPSJodHRwOi8vY3JlYXRpdmVjb21tb25zLm9yZy9ucyMiIHhtbG5zOnJkZj0iaHR0cDovL3d3dy53My5vcmcvMTk5OS8wMi8yMi1yZGYtc3ludGF4LW5zIyIgeG1sbnM6c3ZnPSJodHRwOi8vd3d3LnczLm9yZy8yMDAwL3N2ZyIgeG1sbnM9Imh0dHA6Ly93d3cudzMub3JnLzIwMDAvc3ZnIiB4bWxuczpzb2RpcG9kaT0iaHR0cDovL3NvZGlwb2RpLnNvdXJjZWZvcmdlLm5ldC9EVEQvc29kaXBvZGktMC5kdGQiIHhtbG5zOmlua3NjYXBlPSJodHRwOi8vd3d3Lmlua3NjYXBlLm9yZy9uYW1lc3BhY2VzL2lua3NjYXBlIiB2ZXJzaW9uPSIxLjEiIGlkPSJzdmc1NjAxOCIgaW5rc2NhcGU6dmVyc2lvbj0iMC45Mi4zICgyNDA1NTQ2LCAyMDE4LTAzLTExKSIgc29kaXBvZGk6ZG9jbmFtZT0iYXp1cmVfY29udGFpbmVyLnN2ZyIgeD0iMHB4IiB5PSIwcHgiIHZpZXdCb3g9IjAgMCA2NS41MiA0OC40OSIgeG1sOnNwYWNlPSJwcmVzZXJ2ZSIgd2lkdGg9IjY1LjUxOTk5NyIgaGVpZ2h0PSI0OC40OTAwMDIiPjxtZXRhZGF0YSBpZD0ibWV0YWRhdGE1NTM4Ij48cmRmOlJERj48Y2M6V29yayByZGY6YWJvdXQ9IiI+PGRjOmZvcm1hdD5pbWFnZS9zdmcreG1sPC9kYzpmb3JtYXQ+PGRjOnR5cGUgcmRmOnJlc291cmNlPSJodHRwOi8vcHVybC5vcmcvZGMvZGNtaXR5cGUvU3RpbGxJbWFnZSIvPjxkYzp0aXRsZS8+PC9jYzpXb3JrPjwvcmRmOlJERj48L21ldGFkYXRhPjxkZWZzIGlkPSJkZWZzNTUzNiIvPiYjeGE7PGZpbHRlciBpZD0iZmlsdGVyXzIiPiYjeGE7CTxmZUdhdXNzaWFuQmx1ciBpZD0iZmVHYXVzc2lhbkJsdXI1NTgzOSIgc3RkRGV2aWF0aW9uPSIyIi8+JiN4YTs8L2ZpbHRlcj4mI3hhOzxzb2RpcG9kaTpuYW1lZHZpZXcgYm9yZGVyY29sb3I9IiM2NjY2NjYiIGJvcmRlcm9wYWNpdHk9IjEiIGZpdC1tYXJnaW4tYm90dG9tPSIwIiBmaXQtbWFyZ2luLWxlZnQ9IjAiIGZpdC1tYXJnaW4tcmlnaHQ9IjAiIGZpdC1tYXJnaW4tdG9wPSIwIiBncmlkdG9sZXJhbmNlPSIxMCIgZ3VpZGV0b2xlcmFuY2U9IjEwIiBpZD0ibmFtZWR2aWV3NTYwMjAiIGlua3NjYXBlOmN1cnJlbnQtbGF5ZXI9InN2ZzU2MDE4IiBpbmtzY2FwZTpjeD0iLTMuNDYzNzEzOSIgaW5rc2NhcGU6Y3k9IjIwLjQ1NjkyNyIgaW5rc2NhcGU6cGFnZW9wYWNpdHk9IjAiIGlua3NjYXBlOnBhZ2VzaGFkb3c9IjIiIGlua3NjYXBlOndpbmRvdy1oZWlnaHQ9IjEwMTciIGlua3NjYXBlOndpbmRvdy1tYXhpbWl6ZWQ9IjEiIGlua3NjYXBlOndpbmRvdy13aWR0aD0iMTkyMCIgaW5rc2NhcGU6d2luZG93LXg9Ii04IiBpbmtzY2FwZTp3aW5kb3cteT0iLTgiIGlua3NjYXBlOnpvb209IjguOTExNjU1NyIgb2JqZWN0dG9sZXJhbmNlPSIxMCIgcGFnZWNvbG9yPSIjZmZmZmZmIiBzaG93Z3JpZD0iZmFsc2UiPiYjeGE7CTwvc29kaXBvZGk6bmFtZWR2aWV3PiYjeGE7JiN4YTs8cGF0aCBpZD0icGF0aDU1ODUyIiBpbmtzY2FwZTpjb25uZWN0b3ItY3VydmF0dXJlPSIwIiBzdHlsZT0iZmlsbDojODA0OTk4IiBkPSJNIDMwLjAxLDEyLjMyIDE5LjkyLDE2LjI1IFYgMCBsIDEwLjA5LDMuNTQgeiIvPiYjeGE7JiN4YTs8cGF0aCBpZD0icGF0aDU1ODYwIiBpbmtzY2FwZTpjb25uZWN0b3ItY3VydmF0dXJlPSIwIiBzdHlsZT0iZmlsbDojODA0OTk4IiBkPSJtIDEwLjg4LDIuNzUgdiAxMC42MSBsIDcuNDcsMi44OSBWIDAuMTMgWiBtIDAuNzksOS44MyAtMC40LC0wLjEzIFYgMy42NyBsIDAuNCwtMC4xMyAwLjM5LC0wLjE0IDAuMzksLTAuMTMgdiA5LjU3IGwgLTAuMzksLTAuMTMgeiBtIDEuOTYsMC41MiAtMC41MiwtMC4xMyBWIDMuMTQgbCAwLjUyLC0wLjEzIDAuNTMsLTAuMTMgMC41MiwtMC4xMyB2IDEwLjc0IGwgLTAuNTIsLTAuMTMgeiBtIDIuMzYsMC43OSAtMC42NSwtMC4yNiBWIDIuNDkgbCAwLjY1LC0wLjEzIDAuNjYsLTAuMjcgMC43OCwtMC4yNiB2IDEyLjQ1IGwgLTAuNzgsLTAuMjYgeiIvPiYjeGE7JiN4YTs8cGF0aCBpZD0icGF0aDU1ODY4IiBpbmtzY2FwZTpjb25uZWN0b3ItY3VydmF0dXJlPSIwIiBzdHlsZT0iZmlsbDojODA0OTk4IiBkPSJNIDUzLjQ3LDEyLjMyIDQzLjM4LDE2LjI1IFYgMCBsIDEwLjA5LDMuNTQgeiIvPiYjeGE7JiN4YTs8cGF0aCBpZD0icGF0aDU1ODc2IiBpbmtzY2FwZTpjb25uZWN0b3ItY3VydmF0dXJlPSIwIiBzdHlsZT0iZmlsbDojODA0OTk4IiBkPSJtIDM0LjMzLDIuNzUgdiAxMC42MSBsIDcuNDcsMi44OSBWIDAuMTMgWiBtIDAuNzksOS44MyAtMC40LC0wLjEzIFYgMy42NyBMIDM1LjEyLDMuNTQgMzUuNTEsMy40IDM1LjksMy4yNyB2IDkuNTcgbCAtMC4zOSwtMC4xMyB6IG0gMS45NiwwLjUyIC0wLjUyLC0wLjEzIFYgMy4xNCBsIDAuNTIsLTAuMTMgMC41MywtMC4xMyAwLjUyLC0wLjEzIHYgMTAuNzQgbCAtMC41MiwtMC4xMyB6IG0gMi4zNiwwLjc5IC0wLjY1LC0wLjI2IFYgMi40OSBMIDM5LjQ0LDIuMzYgNDAuMSwyLjA5IDQwLjg4LDEuODMgViAxNC4yOCBMIDQwLjEsMTQuMDIgWiIvPiYjeGE7JiN4YTs8cGF0aCBpZD0icGF0aDU1ODg0IiBpbmtzY2FwZTpjb25uZWN0b3ItY3VydmF0dXJlPSIwIiBzdHlsZT0iZmlsbDojODA0OTk4IiBkPSJNIDMwLjAxLDQ0LjU2IDE5LjkyLDQ4LjQ5IFYgMzIuMjQgbCAxMC4wOSwzLjU0IHoiLz4mI3hhOyYjeGE7PHBhdGggaWQ9InBhdGg1NTg5MiIgaW5rc2NhcGU6Y29ubmVjdG9yLWN1cnZhdHVyZT0iMCIgc3R5bGU9ImZpbGw6IzgwNDk5OCIgZD0iTSAxMC44OCwzNC45OSBWIDQ1LjYgbCA3LjQ3LDIuODkgViAzMi4zNyBaIG0gMC43OSw5LjgzIC0wLjQsLTAuMTMgdiAtOC43OCBsIDAuNCwtMC4xMyAwLjM5LC0wLjE0IDAuMzksLTAuMTMgdiA5LjU3IGwgLTAuMzksLTAuMTMgeiBtIDEuOTYsMC41MiAtMC41MiwtMC4xMyB2IC05LjgzIGwgMC41MiwtMC4xMyAwLjUzLC0wLjEzIDAuNTIsLTAuMTMgViA0NS43MyBMIDE0LjE2LDQ1LjYgWiBtIDIuMzYsMC43OSAtMC42NSwtMC4yNiBWIDM0LjczIGwgMC42NSwtMC4xMyAwLjY2LC0wLjI3IDAuNzgsLTAuMjYgdiAxMi40NSBsIC0wLjc4LC0wLjI2IHoiLz4mI3hhOyYjeGE7PHBhdGggaWQ9InBhdGg1NTkwMCIgaW5rc2NhcGU6Y29ubmVjdG9yLWN1cnZhdHVyZT0iMCIgc3R5bGU9ImZpbGw6IzgwNDk5OCIgZD0iTSA1My40Nyw0NC41NiA0My4zOCw0OC40OSBWIDMyLjI0IGwgMTAuMDksMy41NCB6Ii8+JiN4YTsmI3hhOzxwYXRoIGlkPSJwYXRoNTU5MDgiIGlua3NjYXBlOmNvbm5lY3Rvci1jdXJ2YXR1cmU9IjAiIHN0eWxlPSJmaWxsOiM4MDQ5OTgiIGQ9Ik0gMzQuMzMsMzQuOTkgViA0NS42IGwgNy40NywyLjg5IFYgMzIuMzcgWiBtIDAuNzksOS44MyAtMC40LC0wLjEzIHYgLTguNzggbCAwLjQsLTAuMTMgMC4zOSwtMC4xNCAwLjM5LC0wLjEzIHYgOS41NyBsIC0wLjM5LC0wLjEzIHogbSAxLjk2LDAuNTIgLTAuNTIsLTAuMTMgdiAtOS44MyBsIDAuNTIsLTAuMTMgMC41MywtMC4xMyAwLjUyLC0wLjEzIFYgNDUuNzMgTCAzNy42MSw0NS42IFogbSAyLjM2LDAuNzkgLTAuNjUsLTAuMjYgViAzNC43MyBsIDAuNjUsLTAuMTMgMC42NiwtMC4yNyAwLjc4LC0wLjI2IFYgNDYuNTIgTCA0MC4xLDQ2LjI2IFoiLz4mI3hhOyYjeGE7PHBhdGggaWQ9InBhdGg1NTkxNiIgaW5rc2NhcGU6Y29ubmVjdG9yLWN1cnZhdHVyZT0iMCIgc3R5bGU9ImZpbGw6IzgwNDk5OCIgZD0ibSA0Mi40NiwyOC40NCAtOS45NiwzLjggViAxNi4xMiBsIDkuOTYsMy41NCB6Ii8+JiN4YTsmI3hhOzxwYXRoIGlkPSJwYXRoNTU5MjQiIGlua3NjYXBlOmNvbm5lY3Rvci1jdXJ2YXR1cmU9IjAiIHN0eWxlPSJmaWxsOiM4MDQ5OTgiIGQ9Im0gMjMuMzMsMTguNzQgdiAxMC42MSBsIDcuNDcsMi44OSBWIDE2LjEyIFogbSAwLjc5LDkuODMgLTAuNCwtMC4xMyB2IC04Ljc4IGwgMC40LC0wLjEzIDAuMzksLTAuMTQgMC4zOSwtMC4xMyB2IDkuNTcgTCAyNC41MSwyOC43IFogbSAxLjk2LDAuNjUgLTAuNTIsLTAuMTMgdiAtOS44MyBsIDAuNTIsLTAuMTMgMC41MywtMC4xMyAwLjUyLC0wLjEzIHYgMTAuNzUgbCAtMC41MiwtMC4xNCB6IG0gMi4zNiwwLjc5IC0wLjY1LC0wLjI2IFYgMTguNjEgbCAwLjY1LC0wLjEzIDAuNjYsLTAuMjcgMC43OCwtMC4yNiBWIDMwLjQgTCAyOS4xLDMwLjE0IFoiLz4mI3hhOyYjeGE7PHBhdGggaWQ9InBhdGg1NTkzMiIgaW5rc2NhcGU6Y29ubmVjdG9yLWN1cnZhdHVyZT0iMCIgc3R5bGU9ImZpbGw6IzgwNDk5OCIgZD0ibSAxOS4xMywyOC40NCAtOS45NiwzLjggViAxNi4xMiBsIDkuOTYsMy41NCB6Ii8+JiN4YTsmI3hhOzxwYXRoIGlkPSJwYXRoNTU5NDAiIGlua3NjYXBlOmNvbm5lY3Rvci1jdXJ2YXR1cmU9IjAiIHN0eWxlPSJmaWxsOiM4MDQ5OTgiIGQ9Im0gMCwxOC43NCB2IDEwLjYxIGwgNy40NywyLjg5IFYgMTYuMTIgWiBtIDAuNzksOS44MyAtMC40LC0wLjEzIHYgLTguNzggbCAwLjQsLTAuMTMgMC4zOSwtMC4xNCAwLjM5LC0wLjEzIHYgOS41NyBMIDEuMTgsMjguNyBaIE0gMi43NSwyOS4yMiAyLjIzLDI5LjA5IFYgMTkuMjYgTCAyLjc1LDE5LjEzIDMuMjgsMTkgMy44LDE4Ljg3IFYgMjkuNjIgTCAzLjI4LDI5LjQ4IFogTSA1LjExLDMwLjAxIDQuNDYsMjkuNzUgViAxOC42MSBMIDUuMTEsMTguNDggNS43NywxOC4yMSA2LjU1LDE3Ljk1IFYgMzAuNCBMIDUuNzcsMzAuMTQgWiIvPiYjeGE7JiN4YTs8cGF0aCBpZD0icGF0aDU1OTQ4IiBpbmtzY2FwZTpjb25uZWN0b3ItY3VydmF0dXJlPSIwIiBzdHlsZT0iZmlsbDojODA0OTk4IiBkPSJtIDY1LjUyLDI4LjQ0IC05Ljk2LDMuOCBWIDE2LjEyIGwgOS45NiwzLjU0IHoiLz4mI3hhOyYjeGE7JiN4YTsmI3hhOyYjeGE7JiN4YTsmI3hhOyYjeGE7JiN4YTsmI3hhOyYjeGE7JiN4YTsmI3hhOyYjeGE7JiN4YTsmI3hhOzxwYXRoIGlkPSJwYXRoNTYwMTIiIGlua3NjYXBlOmNvbm5lY3Rvci1jdXJ2YXR1cmU9IjAiIHN0eWxlPSJmaWxsOiM4MDQ5OTgiIGQ9Im0gNDYuMzksMTguNzQgdiAxMC42MSBsIDcuNDcsMi44OSBWIDE2LjEyIFogbSAwLjc5LDkuODMgLTAuNCwtMC4xMyB2IC04Ljc4IGwgMC40LC0wLjEzIDAuMzksLTAuMTQgMC4zOSwtMC4xMyB2IDkuNTcgTCA0Ny41NywyOC43IFogbSAxLjk2LDAuNjUgLTAuNTIsLTAuMTMgdiAtOS44MyBsIDAuNTIsLTAuMTMgMC41MywtMC4xMyAwLjUyLC0wLjEzIHYgMTAuNzUgbCAtMC41MiwtMC4xNCB6IG0gMi4zNiwwLjc5IC0wLjY1LC0wLjI2IFYgMTguNjEgbCAwLjY1LC0wLjEzIDAuNjYsLTAuMjcgMC43OCwtMC4yNiBWIDMwLjQgbCAtMC43OCwtMC4yNiB6Ii8+JiN4YTs8L3N2Zz4=;" vertex="1" parent="1">
          <mxGeometry x="449.99999999999994" y="520" width="66" height="48" as="geometry" />
        </mxCell>
        <mxCell id="t415n4CLTocWxzWvGbID-26" value="" style="shape=image;verticalLabelPosition=bottom;labelBackgroundColor=#ffffff;verticalAlign=top;aspect=fixed;imageAspect=0;image=data:image/svg+xml,PHN2ZyB4bWxuczpkYz0iaHR0cDovL3B1cmwub3JnL2RjL2VsZW1lbnRzLzEuMS8iIHhtbG5zOmNjPSJodHRwOi8vY3JlYXRpdmVjb21tb25zLm9yZy9ucyMiIHhtbG5zOnJkZj0iaHR0cDovL3d3dy53My5vcmcvMTk5OS8wMi8yMi1yZGYtc3ludGF4LW5zIyIgeG1sbnM6c3ZnPSJodHRwOi8vd3d3LnczLm9yZy8yMDAwL3N2ZyIgeG1sbnM9Imh0dHA6Ly93d3cudzMub3JnLzIwMDAvc3ZnIiB4bWxuczpzb2RpcG9kaT0iaHR0cDovL3NvZGlwb2RpLnNvdXJjZWZvcmdlLm5ldC9EVEQvc29kaXBvZGktMC5kdGQiIHhtbG5zOmlua3NjYXBlPSJodHRwOi8vd3d3Lmlua3NjYXBlLm9yZy9uYW1lc3BhY2VzL2lua3NjYXBlIiB2ZXJzaW9uPSIxLjEiIGlkPSJzdmc1MTc5OSIgaW5rc2NhcGU6dmVyc2lvbj0iMC45Mi4zICgyNDA1NTQ2LCAyMDE4LTAzLTExKSIgc29kaXBvZGk6ZG9jbmFtZT0iYXp1cmVfYXBwX3NlcnZpY2Vfd29ya2VyX3Bvb2xzLnN2ZyIgeD0iMHB4IiB5PSIwcHgiIHZpZXdCb3g9IjAgMCAzNy41NyAzNy41IiB4bWw6c3BhY2U9InByZXNlcnZlIiB3aWR0aD0iMzcuNTciIGhlaWdodD0iMzcuNSI+PG1ldGFkYXRhIGlkPSJtZXRhZGF0YTU3NyI+PHJkZjpSREY+PGNjOldvcmsgcmRmOmFib3V0PSIiPjxkYzpmb3JtYXQ+aW1hZ2Uvc3ZnK3htbDwvZGM6Zm9ybWF0PjxkYzp0eXBlIHJkZjpyZXNvdXJjZT0iaHR0cDovL3B1cmwub3JnL2RjL2RjbWl0eXBlL1N0aWxsSW1hZ2UiLz48ZGM6dGl0bGUvPjwvY2M6V29yaz48L3JkZjpSREY+PC9tZXRhZGF0YT48ZGVmcyBpZD0iZGVmczU3NSI+JiN4YTsJJiN4YTsmI3hhOwkmI3hhOyYjeGE7CSYjeGE7JiN4YTsJJiN4YTsmI3hhOwkmI3hhOyYjeGE7CSYjeGE7JiN4YTsJJiN4YTsmI3hhOwkmI3hhOyYjeGE7CSYjeGE7JiN4YTsJJiN4YTsmI3hhOwkmI3hhOyYjeGE7CSYjeGE7JiN4YTsJJiN4YTsmI3hhOwkmI3hhOzwvZGVmcz4mI3hhOzxmaWx0ZXIgaWQ9ImZpbHRlcl8yIj4mI3hhOwk8ZmVHYXVzc2lhbkJsdXIgaWQ9ImZlR2F1c3NpYW5CbHVyNTE2NzYiIHN0ZERldmlhdGlvbj0iMiIvPiYjeGE7PC9maWx0ZXI+JiN4YTs8c29kaXBvZGk6bmFtZWR2aWV3IGJvcmRlcmNvbG9yPSIjNjY2NjY2IiBib3JkZXJvcGFjaXR5PSIxIiBmaXQtbWFyZ2luLWJvdHRvbT0iMCIgZml0LW1hcmdpbi1sZWZ0PSIwIiBmaXQtbWFyZ2luLXJpZ2h0PSIwIiBmaXQtbWFyZ2luLXRvcD0iMCIgZ3JpZHRvbGVyYW5jZT0iMTAiIGd1aWRldG9sZXJhbmNlPSIxMCIgaWQ9Im5hbWVkdmlldzUxODAxIiBpbmtzY2FwZTpjdXJyZW50LWxheWVyPSJzdmc1MTc5OSIgaW5rc2NhcGU6Y3g9IjIyLjk4MzU3MyIgaW5rc2NhcGU6Y3k9IjE0LjI2MjU4NiIgaW5rc2NhcGU6cGFnZW9wYWNpdHk9IjAiIGlua3NjYXBlOnBhZ2VzaGFkb3c9IjIiIGlua3NjYXBlOndpbmRvdy1oZWlnaHQ9IjEwMTciIGlua3NjYXBlOndpbmRvdy1tYXhpbWl6ZWQ9IjEiIGlua3NjYXBlOndpbmRvdy13aWR0aD0iMTkyMCIgaW5rc2NhcGU6d2luZG93LXg9Ii04IiBpbmtzY2FwZTp3aW5kb3cteT0iLTgiIGlua3NjYXBlOnpvb209IjEwLjU3MDAyMiIgb2JqZWN0dG9sZXJhbmNlPSIxMCIgcGFnZWNvbG9yPSIjZmZmZmZmIiBzaG93Z3JpZD0iZmFsc2UiPiYjeGE7CTwvc29kaXBvZGk6bmFtZWR2aWV3PiYjeGE7JiN4YTs8cGF0aCBpZD0icGF0aDUxNjg5IiBpbmtzY2FwZTpjb25uZWN0b3ItY3VydmF0dXJlPSIwIiBzdHlsZT0iZmlsbDojNTliNGQ5IiBkPSJtIDE4Ljc1LDM3LjUgYyAtMC45LDAgLTEuOCwtMC4zOCAtMi40OCwtMS4wNSBMIDEuMDUsMjEuMjIgQyAwLjM3LDIwLjU1IDAsMTkuNjUgMCwxOC43NSAwLDE3Ljg1IDAuMzcsMTYuOTUgMS4wNSwxNi4yNyBMIDE2LjI3LDEuMDUgQyAxNi45NSwwLjM3IDE3Ljg1LDAgMTguNzUsMCBjIDAuOSwwIDEuOCwwLjM3IDIuNDcsMS4wNSBsIDE1LjMxLDE1LjMgYyAwLjY3LDAuNjcgMS4wNCwxLjUgMS4wNCwyLjQ3IDAsMC45OCAtMC4zNywxLjggLTEuMDQsMi40OCBMIDIxLjIyLDM2LjQ1IGMgLTAuNjcsMC42NyAtMS41NywxLjA1IC0yLjQ3LDEuMDUgeiIvPiYjeGE7JiN4YTs8cGF0aCBpZD0icGF0aDUxNjk3IiBpbmtzY2FwZTpjb25uZWN0b3ItY3VydmF0dXJlPSIwIiBzdHlsZT0iZmlsbDojZmZmZmZmO2ZpbGwtb3BhY2l0eTowLjA5ODAwMDAyIiBkPSJNIDIxLjIzLDEuMDUgQyAyMC41NSwwLjM3IDE5LjY1LDAgMTguNzUsMCAxNy44NSwwIDE2Ljk1LDAuMzcgMTYuMjgsMS4wNSBMIDEuMDUsMTYuMjcgQyAwLjM3LDE2Ljk1IDAsMTcuODUgMCwxOC43NSBjIDAsMC45IDAuMzcsMS44IDEuMDUsMi40NyBMIDkuNjcsMjkuODUgMjUuOTUsNS43NyBaIi8+JiN4YTsmI3hhOzxwYXRoIGlkPSJwYXRoNTE3MDUiIGlua3NjYXBlOmNvbm5lY3Rvci1jdXJ2YXR1cmU9IjAiIHN0eWxlPSJmaWxsOiMzZTNlM2UiIGQ9Ik0gMjIuOTUsOS40NSBWIDguNTUgTCAyMi44LDguNDcgMjEuODMsOC4xNyAyMS41Myw3LjUgMjIuMDUsNi4zNyAyMS4zOCw1LjcgMjEuMjMsNS43NyAyMC4zMyw2LjIyIDE5LjY1LDUuOTIgMTkuMiw0LjggSCAxOC4yMyBWIDQuOTUgTCAxNy44NSw2IDE3LjE4LDYuMjIgMTYuMTMsNS43IDE1LjQ1LDYuMzcgdiAwLjE1IGwgMC41MywwLjk4IC0wLjMsMC42NyAtMS4xMywwLjM4IHYgMC45NyBsIDAuMTUsMC4wOCAwLjk4LDAuMyAwLjMsMC42NyAtMC41MywxLjEzIDAuNjgsMC42NyAwLjE1LC0wLjA3IDAuOSwtMC41MyAwLjY3LDAuMyAwLjQ1LDEuMTMgaCAwLjk4IHYgLTAuMDggbCAwLjM3LC0xLjA1IDAuNjgsLTAuMyAxLjA1LDAuNTMgMC42NywtMC42OCB2IC0wLjA3IGwgLTAuNTIsLTAuOTggMC4zLC0wLjY3IHoiLz4mI3hhOyYjeGE7PHBhdGggaWQ9InBhdGg1MTcxMyIgaW5rc2NhcGU6Y29ubmVjdG9yLWN1cnZhdHVyZT0iMCIgc3R5bGU9ImZpbGw6I2YxZjFmMTtmaWxsLW9wYWNpdHk6MC4yIiBkPSJNIDIxLjIyLDUuNzcgMjAuMjUsNi4yMiAxOS41Nyw1LjkyIDE5LjEyLDQuNzkgaCAtMC45NyBsIC0wLjA4LDAuMTUgLTAuMjIsMS4wNSAtMC42OCwwLjMgLTEuMTIsLTAuNTIgLTAuNjgsMC42NyAwLjA4LDAuMTUgMC41MiwwLjk4IC0wLjMsMC42NyAtMS4xMiwwLjQ1IHYgMC45OCBsIDAuMTUsMC4wNyAxLjA1LDAuMyAwLjMsMC42OCAtMC41MywxLjEyIDAuNjgsMC42OCAwLjE1LC0wLjA4IDAuMzcsLTAuMjIgMC41MywtMC45OCB2IDAgbCAzLjIyLC00LjQyIHYgMCB6Ii8+JiN4YTsmI3hhOzxjaXJjbGUgaWQ9ImVsbGlwc2U1MTcyMSIgc3R5bGU9ImZpbGw6IzU5YjRkOSIgY3g9IjE4Ljc1IiBjeT0iOSIgcj0iMS41Ii8+JiN4YTsmI3hhOzxwYXRoIGlkPSJwYXRoNTE3MjkiIGlua3NjYXBlOmNvbm5lY3Rvci1jdXJ2YXR1cmU9IjAiIHN0eWxlPSJmaWxsOiMzZTNlM2UiIGQ9Ik0gMjIuOTUsMjkuNTUgViAyOC41NyBIIDIyLjggbCAtMC45NywtMC4zNyAtMC4zLC0wLjY4IDAuNTIsLTEuMDUgLTAuNjcsLTAuNjcgaCAtMC4xNSBsIC0wLjksMC41MiAtMC42OCwtMC4zIC0wLjQ1LC0xLjEyIGggLTAuOTcgdiAwLjE1IGwgLTAuMzgsMC45NyAtMC42NywwLjMgLTEuMDUsLTAuNTIgLTAuNjgsMC42NyB2IDAuMTUgbCAwLjUzLDAuOTggLTAuMywwLjYgLTEuMTMsMC40NSB2IDAuOTcgaCAwLjE1IGwgMC45OCwwLjM4IDAuMywwLjY3IC0wLjUzLDEuMDUgMC42OCwwLjc1IDAuMTUsLTAuMDcgMC45LC0wLjUzIDAuNjcsMC4zIDAuNDUsMS4xMyBoIDAuOTggdiAtMC4xNSBsIDAuMzcsLTAuOTggMC42OCwtMC4zIDEuMDUsMC41MyAwLjY3LC0wLjY4IHYgLTAuMTUgbCAtMC41MiwtMC45IDAuMywtMC42NyB6Ii8+JiN4YTsmI3hhOzxwYXRoIGlkPSJwYXRoNTE3MzciIGlua3NjYXBlOmNvbm5lY3Rvci1jdXJ2YXR1cmU9IjAiIHN0eWxlPSJmaWxsOiNmMWYxZjE7ZmlsbC1vcGFjaXR5OjAuMiIgZD0ibSAyMS4yMywyNS44NyAtMC45OCwwLjQ1IC0wLjY3LC0wLjMgLTAuNDUsLTEuMTMgaCAtMC45OCBsIC0wLjA3LDAuMTUgLTAuMywxLjA1IC0wLjY4LDAuMyAtMS4xMiwtMC41MiAtMC42OCwwLjY3IDAuMDgsMC4xNSAwLjUyLDAuOTggLTAuMywwLjY3IC0xLjEyLDAuNDUgdiAwLjk4IGwgMC4xNSwwLjA3IDEuMDUsMC4zIDAuMywwLjY4IC0wLjUzLDEuMTIgMC42OCwwLjY4IDAuMTUsLTAuMDggMC4zNywtMC4yMiAwLjYsLTAuODMgdiAwIGwgMy4yMywtNC40MiB2IDAgeiIvPiYjeGE7JiN4YTs8Y2lyY2xlIGlkPSJlbGxpcHNlNTE3NDUiIHN0eWxlPSJmaWxsOiM1OWI0ZDkiIGN4PSIxOC43NSIgY3k9IjI5LjEiIHI9IjEuNSIvPiYjeGE7JiN4YTs8cGF0aCBpZD0icGF0aDUxNzUzIiBpbmtzY2FwZTpjb25uZWN0b3ItY3VydmF0dXJlPSIwIiBzdHlsZT0iZmlsbDojM2UzZTNlIiBkPSJNIDEyLjY4LDE5LjIgViAxOC4yMiBIIDEyLjUzIEwgMTEuNDgsMTcuODUgMTEuMjUsMTcuMTcgMTEuNzgsMTYuMTIgMTEuMSwxNS40NSBIIDEwLjk1IEwgOS45OCwxNS45NyA5LjMsMTUuNjcgOC45MywxNC41NSBIIDcuOTUgTCA3Ljg4LDE0LjcgNy41OCwxNS42NyA2LjksMTUuOTcgNS43OCwxNS40NSA1LjEsMTYuMTIgNS4xOCwxNi4yNyA1LjYzLDE3LjE3IDUuNCwxNy44NSA0LjIsMTguMyB2IDAuOTcgaCAwLjE1IGwgMS4wNSwwLjM4IDAuMjMsMC42NyAtMC41MywxLjA1IDAuNjgsMC42OCBoIDAuMTUgbCAwLjk3LC0wLjUzIDAuNjgsMC4zIDAuMzcsMS4xMyBIIDguOTMgTCA5LDIyLjggbCAwLjMsLTAuOTggMC42OCwtMC4zIDEuMTIsMC41MyAwLjY4LC0wLjY4IC0wLjA4LC0wLjE1IC0wLjQ1LC0wLjkgMC4yMywtMC42NyB6Ii8+JiN4YTsmI3hhOzxwYXRoIGlkPSJwYXRoNTE3NjEiIGlua3NjYXBlOmNvbm5lY3Rvci1jdXJ2YXR1cmU9IjAiIHN0eWxlPSJmaWxsOiNmMWYxZjE7ZmlsbC1vcGFjaXR5OjAuMiIgZD0iTSAxMC45NSwxNS40NSA5Ljk3LDE1LjkgOS4zLDE1LjYgOC44NSwxNC40NyBIIDcuODcgTCA3LjgsMTQuNjIgNy41LDE1LjY3IDYuODIsMTUuOTcgNS43LDE1LjQ1IDUuMDIsMTYuMTIgNS4xLDE2LjI3IDUuNjIsMTcuMjUgNS4zMiwxNy45MiA0LjIsMTguMzcgdiAwLjk4IEwgNC4zNSwxOS40MiA1LjQsMTkuNzIgNS43LDIwLjQgNS4xNywyMS41MiA1Ljg1LDIyLjIgNiwyMi4xMiA2LjM3LDIxLjkgNi45LDIxIHYgMCBsIDMuMjIsLTQuNDMgdiAwIHoiLz4mI3hhOyYjeGE7PGNpcmNsZSBpZD0iZWxsaXBzZTUxNzY5IiBzdHlsZT0iZmlsbDojNTliNGQ5IiBjeD0iOC40Nzk5OTk1IiBjeT0iMTguNzUiIHI9IjEuNSIvPiYjeGE7JiN4YTs8cGF0aCBpZD0icGF0aDUxNzc3IiBpbmtzY2FwZTpjb25uZWN0b3ItY3VydmF0dXJlPSIwIiBzdHlsZT0iZmlsbDojM2UzZTNlIiBkPSJtIDMzLjY4LDE5LjIgdiAtMC45OCBoIC0wLjE1IGwgLTEuMDUsLTAuMzcgLTAuMywtMC42OCAwLjUyLC0xLjA1IC0wLjY3LC0wLjY3IGggLTAuMDggbCAtMC45NywwLjUyIC0wLjY4LC0wLjMgLTAuNDUsLTEuMTIgaCAtMC45IGwgLTAuMDcsMC4xNSAtMC4zLDAuOTcgLTAuNjgsMC4zIC0xLjEyLC0wLjUyIC0wLjY4LDAuNjcgMC4wOCwwLjE1IDAuNDUsMC45IC0wLjIzLDAuNjggLTEuMiwwLjQ1IHYgMC45NyBoIDAuMTUgbCAxLjA1LDAuMzggMC4yMywwLjY3IC0wLjUzLDEuMDUgMC42OCwwLjY4IGggMC4xNSBsIDAuOTcsLTAuNTMgMC42OCwwLjMgMC4zNywxLjEzIGggMC45OCBMIDMwLDIyLjggbCAwLjMsLTAuOTggMC42OCwtMC4zIDEuMTIsMC41MyAwLjY4LC0wLjY4IC0wLjA4LC0wLjE1IC0wLjUyLC0wLjkgMC4zLC0wLjY3IHoiLz4mI3hhOyYjeGE7PHBhdGggaWQ9InBhdGg1MTc4NSIgaW5rc2NhcGU6Y29ubmVjdG9yLWN1cnZhdHVyZT0iMCIgc3R5bGU9ImZpbGw6I2YxZjFmMTtmaWxsLW9wYWNpdHk6MC4yIiBkPSJNIDMxLjk1LDE1LjQ1IDMwLjk3LDE1LjkgMzAuMywxNS42IDI5Ljg1LDE0LjQ3IGggLTAuOTggbCAtMC4wNywwLjE1IC0wLjMsMS4wNSAtMC42OCwwLjMgLTEuMTIsLTAuNTIgLTAuNjgsMC42NyAwLjA4LDAuMTUgMC41MiwwLjk4IC0wLjMsMC42NyAtMS4xMiwwLjQ1IHYgMC45OCBsIDAuMTUsMC4wNyAxLjA1LDAuMyAwLjMsMC42OCAtMC41MywxLjEyIDAuNjgsMC42OCAwLjE1LC0wLjA4IDAuMzcsLTAuMjIgMC42LC0wLjgzIHYgMCBsIDMuMjMsLTQuNDIgdiAwIHoiLz4mI3hhOyYjeGE7PGNpcmNsZSBpZD0iZWxsaXBzZTUxNzkzIiBzdHlsZT0iZmlsbDojNTliNGQ5IiBjeD0iMjkuNCIgY3k9IjE4Ljc1IiByPSIxLjUiLz4mI3hhOzwvc3ZnPg==;" vertex="1" parent="1">
          <mxGeometry x="464" y="470" width="38" height="38" as="geometry" />
        </mxCell>
        <mxCell id="t415n4CLTocWxzWvGbID-28" value="" style="shape=image;verticalLabelPosition=bottom;labelBackgroundColor=#ffffff;verticalAlign=top;aspect=fixed;imageAspect=0;image=data:image/svg+xml,PHN2ZyB4bWxuczpkYz0iaHR0cDovL3B1cmwub3JnL2RjL2VsZW1lbnRzLzEuMS8iIHhtbG5zOmNjPSJodHRwOi8vY3JlYXRpdmVjb21tb25zLm9yZy9ucyMiIHhtbG5zOnJkZj0iaHR0cDovL3d3dy53My5vcmcvMTk5OS8wMi8yMi1yZGYtc3ludGF4LW5zIyIgeG1sbnM6c3ZnPSJodHRwOi8vd3d3LnczLm9yZy8yMDAwL3N2ZyIgeG1sbnM9Imh0dHA6Ly93d3cudzMub3JnLzIwMDAvc3ZnIiB4bWxuczpzb2RpcG9kaT0iaHR0cDovL3NvZGlwb2RpLnNvdXJjZWZvcmdlLm5ldC9EVEQvc29kaXBvZGktMC5kdGQiIHhtbG5zOmlua3NjYXBlPSJodHRwOi8vd3d3Lmlua3NjYXBlLm9yZy9uYW1lc3BhY2VzL2lua3NjYXBlIiB2ZXJzaW9uPSIxLjEiIGlkPSJzdmc3OTg2MSIgaW5rc2NhcGU6dmVyc2lvbj0iMC45Mi4zICgyNDA1NTQ2LCAyMDE4LTAzLTExKSIgc29kaXBvZGk6ZG9jbmFtZT0iZG9jdW1lbnRkYi5zdmciIHg9IjBweCIgeT0iMHB4IiB2aWV3Qm94PSIwIDAgNzUuNTIgOTkuOSIgeG1sOnNwYWNlPSJwcmVzZXJ2ZSIgd2lkdGg9Ijc1LjUxOTk5NyIgaGVpZ2h0PSI5OS45MDAwMDIiPjxtZXRhZGF0YSBpZD0ibWV0YWRhdGExNTQ3Ij48cmRmOlJERj48Y2M6V29yayByZGY6YWJvdXQ9IiI+PGRjOmZvcm1hdD5pbWFnZS9zdmcreG1sPC9kYzpmb3JtYXQ+PGRjOnR5cGUgcmRmOnJlc291cmNlPSJodHRwOi8vcHVybC5vcmcvZGMvZGNtaXR5cGUvU3RpbGxJbWFnZSIvPjxkYzp0aXRsZS8+PC9jYzpXb3JrPjwvcmRmOlJERj48L21ldGFkYXRhPjxkZWZzIGlkPSJkZWZzMTU0NSI+JiN4YTsJJiN4YTsmI3hhOwkmI3hhOyYjeGE7CSYjeGE7JiN4YTsJJiN4YTsmI3hhOwkmI3hhOyYjeGE7CSYjeGE7CSYjeGE7CSYjeGE7JiN4YTsJJiN4YTsJJiN4YTsJJiN4YTsmI3hhOwkJJiN4YTsJJiN4YTsJCSYjeGE7CSYjeGE7CQkmI3hhOwkmI3hhOwkJJiN4YTsJJiN4YTsJCSYjeGE7CSYjeGE7CQkmI3hhOwkmI3hhOwkJJiN4YTsJJiN4YTsJCQkmI3hhOwkJJiN4YTsJCQkmI3hhOwkJPC9kZWZzPiYjeGE7PGZpbHRlciBpZD0iZmlsdGVyXzIiPiYjeGE7CTxmZUdhdXNzaWFuQmx1ciBpZD0iZmVHYXVzc2lhbkJsdXI3OTc5MSIgc3RkRGV2aWF0aW9uPSIyIi8+JiN4YTs8L2ZpbHRlcj4mI3hhOzxzb2RpcG9kaTpuYW1lZHZpZXcgYm9yZGVyY29sb3I9IiM2NjY2NjYiIGJvcmRlcm9wYWNpdHk9IjEiIGZpdC1tYXJnaW4tYm90dG9tPSIwIiBmaXQtbWFyZ2luLWxlZnQ9IjAiIGZpdC1tYXJnaW4tcmlnaHQ9IjAiIGZpdC1tYXJnaW4tdG9wPSIwIiBncmlkdG9sZXJhbmNlPSIxMCIgZ3VpZGV0b2xlcmFuY2U9IjEwIiBpZD0ibmFtZWR2aWV3Nzk4NjMiIGlua3NjYXBlOmN1cnJlbnQtbGF5ZXI9InN2Zzc5ODYxIiBpbmtzY2FwZTpjeD0iLTgyLjQ4ODg2MyIgaW5rc2NhcGU6Y3k9IjUxLjY0ODExNyIgaW5rc2NhcGU6cGFnZW9wYWNpdHk9IjAiIGlua3NjYXBlOnBhZ2VzaGFkb3c9IjIiIGlua3NjYXBlOndpbmRvdy1oZWlnaHQ9IjEwMTciIGlua3NjYXBlOndpbmRvdy1tYXhpbWl6ZWQ9IjEiIGlua3NjYXBlOndpbmRvdy13aWR0aD0iMTkyMCIgaW5rc2NhcGU6d2luZG93LXg9Ii04IiBpbmtzY2FwZTp3aW5kb3cteT0iLTgiIGlua3NjYXBlOnpvb209IjMuNjk2NzkwNyIgb2JqZWN0dG9sZXJhbmNlPSIxMCIgcGFnZWNvbG9yPSIjZmZmZmZmIiBzaG93Z3JpZD0iZmFsc2UiPiYjeGE7CTwvc29kaXBvZGk6bmFtZWR2aWV3PiYjeGE7JiN4YTs8cGF0aCBpZD0icGF0aDc5ODA0IiBpbmtzY2FwZTpjb25uZWN0b3ItY3VydmF0dXJlPSIwIiBzdHlsZT0iZmlsbDojMzk5OWM2IiBkPSJNIDAsMTMuNTkgViA4Ni4xMSBDIDAsOTMuNyAxNi43OCw5OS43IDM3Ljc2LDk5LjcgViAxMy41OSBaIi8+JiN4YTsmI3hhOzxwYXRoIGlkPSJwYXRoNzk4MTIiIGlua3NjYXBlOmNvbm5lY3Rvci1jdXJ2YXR1cmU9IjAiIHN0eWxlPSJmaWxsOiM1OWI0ZDkiIGQ9Im0gMzcuMTYsOTkuOSBoIDAuNiBjIDIwLjc4LDAgMzcuNzYsLTYuMiAzNy43NiwtMTMuNTkgViAxMy41OCBIIDM3LjE2IFoiLz4mI3hhOyYjeGE7PHBhdGggaWQ9InBhdGg3OTgyMCIgaW5rc2NhcGU6Y29ubmVjdG9yLWN1cnZhdHVyZT0iMCIgc3R5bGU9ImZpbGw6I2ZmZmZmZiIgZD0ibSA3NS41MiwxMy41OCBjIDAsNy41OSAtMTYuNzgsMTMuNTkgLTM3Ljc2LDEzLjU5IEMgMTYuNzgsMjcuMTcgMCwyMS4xNyAwLDEzLjU4IDAsNi4xOSAxNi45OCwwIDM3Ljc2LDAgNTguNTQsMCA3NS41Miw2LjE5IDc1LjUyLDEzLjU4IFoiLz4mI3hhOyYjeGE7PHBhdGggaWQ9InBhdGg3OTgyOCIgaW5rc2NhcGU6Y29ubmVjdG9yLWN1cnZhdHVyZT0iMCIgc3R5bGU9ImZpbGw6IzdmYmEwMCIgZD0ibSA2Ny43MywxMi43OSBjIDAsNC45OSAtMTMuMzksOC45OSAtMjkuOTcsOC45OSAtMTYuNTgsMCAtMjkuOTcsLTQgLTI5Ljk3LC04Ljk5IDAsLTUgMTMuMzksLTguOTkgMjkuOTcsLTguOTkgMTYuNTgsMCAyOS45NywzLjk5IDI5Ljk3LDguOTkgeiIvPiYjeGE7JiN4YTs8cGF0aCBpZD0icGF0aDc5ODM2IiBpbmtzY2FwZTpjb25uZWN0b3ItY3VydmF0dXJlPSIwIiBzdHlsZT0iZmlsbDojYjhkNDMyIiBkPSJtIDYxLjUzLDE4LjM4IGMgNCwtMS42IDYuMiwtMy40IDYuMiwtNS42IDAsLTQuOTkgLTEzLjM5LC04Ljk5IC0yOS45NywtOC45OSAtMTYuNTgsMCAtMjkuOTcsNCAtMjkuOTcsOC45OSAwLDIgMi40LDQgNi4xOSw1LjYgNS40LC0yLjIgMTMuOTksLTMuNiAyMy43OCwtMy42IDkuNTksMCAxOC4xOCwxLjQgMjMuNzcsMy42IHoiLz4mI3hhOzxwYXRoIGQ9Im0gMjYuOTY4MjMsODMuNTExOSBjIC0yLjk5LDAgLTUuMzksLTAuNCAtNi45OSwtMSAtMS44LC0wLjYgLTMsLTEuNiAtMy43OSwtMi44IC0wLjgsLTEuNCAtMS4yLC0zLjQgLTEuMiwtNS45OSB2IC00LjQgYyAwLC0yLjggLTEuMiwtNC4zOSAtMy42LC00LjM5IHYgLTUuNCBjIDIuNCwwIDMuNiwtMS40IDMuNiwtNC4zOSB2IC00IGMgMCwtMi44IDAuNCwtNC45OSAxLjIsLTYuMTkgMC43OSwtMS40IDEuOTksLTIuMiAzLjU5LC0zIDEuOCwtMC42IDQsLTEgNi45OSwtMSB2IDUuNCBjIC0xLjM5LDAgLTIuMTksMC4yIC0yLjk5LDAuNzkgLTAuNiwwLjYgLTEsMS42IC0xLDMgdiAzLjQgYyAwLDIuMiAtMC4yLDMuOTkgLTAuOCw1LjM5IC0wLjYsMS40IC0xLjYsMi40IC0zLDMgMS40LDAuNiAyLjQsMS42IDMsMy4yIDAuNiwxLjM5IDEsMy4zOSAxLDUuNTkgdiAzIGMgMCwxLjQgMC4yLDIuMzkgMC44LDIuOTkgMC42LDAuNiAxLjYsMSAyLjk5LDEgdiA1LjggeiIgc3R5bGU9ImZpbGw6I2ZmZmZmZiIgaW5rc2NhcGU6Y29ubmVjdG9yLWN1cnZhdHVyZT0iMCIgaWQ9InBhdGg3OTg0NiIvPiYjeGE7PHBhdGggZD0ibSA2MC45MzMwMyw2NC45MzE5IGMgLTIuMzksMCAtMy41OSwxLjM5IC0zLjU5LDQuMzkgdiA0IGMgMCwyLjc5IC0wLjQsNC45OSAtMS4yLDYuMTkgLTAuOCwxLjQgLTIsMi4yIC0zLjYsMyAtMS44LDAuNiAtMy45OSwxIC02Ljk5LDEgdiAtNS40IGMgMS40LDAgMi40LC0wLjIgMywtMC44IDAuNiwtMC42IDEsLTEuNTkgMSwtMi45OSB2IC0zLjQgYyAwLC0yLjIgMC4yLC00IDAuOCwtNS4zOSAwLjU5LC0xLjQgMS41OSwtMi40IDIuOTksLTMgLTEuNCwtMC42IC0yLjQsLTEuOCAtMi45OSwtMy4yIC0wLjYsLTEuNCAtMSwtMy4zOSAtMSwtNS41OSB2IC0zIGMgMCwtMS40IC0wLjIsLTIuNCAtMC44LC0zIC0wLjYsLTAuNiAtMS42LC0xIC0zLC0xIHYgLTUuMzkgYyAzLDAgNS4zOSwwLjQgNi45OSwxIDEuOCwwLjYgMywxLjYgMy44LDIuOCAwLjgsMS40IDEuMiwzLjM5IDEuMiw1Ljk5IHYgNC40IGMgMCwyLjc5IDEuMiw0LjM5IDMuNTksNC4zOSB2IDUgeiIgc3R5bGU9ImZpbGw6I2ZmZmZmZiIgaW5rc2NhcGU6Y29ubmVjdG9yLWN1cnZhdHVyZT0iMCIgaWQ9InBhdGg3OTg1NCIvPiYjeGE7PC9zdmc+;" vertex="1" parent="1">
          <mxGeometry x="258.06" y="683" width="45.6" height="60" as="geometry" />
        </mxCell>
        <mxCell id="t415n4CLTocWxzWvGbID-29" value="" style="shape=image;verticalLabelPosition=bottom;labelBackgroundColor=#ffffff;verticalAlign=top;aspect=fixed;imageAspect=0;image=data:image/svg+xml,PHN2ZyB4bWxuczpkYz0iaHR0cDovL3B1cmwub3JnL2RjL2VsZW1lbnRzLzEuMS8iIHhtbG5zOmNjPSJodHRwOi8vY3JlYXRpdmVjb21tb25zLm9yZy9ucyMiIHhtbG5zOnJkZj0iaHR0cDovL3d3dy53My5vcmcvMTk5OS8wMi8yMi1yZGYtc3ludGF4LW5zIyIgeG1sbnM6c3ZnPSJodHRwOi8vd3d3LnczLm9yZy8yMDAwL3N2ZyIgeG1sbnM9Imh0dHA6Ly93d3cudzMub3JnLzIwMDAvc3ZnIiB4bWxuczpzb2RpcG9kaT0iaHR0cDovL3NvZGlwb2RpLnNvdXJjZWZvcmdlLm5ldC9EVEQvc29kaXBvZGktMC5kdGQiIHhtbG5zOmlua3NjYXBlPSJodHRwOi8vd3d3Lmlua3NjYXBlLm9yZy9uYW1lc3BhY2VzL2lua3NjYXBlIiB2ZXJzaW9uPSIxLjEiIGlkPSJzdmc5NzA4NCIgaW5rc2NhcGU6dmVyc2lvbj0iMC45Mi4zICgyNDA1NTQ2LCAyMDE4LTAzLTExKSIgc29kaXBvZGk6ZG9jbmFtZT0ic3FsX2RhdGFiYXNlLnN2ZyIgeD0iMHB4IiB5PSIwcHgiIHZpZXdCb3g9IjAgMCA3NS41MiAxMDAuMTEiIHhtbDpzcGFjZT0icHJlc2VydmUiIHdpZHRoPSI3NS41MTk5OTciIGhlaWdodD0iMTAwLjExIj48bWV0YWRhdGEgaWQ9Im1ldGFkYXRhMTcyNiI+PHJkZjpSREY+PGNjOldvcmsgcmRmOmFib3V0PSIiPjxkYzpmb3JtYXQ+aW1hZ2Uvc3ZnK3htbDwvZGM6Zm9ybWF0PjxkYzp0eXBlIHJkZjpyZXNvdXJjZT0iaHR0cDovL3B1cmwub3JnL2RjL2RjbWl0eXBlL1N0aWxsSW1hZ2UiLz48ZGM6dGl0bGUvPjwvY2M6V29yaz48L3JkZjpSREY+PC9tZXRhZGF0YT48ZGVmcyBpZD0iZGVmczE3MjQiPiYjeGE7CSYjeGE7JiN4YTsJJiN4YTsmI3hhOwkmI3hhOyYjeGE7CSYjeGE7JiN4YTsJJiN4YTsmI3hhOwkmI3hhOyYjeGE7CSYjeGE7JiN4YTsJJiN4YTsmI3hhOwkmI3hhOyYjeGE7CQkmI3hhOwkmI3hhOwkJJiN4YTsJJiN4YTsJCSYjeGE7CSYjeGE7CQkmI3hhOwkmI3hhOwkJJiN4YTsJJiN4YTsJCSYjeGE7CSYjeGE7CQkmI3hhOwkmI3hhOwkJJiN4YTsJPC9kZWZzPiYjeGE7PGZpbHRlciBpZD0iZmlsdGVyXzIiPiYjeGE7CTxmZUdhdXNzaWFuQmx1ciBpZD0iZmVHYXVzc2lhbkJsdXI5NzAwMSIgc3RkRGV2aWF0aW9uPSIyIi8+JiN4YTs8L2ZpbHRlcj4mI3hhOzxzb2RpcG9kaTpuYW1lZHZpZXcgYm9yZGVyY29sb3I9IiM2NjY2NjYiIGJvcmRlcm9wYWNpdHk9IjEiIGZpdC1tYXJnaW4tYm90dG9tPSIwIiBmaXQtbWFyZ2luLWxlZnQ9IjAiIGZpdC1tYXJnaW4tcmlnaHQ9IjAiIGZpdC1tYXJnaW4tdG9wPSIwIiBncmlkdG9sZXJhbmNlPSIxMCIgZ3VpZGV0b2xlcmFuY2U9IjEwIiBpZD0ibmFtZWR2aWV3OTcwODYiIGlua3NjYXBlOmN1cnJlbnQtbGF5ZXI9InN2Zzk3MDg0IiBpbmtzY2FwZTpjeD0iLTQ2LjkyMDI2NSIgaW5rc2NhcGU6Y3k9IjM4LjczMTY2NiIgaW5rc2NhcGU6cGFnZW9wYWNpdHk9IjAiIGlua3NjYXBlOnBhZ2VzaGFkb3c9IjIiIGlua3NjYXBlOndpbmRvdy1oZWlnaHQ9IjEwMTciIGlua3NjYXBlOndpbmRvdy1tYXhpbWl6ZWQ9IjEiIGlua3NjYXBlOndpbmRvdy13aWR0aD0iMTkyMCIgaW5rc2NhcGU6d2luZG93LXg9Ii04IiBpbmtzY2FwZTp3aW5kb3cteT0iLTgiIGlua3NjYXBlOnpvb209IjUuMjE5MzE5NyIgb2JqZWN0dG9sZXJhbmNlPSIxMCIgcGFnZWNvbG9yPSIjZmZmZmZmIiBzaG93Z3JpZD0iZmFsc2UiPiYjeGE7CTwvc29kaXBvZGk6bmFtZWR2aWV3PiYjeGE7JiN4YTs8cGF0aCBpZD0icGF0aDk3MDE0IiBpbmtzY2FwZTpjb25uZWN0b3ItY3VydmF0dXJlPSIwIiBzdHlsZT0iZmlsbDojMDA3MmM2IiBkPSJtIDAsMTMuNjggdiA3Mi43NSBjIDAsNy41NSAxNi45MSwxMy42OCAzNy43NiwxMy42OCBWIDEzLjY4IGMgMCwwIC0zNy43NiwwIC0zNy43NiwwIHoiLz4mI3hhOyYjeGE7PHBhdGggaWQ9InBhdGg5NzAyMiIgaW5rc2NhcGU6Y29ubmVjdG9yLWN1cnZhdHVyZT0iMCIgc3R5bGU9ImZpbGw6IzAwNzJjNiIgZD0ibSAzNy4yNCwxMDAuMTEgaCAwLjUyIGMgMjAuODUsMCAzNy43NiwtNi4xMyAzNy43NiwtMTMuNjggViAxMy42OCBIIDM3LjI0IFoiLz4mI3hhOyYjeGE7PHBhdGggaWQ9InBhdGg5NzAzMCIgaW5rc2NhcGU6Y29ubmVjdG9yLWN1cnZhdHVyZT0iMCIgc3R5bGU9ImZpbGw6I2ZmZmZmZjtmaWxsLW9wYWNpdHk6MC4xNSIgZD0ibSAzNy4yNCwxMDAuMTEgaCAwLjUyIGMgMjAuODUsMCAzNy43NiwtNi4xMyAzNy43NiwtMTMuNjggViAxMy42OCBIIDM3LjI0IFoiLz4mI3hhOyYjeGE7PHBhdGggaWQ9InBhdGg5NzAzOCIgaW5rc2NhcGU6Y29ubmVjdG9yLWN1cnZhdHVyZT0iMCIgc3R5bGU9ImZpbGw6I2ZmZmZmZiIgZD0ibSA3NS41MiwxMy42OCBjIDAsNy41NSAtMTYuOTEsMTMuNjggLTM3Ljc2LDEzLjY4IEMgMTYuOTEsMjcuMzYgMCwyMS4yMyAwLDEzLjY4IDAsNi4xMyAxNi45MSwwIDM3Ljc2LDAgNTguNjEsMCA3NS41Miw2LjEzIDc1LjUyLDEzLjY4IFoiLz4mI3hhOyYjeGE7PHBhdGggaWQ9InBhdGg5NzA0NiIgaW5rc2NhcGU6Y29ubmVjdG9yLWN1cnZhdHVyZT0iMCIgc3R5bGU9ImZpbGw6IzdmYmEwMCIgZD0ibSA2Ny44LDEyLjg5IGMgMCw0Ljk5IC0xMy40NSw5LjAzIC0zMC4wNCw5LjAzIC0xNi41OSwwIC0zMC4wNCwtNC4wNCAtMzAuMDQsLTkuMDMgMCwtNC45OCAxMy40NSwtOS4wMiAzMC4wNCwtOS4wMiAxNi41OSwwIDMwLjA0LDQuMDQgMzAuMDQsOS4wMiB6Ii8+JiN4YTsmI3hhOzxwYXRoIGlkPSJwYXRoOTcwNTQiIGlua3NjYXBlOmNvbm5lY3Rvci1jdXJ2YXR1cmU9IjAiIHN0eWxlPSJmaWxsOiNiOGQ0MzIiIGQ9Ik0gNjEuNTEsMTguNDEgQyA2NS40NCwxNi44OCA2Ny44LDE0Ljk3IDY3LjgsMTIuOSA2Ny44LDcuOTEgNTQuMzUsMy44NyAzNy43NiwzLjg3IDIxLjE3LDMuODcgNy43Miw3LjkxIDcuNzIsMTIuOSBjIDAsMi4wNyAyLjM2LDMuOTggNi4zLDUuNTEgNS40OSwtMi4xNCAxNC4wNywtMy41MSAyMy43NCwtMy41MSA5LjY3LDAgMTguMjUsMS4zNyAyMy43NSwzLjUxIHoiLz4mI3hhOyYjeGE7PHBhdGggaWQ9InBhdGg5NzA2MiIgaW5rc2NhcGU6Y29ubmVjdG9yLWN1cnZhdHVyZT0iMCIgc3R5bGU9ImZpbGw6I2ZmZmZmZiIgZD0ibSAyNS43Nyw2NC4xOCBjIDAsMi4yNiAtMC44Miw0LjAxIC0yLjQ2LDUuMjUgLTEuNjQsMS4yNCAtMy45LDEuODcgLTYuNzksMS44NyAtMi40NiwwIC00LjUyLC0wLjQ1IC02LjE3LC0xLjMzIHYgLTUuMzIgYyAxLjksMS42MSA0LDIuNDIgNi4zLDIuNDIgMS4xLDAgMS45NiwtMC4yMiAyLjU3LC0wLjY2IDAuNiwtMC40NCAwLjksLTEuMDMgMC45LC0xLjc2IDAsLTAuNzIgLTAuMjksLTEuMzUgLTAuODcsLTEuODggLTAuNTgsLTAuNTMgLTEuNzcsLTEuMjIgLTMuNTUsLTIuMDYgLTMuNjMsLTEuNzEgLTUuNDUsLTQuMDQgLTUuNDUsLTYuOTggMCwtMi4xNCAwLjc5LC0zLjg1IDIuMzgsLTUuMTQgMS41OCwtMS4yOSAzLjY5LC0xLjk0IDYuMzEsLTEuOTQgMi4zMywwIDQuMjUsMC4zMSA1Ljc5LDAuOTEgdiA0Ljk3IGMgLTEuNjEsLTEuMTEgLTMuNDQsLTEuNjYgLTUuNDksLTEuNjYgLTEuMDMsMCAtMS44NCwwLjIyIC0yLjQ0LDAuNjYgLTAuNiwwLjQzIC0wLjksMS4wMiAtMC45LDEuNzUgMCwwLjc1IDAuMjQsMS4zNyAwLjczLDEuODUgMC40OCwwLjQ4IDEuNDcsMS4wOCAyLjk2LDEuNzkgMi4yMywxLjA1IDMuODIsMi4xMiA0Ljc2LDMuMjEgMC45NSwxLjA4IDEuNDIsMi40NCAxLjQyLDQuMDUgeiIvPiYjeGE7JiN4YTs8cGF0aCBpZD0icGF0aDk3MDcwIiBpbmtzY2FwZTpjb25uZWN0b3ItY3VydmF0dXJlPSIwIiBzdHlsZT0iZmlsbDojZmZmZmZmIiBkPSJtIDUxLjQxLDU4Ljc5IGMgMCwyLjgxIC0wLjY0LDUuMjQgLTEuOTEsNy4zIC0xLjI4LDIuMDYgLTMuMDcsMy41IC01LjM5LDQuMzQgbCA2LjkyLDYuNCBIIDQ0LjA1IEwgMzkuMTEsNzEuMjkgQyAzNyw3MS4yMSAzNS4wOSw3MC42NSAzMy4zOSw2OS42MSBjIC0xLjcsLTEuMDQgLTMuMDIsLTIuNDcgLTMuOTQsLTQuMjggLTAuOTMsLTEuODEgLTEuMzksLTMuODMgLTEuMzksLTYuMDUgMCwtMi40NyAwLjUsLTQuNjggMS41LC02LjYxIDEuMDEsLTEuOTMgMi40MSwtMy40MiA0LjIzLC00LjQ2IDEuODIsLTEuMDQgMy45LC0xLjU2IDYuMjUsLTEuNTYgMi4xOSwwIDQuMTYsMC41IDUuODksMS41MSAxLjczLDEuMDEgMy4wOCwyLjQ0IDQuMDQsNC4zIDAuOTYsMS44NiAxLjQ0LDMuOTcgMS40NCw2LjMzIHogbSAtNS42NSwwLjMgYyAwLC0yLjQxIC0wLjUyLC00LjMyIC0xLjU4LC01LjcyIC0xLjA1LC0xLjQgLTIuNDksLTIuMSAtNC4zMiwtMi4xIC0xLjg2LDAgLTMuMzUsMC43IC00LjQ3LDIuMSAtMS4xMiwxLjQxIC0xLjY4LDMuMjggLTEuNjgsNS42MiAwLDIuMzMgMC41NSw0LjE5IDEuNjUsNS41OCAxLjA5LDEuMzkgMi41NSwyLjA4IDQuMzYsMi4wOCAxLjg2LDAgMy4zMiwtMC42NyA0LjQxLC0yLjAyIDEuMDksLTEuMzQgMS42MywtMy4xOSAxLjYzLC01LjU0IHoiLz4mI3hhOyYjeGE7PHBhdGggaWQ9InBhdGg5NzA3OCIgaW5rc2NhcGU6Y29ubmVjdG9yLWN1cnZhdHVyZT0iMCIgc3R5bGU9ImZpbGw6I2ZmZmZmZiIgZD0iTSA2OS41NCw3MC44OCBIIDU1LjM1IFYgNDcuMDUgaCA1LjM3IHYgMTkuNDcgaCA4LjgyIHoiLz4mI3hhOzwvc3ZnPg==;" vertex="1" parent="1">
          <mxGeometry x="379.2" y="680" width="48.74" height="63" as="geometry" />
        </mxCell>
      </root>
    </mxGraphModel>
  </diagram>
</mxfile>
